{
.appVersion = "957";
copyright = "Copyright 2015 The Amatica SC Project Authors (hafontia@gmail.com)";
customParameters = (
{
name = license;
value = "This Font Software is licensed under the SIL Open Font License, Version 1.1. This license is available with a FAQ at: http://scripts.sil.org/OFL";
},
{
name = licenseURL;
value = "http://scripts.sil.org/OFL";
},
{
name = vendorID;
value = NeWT;
},
{
name = fsType;
value = (
);
},
{
name = "Disable Last Change";
value = 1;
},
{
name = "Use Typo Metrics";
value = 1;
},
{
name = "Use Line Breaks";
value = 1;
}
);
date = "2016-05-31 13:50:19 +0000";
designer = "Multiple Designers";
designerURL = "http://hafontia.com";
disablesNiceNames = 1;
familyName = "Amatica SC";
featurePrefixes = (
{
automatic = 1;
code = "languagesystem DFLT dflt;
languagesystem latn dflt;
languagesystem hebr dflt;
languagesystem latn ROM;
languagesystem latn MOL;
languagesystem latn CAT;
";
name = Languagesystems;
}
);
features = (
{
automatic = 1;
code = "feature ccmp;
feature locl;
feature frac;
feature ordn;
";
name = aalt;
},
{
automatic = 1;
code = "lookup ccmp_latn_1 {
	script latn;
	@CombiningTopAccents = [breveinvertedcomb commaturnedabovecomb dblgravecomb dotaccentcomb];
	@CombiningNonTopAccents = [dotaboverightcomb];
	sub [i j]' @CombiningTopAccents by [idotless jdotless];
	sub [i j]' @CombiningNonTopAccents @CombiningTopAccents by [idotless jdotless];
} ccmp_latn_1;
";
name = ccmp;
},
{
automatic = 1;
code = "script latn;
language ROM;
sub Scedilla by Scommaaccent;
sub scedilla by scommaaccent;
sub Tcedilla by Tcommaaccent;
sub tcedilla by tcommaaccent;
language MOL;
sub Scedilla by Scommaaccent;
sub scedilla by scommaaccent;
sub Tcedilla by Tcommaaccent;
sub tcedilla by tcommaaccent;
language CAT;
sub  l' periodcentered' l by ldot;
sub  L' periodcentered' L by Ldot;
";
name = locl;
},
{
automatic = 1;
code = "sub one slash four by onequarter;
sub one slash two by onehalf;
sub three slash four by threequarters;
";
name = frac;
},
{

glyphs = (
{
glyphname = A;
layers = (
{
anchors = (
{
name = bottom;
position = "{362, 0}";
},
{
name = ogonek;
position = "{541, 10}";
},
{
name = top;
position = "{462, 1544}";
}
);
layerId = "27A8C2A5-6B67-4598-967C-E5EC4FB8AE70";
paths = (
{
closed = 1;
nodes = (
"559 0 OFFCURVE",
"572 5 OFFCURVE",
"577 17 CURVE SMOOTH",
"582 28 OFFCURVE",
"583 37 OFFCURVE",
"583 57 CURVE SMOOTH",
"583 66 LINE SMOOTH",
"583 125 OFFCURVE",
"579 214 OFFCURVE",
"572 333 CURVE SMOOTH",
"564 452 OFFCURVE",
"560 541 OFFCURVE",
"560 600 CURVE",
"532 940 LINE SMOOTH",
"516 1120 OFFCURVE",
"479 1489 OFFCURVE",
"462 1516 CURVE",
"452 1529 OFFCURVE",
"436 1536 OFFCURVE",
"415 1536 CURVE SMOOTH",
"406 1536 OFFCURVE",
"397 1525 OFFCURVE",
"386 1502 CURVE SMOOTH",
"375 1479 OFFCURVE",
"365 1452 OFFCURVE",
"356 1419 CURVE SMOOTH",
"337 1353 OFFCURVE",
"326 1305 OFFCURVE",
"319 1274 CURVE SMOOTH",
"300 1189 OFFCURVE",
"276 1056 OFFCURVE",
"245 877 CURVE SMOOTH",
"214 698 OFFCURVE",
"188 562 OFFCURVE",
"167 471 CURVE SMOOTH",
"162 450 OFFCURVE",
"152 405 OFFCURVE",
"137 336 CURVE SMOOTH",
"122 267 OFFCURVE",
"108 204 OFFCURVE",
"95 147 CURVE SMOOTH",
"82 90 OFFCURVE",
"74 56 OFFCURVE",
"71 45 CURVE",
"71 44 OFFCURVE",
"71 43 OFFCURVE",
"71 42 CURVE",
"70 41 OFFCURVE",
"70 40 OFFCURVE",
"70 39 CURVE SMOOTH",
"70 20 OFFCURVE",
"92 5 OFFCURVE",
"112 5 CURVE SMOOTH",
"124 5 OFFCURVE",
"131 10 OFFCURVE",
"134 20 CURVE",
"135 27 OFFCURVE",
"171 189 OFFCURVE",
"197 292 CURVE SMOOTH",
"210 343 OFFCURVE",
"218 369 OFFCURVE",
"223 369 CURVE SMOOTH",
"294 369 OFFCURVE",
"499 338 OFFCURVE",
"499 303 CURVE SMOOTH",
"499 35 LINE SMOOTH",
"499 15 OFFCURVE",
"518 0 OFFCURVE",
"538 0 CURVE SMOOTH"
);
},
{
closed = 1;
nodes = (
"454 396 OFFCURVE",
"449 396 OFFCURVE",
"443 397 CURVE",
"437 397 OFFCURVE",
"433 397 OFFCURVE",
"431 397 CURVE SMOOTH",
"350 397 OFFCURVE",
"281 407 OFFCURVE",
"224 426 CURVE",
"224 438 LINE SMOOTH",
"224 483 OFFCURVE",
"236 532 OFFCURVE",
"254 594 CURVE SMOOTH",
"263 625 OFFCURVE",
"269 648 OFFCURVE",
"272 664 CURVE",
"299 780 OFFCURVE",
"330 957 OFFCURVE",
"356 1122 CURVE SMOOTH",
"382 1287 OFFCURVE",
"397 1371 OFFCURVE",
"420 1436 CURVE",
"420 1430 OFFCURVE",
"421 1422 OFFCURVE",
"424 1411 CURVE",
"426 1400 OFFCURVE",
"427 1393 OFFCURVE",
"428 1389 CURVE",
"435 1326 OFFCURVE",
"444 1246 OFFCURVE",
"453 1151 CURVE SMOOTH",
"471 960 OFFCURVE",
"497 601 OFFCURVE",
"497 416 CURVE SMOOTH",
"497 403 OFFCURVE",
"484 396 OFFCURVE",
"457 396 CURVE SMOOTH"
);
}
);
width = 723;
},
{
anchors = (
{
name = bottom;
position = "{358, 0}";
},
{
name = ogonek;
position = "{564, 10}";
},
{
name = top;
position = "{398, 1552}";
}
);
layerId = "156B637B-193E-48A3-AAC8-7B4A3960F885";
paths = (
{
closed = 1;
nodes = (
"573 1 OFFCURVE",
"596 24 OFFCURVE",
"596 70 CURVE SMOOTH",
"596 143 OFFCURVE",
"589 253 OFFCURVE",
"575 400 CURVE SMOOTH",
"560 546 OFFCURVE",
"553 649 OFFCURVE",
"553 710 CURVE SMOOTH",
"553 775 OFFCURVE",
"540 915 OFFCURVE",
"513 1130 CURVE SMOOTH",
"486 1345 OFFCURVE",
"473 1476 OFFCURVE",
"473 1525 CURVE",
"458 1537 OFFCURVE",
"436 1543 OFFCURVE",
"407 1543 CURVE SMOOTH",
"378 1543 OFFCURVE",
"348 1496 OFFCURVE",
"317 1401 CURVE SMOOTH",
"254 1212 OFFCURVE",
"201 912 OFFCURVE",
"153 631 CURVE SMOOTH",
"129 490 OFFCURVE",
"107 365 OFFCURVE",
"86 256 CURVE SMOOTH",
"65 146 OFFCURVE",
"48 82 OFFCURVE",
"35 64 CURVE",
"42 37 OFFCURVE",
"72 23 OFFCURVE",
"125 23 CURVE",
"157 76 OFFCURVE",
"174 178 OFFCURVE",
"192 269 CURVE SMOOTH",
"201 314 OFFCURVE",
"212 349 OFFCURVE",
"226 373 CURVE",
"305 368 OFFCURVE",
"426 348 OFFCURVE",
"465 321 CURVE",
"465 54 LINE SMOOTH",
"465 15 OFFCURVE",
"485 1 OFFCURVE",
"528 1 CURVE SMOOTH"
);
},
{
closed = 1;
nodes = (
"356 441 OFFCURVE",
"296 449 OFFCURVE",
"239 464 CURVE",
"244 583 OFFCURVE",
"353 1210 OFFCURVE",
"396 1254 CURVE",
"395 1251 OFFCURVE",
"395 1245 OFFCURVE",
"395 1236 CURVE SMOOTH",
"395 1161 OFFCURVE",
"418 912 OFFCURVE",
"442 670 CURVE SMOOTH",
"454 549 OFFCURVE",
"461 474 OFFCURVE",
"463 447 CURVE",
"447 443 OFFCURVE",
"433 441 OFFCURVE",
"421 441 CURVE SMOOTH"
);
}
);
width = 716;
}
);
note = A;
unicode = 0041;
},
{
glyphname = AE;
layers = (
{
anchors = (
{
name = bottom;
position = "{421, 0}";
},
{
name = top;
position = "{572, 1549}";
}
);
layerId = "27A8C2A5-6B67-4598-967C-E5EC4FB8AE70";
paths = (
{
closed = 1;
nodes = (
"492 -40 OFFCURVE",
"501 -36 OFFCURVE",
"512 -28 CURVE SMOOTH",
"523 -20 OFFCURVE",
"529 -15 OFFCURVE",
"531 -14 CURVE SMOOTH",
"539 -10 OFFCURVE",
"567 -8 OFFCURVE",
"616 -7 CURVE SMOOTH",
"664 -6 OFFCURVE",
"708 -3 OFFCURVE",
"749 2 CURVE SMOOTH",
"790 7 OFFCURVE",
"810 17 OFFCURVE",
"810 31 CURVE SMOOTH",
"810 48 OFFCURVE",
"785 57 OFFCURVE",
"765 57 CURVE SMOOTH",
"739 57 OFFCURVE",
"700 53 OFFCURVE",
"649 46 CURVE SMOOTH",
"598 39 OFFCURVE",
"559 35 OFFCURVE",
"533 35 CURVE SMOOTH",
"521 35 OFFCURVE",
"515 47 OFFCURVE",
"515 70 CURVE SMOOTH",
"515 79 OFFCURVE",
"515 93 OFFCURVE",
"516 112 CURVE SMOOTH",
"517 131 OFFCURVE",
"517 145 OFFCURVE",
"517 154 CURVE SMOOTH",
"517 209 OFFCURVE",
"516 290 OFFCURVE",
"513 398 CURVE SMOOTH",
"510 506 OFFCURVE",
"509 587 OFFCURVE",
"509 641 CURVE",
"563 641 LINE SMOOTH",
"660 641 OFFCURVE",
"709 653 OFFCURVE",
"709 676 CURVE",
"681 711 LINE",
"662 711 OFFCURVE",
"635 708 OFFCURVE",
"600 701 CURVE SMOOTH",
"565 694 OFFCURVE",
"538 690 OFFCURVE",
"519 690 CURVE",
"509 702 LINE",
"509 755 OFFCURVE",
"510 835 OFFCURVE",
"512 941 CURVE SMOOTH",
"514 1047 OFFCURVE",
"515 1127 OFFCURVE",
"515 1180 CURVE SMOOTH",
"515 1214 OFFCURVE",
"513 1265 OFFCURVE",
"508 1333 CURVE SMOOTH",
"503 1401 OFFCURVE",
"501 1452 OFFCURVE",
"501 1485 CURVE",
"569 1493 OFFCURVE",
"636 1497 OFFCURVE",
"703 1497 CURVE",
"716 1522 LINE",
"716 1543 OFFCURVE",
"695 1554 OFFCURVE",
"652 1554 CURVE SMOOTH",
"634 1554 OFFCURVE",
"607 1552 OFFCURVE",
"572 1549 CURVE SMOOTH",
"537 1546 OFFCURVE",
"511 1544 OFFCURVE",
"494 1544 CURVE SMOOTH",
"478 1544 OFFCURVE",
"463 1534 OFFCURVE",
"449 1515 CURVE SMOOTH",
"434 1495 OFFCURVE",
"418 1454 OFFCURVE",
"400 1393 CURVE SMOOTH",
"309 1098 OFFCURVE",
"219 778 OFFCURVE",
"132 432 CURVE SMOOTH",
"79 227 OFFCURVE",
"51 92 OFFCURVE",
"50 27 CURVE SMOOTH",
"50 18 OFFCURVE",
"57 2 OFFCURVE",
"66 2 CURVE SMOOTH",
"77 2 OFFCURVE",
"88 16 OFFCURVE",
"98 43 CURVE SMOOTH",
"117 97 OFFCURVE",
"138 208 OFFCURVE",
"138 209 CURVE",
"240 600 LINE SMOOTH",
"242 607 OFFCURVE",
"258 613 OFFCURVE",
"287 618 CURVE SMOOTH",
"316 623 OFFCURVE",
"350 626 OFFCURVE",
"387 629 CURVE SMOOTH",
"424 632 OFFCURVE",
"446 634 OFFCURVE",
"451 635 CURVE",
"462 621 LINE",
"462 578 OFFCURVE",
"464 513 OFFCURVE",
"467 426 CURVE SMOOTH",
"470 339 OFFCURVE",
"472 273 OFFCURVE",
"472 229 CURVE SMOOTH",
"472 144 OFFCURVE",
"466 63 OFFCURVE",
"455 -12 CURVE",
"484 -41 LINE"
);
},
{
closed = 1;
nodes = (
"262 732 OFFCURVE",
"431 1364 OFFCURVE",
"455 1393 CURVE",
"464 1326 OFFCURVE",
"468 1246 OFFCURVE",
"468 1153 CURVE SMOOTH",
"468 1094 OFFCURVE",
"467 1010 OFFCURVE",
"465 903 CURVE SMOOTH",
"462 795 OFFCURVE",
"461 723 OFFCURVE",
"460 688 CURVE",
"409 675 OFFCURVE",
"340 667 OFFCURVE",
"255 664 CURVE"
);
}
);
width = 835;
},
{
anchors = (
{
name = bottom;
position = "{503, 0}";
},
{
name = top;
position = "{613, 1552}";
}
);
layerId = "156B637B-193E-48A3-AAC8-7B4A3960F885";
paths = (
{
closed = 1;
nodes = (
"566 -42 OFFCURVE",
"579 -36 OFFCURVE",
"596 -26 CURVE",
"613 -17 OFFCURVE",
"627 -12 OFFCURVE",
"638 -12 CURVE SMOOTH",
"670 -12 LINE SMOOTH",
"833 -12 OFFCURVE",
"914 10 OFFCURVE",
"914 53 CURVE SMOOTH",
"914 84 OFFCURVE",
"879 103 OFFCURVE",
"846 103 CURVE SMOOTH",
"820 103 OFFCURVE",
"782 100 OFFCURVE",
"732 93 CURVE SMOOTH",
"681 86 OFFCURVE",
"644 82 OFFCURVE",
"619 82 CURVE",
"619 147 OFFCURVE",
"618 241 OFFCURVE",
"616 363 CURVE SMOOTH",
"614 484 OFFCURVE",
"613 571 OFFCURVE",
"613 622 CURVE",
"692 621 LINE",
"701 621 LINE SMOOTH",
"776 621 OFFCURVE",
"814 643 OFFCURVE",
"814 687 CURVE",
"772 735 LINE",
"762 735 LINE SMOOTH",
"743 735 OFFCURVE",
"717 732 OFFCURVE",
"684 727 CURVE SMOOTH",
"651 721 OFFCURVE",
"627 717 OFFCURVE",
"614 716 CURVE",
"614 766 OFFCURVE",
"615 841 OFFCURVE",
"617 941 CURVE SMOOTH",
"619 1041 OFFCURVE",
"620 1116 OFFCURVE",
"620 1166 CURVE SMOOTH",
"620 1199 OFFCURVE",
"618 1247 OFFCURVE",
"614 1308 CURVE SMOOTH",
"609 1369 OFFCURVE",
"607 1413 OFFCURVE",
"606 1440 CURVE",
"667 1447 OFFCURVE",
"731 1450 OFFCURVE",
"800 1450 CURVE",
"821 1492 LINE",
"821 1498 LINE SMOOTH",
"821 1535 OFFCURVE",
"792 1554 OFFCURVE",
"734 1554 CURVE SMOOTH",
"717 1554 OFFCURVE",
"690 1552 OFFCURVE",
"655 1549 CURVE SMOOTH",
"620 1546 OFFCURVE",
"593 1544 OFFCURVE",
"576 1544 CURVE SMOOTH",
"555 1544 OFFCURVE",
"537 1539 OFFCURVE",
"522 1521 CURVE SMOOTH",
"515 1512 OFFCURVE",
"509 1504 OFFCURVE",
"504 1498 CURVE SMOOTH",
"499 1492 OFFCURVE",
"493 1482 OFFCURVE",
"488 1468 CURVE SMOOTH",
"483 1453 OFFCURVE",
"479 1444 OFFCURVE",
"477 1439 CURVE SMOOTH",
"473 1429 OFFCURVE",
"460 1381 OFFCURVE",
"460 1380 CURVE",
"455 1363 OFFCURVE",
"439 1315 OFFCURVE",
"414 1235 CURVE SMOOTH",
"363 1074 OFFCURVE",
"341 998 OFFCURVE",
"287 819 CURVE SMOOTH",
"233 639 OFFCURVE",
"200 519 OFFCURVE",
"164 372 CURVE SMOOTH",
"127 225 OFFCURVE",
"108 113 OFFCURVE",
"108 48 CURVE SMOOTH",
"108 25 OFFCURVE",
"127 1 OFFCURVE",
"148 1 CURVE SMOOTH",
"163 1 OFFCURVE",
"177 11 OFFCURVE",
"190 31 CURVE",
"214 71 OFFCURVE",
"221 112 OFFCURVE",
"233 172 CURVE SMOOTH",
"238 202 OFFCURVE",
"242 220 OFFCURVE",
"243 226 CURVE",
"344 611 LINE",
"357 616 OFFCURVE",
"372 619 OFFCURVE",
"389 622 CURVE SMOOTH",
"421 627 OFFCURVE",
"440 629 OFFCURVE",
"478 631 CURVE SMOOTH",
"497 632 OFFCURVE",
"511 632 OFFCURVE",
"521 633 CURVE",
"521 591 OFFCURVE",
"523 528 OFFCURVE",
"526 443 CURVE SMOOTH",
"529 358 OFFCURVE",
"531 295 OFFCURVE",
"531 253 CURVE SMOOTH",
"531 204 OFFCURVE",
"525 120 OFFCURVE",
"514 3 CURVE",
"512 2 LINE",
"557 -43 LINE"
);
},
{
closed = 1;
nodes = (
"395 833 OFFCURVE",
"448 1032 OFFCURVE",
"523 1283 CURVE",
"524 1254 OFFCURVE",
"525 1211 OFFCURVE",
"525 1153 CURVE SMOOTH",
"525 1096 OFFCURVE",
"524 1016 OFFCURVE",
"522 912 CURVE SMOOTH",
"519 808 OFFCURVE",
"518 739 OFFCURVE",
"517 706 CURVE",
"480 698 OFFCURVE",
"429 692 OFFCURVE",
"364 688 CURVE"
);
}
);
width = 1006;
}
);
note = AE;
unicode = 00C6;
},
{
glyphname = B;
layers = (
{
anchors = (
{
name = bottom;
position = "{330, 0}";
},
{
name = top;
position = "{260, 1544}";
}
);
layerId = "27A8C2A5-6B67-4598-967C-E5EC4FB8AE70";
paths = (
{
closed = 1;
nodes = (
"234 -12 LINE SMOOTH",
"244 -12 OFFCURVE",
"258 -9 OFFCURVE",
"275 -2 CURVE",
"292 4 OFFCURVE",
"306 7 OFFCURVE",
"315 8 CURVE",
"358 27 OFFCURVE",
"393 46 OFFCURVE",
"421 65 CURVE SMOOTH",
"477 103 OFFCURVE",
"512 143 OFFCURVE",
"531 205 CURVE SMOOTH",
"550 267 OFFCURVE",
"555 328 OFFCURVE",
"555 433 CURVE SMOOTH",
"555 617 OFFCURVE",
"503 730 OFFCURVE",
"358 874 CURVE",
"446 993 OFFCURVE",
"490 1106 OFFCURVE",
"490 1214 CURVE SMOOTH",
"490 1403 OFFCURVE",
"390 1536 OFFCURVE",
"203 1536 CURVE SMOOTH",
"168 1536 OFFCURVE",
"150 1487 OFFCURVE",
"150 1389 CURVE SMOOTH",
"150 1294 OFFCURVE",
"152 1151 OFFCURVE",
"157 962 CURVE SMOOTH",
"162 773 OFFCURVE",
"164 630 OFFCURVE",
"164 535 CURVE SMOOTH",
"164 478 OFFCURVE",
"162 391 OFFCURVE",
"159 276 CURVE SMOOTH",
"156 160 OFFCURVE",
"154 73 OFFCURVE",
"154 16 CURVE SMOOTH",
"154 -3 OFFCURVE",
"179 -12 OFFCURVE",
"230 -12 CURVE SMOOTH"
);
},
{
closed = 1;
nodes = (
"243 68 OFFCURVE",
"241 68 OFFCURVE",
"238 69 CURVE SMOOTH",
"235 70 OFFCURVE",
"232 70 OFFCURVE",
"231 70 CURVE",
"231 349 OFFCURVE",
"228 588 OFFCURVE",
"221 788 CURVE",
"230 789 OFFCURVE",
"245 793 OFFCURVE",
"268 800 CURVE SMOOTH",
"291 807 OFFCURVE",
"309 810 OFFCURVE",
"322 811 CURVE",
"439 762 OFFCURVE",
"498 616 OFFCURVE",
"498 371 CURVE SMOOTH",
"498 210 OFFCURVE",
"384 68 OFFCURVE",
"244 68 CURVE SMOOTH"
);
},
{
closed = 1;
nodes = (
"221 887 LINE",
"221 942 OFFCURVE",
"220 1024 OFFCURVE",
"217 1133 CURVE SMOOTH",
"214 1242 OFFCURVE",
"213 1323 OFFCURVE",
"213 1378 CURVE SMOOTH",
"213 1437 OFFCURVE",
"231 1466 OFFCURVE",
"266 1466 CURVE SMOOTH",
"357 1466 OFFCURVE",
"436 1361 OFFCURVE",
"436 1268 CURVE SMOOTH",
"436 1197 OFFCURVE",
"416 1106 OFFCURVE",
"381 1026 CURVE SMOOTH",
"346 946 OFFCURVE",
"288 885 OFFCURVE",
"227 885 CURVE"
);
}
);
width = 660;
},
{
anchors = (
{
name = bottom;
position = "{322, 0}";
},
{
name = top;
position = "{272, 1552}";
}
);
layerId = "156B637B-193E-48A3-AAC8-7B4A3960F885";
paths = (
{
closed = 1;
nodes = (
"228 -17 LINE SMOOTH",
"277 -17 OFFCURVE",
"321 -6 OFFCURVE",
"362 15 CURVE SMOOTH",
"443 58 OFFCURVE",
"489 122 OFFCURVE",
"525 197 CURVE SMOOTH",
"560 272 OFFCURVE",
"573 333 OFFCURVE",
"573 374 CURVE SMOOTH",
"573 563 OFFCURVE",
"508 747 OFFCURVE",
"341 859 CURVE",
"432 924 OFFCURVE",
"507 1077 OFFCURVE",
"507 1201 CURVE SMOOTH",
"507 1398 OFFCURVE",
"392 1537 OFFCURVE",
"197 1537 CURVE SMOOTH",
"162 1537 OFFCURVE",
"139 1516 OFFCURVE",
"131 1480 CURVE SMOOTH",
"122 1444 OFFCURVE",
"120 1421 OFFCURVE",
"120 1382 CURVE SMOOTH",
"120 1370 LINE SMOOTH",
"120 1278 OFFCURVE",
"122 1139 OFFCURVE",
"127 954 CURVE SMOOTH",
"132 769 OFFCURVE",
"134 630 OFFCURVE",
"134 538 CURVE SMOOTH",
"134 482 OFFCURVE",
"132 398 OFFCURVE",
"129 286 CURVE SMOOTH",
"126 174 OFFCURVE",
"124 90 OFFCURVE",
"124 34 CURVE SMOOTH",
"124 0 OFFCURVE",
"156 -17 OFFCURVE",
"220 -17 CURVE SMOOTH"
);
},
{
closed = 1;
nodes = (
"248 354 OFFCURVE",
"245 580 OFFCURVE",
"238 769 CURVE",
"311 769 LINE",
"327 762 LINE",
"348 751 OFFCURVE",
"381 714 OFFCURVE",
"412 661 CURVE SMOOTH",
"443 608 OFFCURVE",
"467 498 OFFCURVE",
"467 369 CURVE SMOOTH",
"467 226 OFFCURVE",
"385 111 OFFCURVE",
"248 90 CURVE"
);
},
{
closed = 1;
nodes = (
"239 935 OFFCURVE",
"238 1012 OFFCURVE",
"235 1117 CURVE SMOOTH",
"232 1222 OFFCURVE",
"231 1302 OFFCURVE",
"231 1357 CURVE SMOOTH",
"231 1400 OFFCURVE",
"241 1421 OFFCURVE",
"260 1421 CURVE SMOOTH",
"337 1421 OFFCURVE",
"407 1326 OFFCURVE",
"407 1246 CURVE SMOOTH",
"407 1173 LINE",
"403 1164 OFFCURVE",
"396 1145 OFFCURVE",
"387 1117 CURVE SMOOTH",
"368 1061 OFFCURVE",
"354 1025 OFFCURVE",
"330 977 CURVE SMOOTH",
"306 928 OFFCURVE",
"274 896 OFFCURVE",
"239 888 CURVE"
);
}
);
width = 643;
}
);
note = B;
unicode = 0042;
},
{
glyphname = C;
layers = (
{
anchors = (
{
name = bottom;
position = "{408, 0}";
},
{
name = top;
position = "{338, 1544}";
}
);
layerId = "27A8C2A5-6B67-4598-967C-E5EC4FB8AE70";
paths = (
{
closed = 1;
nodes = (
"459 -33 OFFCURVE",
"509 -24 OFFCURVE",
"558 -4 CURVE SMOOTH",
"606 15 OFFCURVE",
"641 53 OFFCURVE",
"641 102 CURVE SMOOTH",
"641 122 OFFCURVE",
"635 132 OFFCURVE",
"622 132 CURVE SMOOTH",
"608 132 OFFCURVE",
"595 123 OFFCURVE",
"584 106 CURVE",
"551 67 OFFCURVE",
"503 47 OFFCURVE",
"441 47 CURVE SMOOTH",
"372 47 OFFCURVE",
"302 74 OFFCURVE",
"267 127 CURVE SMOOTH",
"227 188 OFFCURVE",
"183 699 OFFCURVE",
"183 860 CURVE SMOOTH",
"183 881 OFFCURVE",
"182 917 OFFCURVE",
"181 967 CURVE SMOOTH",
"180 1016 OFFCURVE",
"179 1054 OFFCURVE",
"179 1081 CURVE SMOOTH",
"179 1128 OFFCURVE",
"181 1169 OFFCURVE",
"184 1205 CURVE SMOOTH",
"190 1276 OFFCURVE",
"210 1361 OFFCURVE",
"244 1410 CURVE SMOOTH",
"278 1459 OFFCURVE",
"339 1495 OFFCURVE",
"420 1495 CURVE SMOOTH",
"433 1495 OFFCURVE",
"452 1490 OFFCURVE",
"476 1481 CURVE",
"499 1471 OFFCURVE",
"515 1466 OFFCURVE",
"523 1466 CURVE SMOOTH",
"544 1466 OFFCURVE",
"555 1474 OFFCURVE",
"555 1489 CURVE SMOOTH",
"555 1532 OFFCURVE",
"484 1565 OFFCURVE",
"437 1565 CURVE SMOOTH",
"398 1565 OFFCURVE",
"362 1561 OFFCURVE",
"331 1552 CURVE SMOOTH",
"268 1535 OFFCURVE",
"227 1508 OFFCURVE",
"196 1461 CURVE SMOOTH",
"164 1414 OFFCURVE",
"148 1370 OFFCURVE",
"138 1300 CURVE SMOOTH",
"128 1230 OFFCURVE",
"125 1174 OFFCURVE",
"125 1090 CURVE SMOOTH",
"125 1068 OFFCURVE",
"125 1033 OFFCURVE",
"126 986 CURVE SMOOTH",
"127 938 OFFCURVE",
"127 902 OFFCURVE",
"127 877 CURVE SMOOTH",
"127 714 OFFCURVE",
"168 190 OFFCURVE",
"203 115 CURVE SMOOTH",
"238 40 OFFCURVE",
"335 -33 OFFCURVE",
"414 -33 CURVE SMOOTH"
);
}
);
width = 676;
},
{
anchors = (
{
name = bottom;
position = "{346, 0}";
},
{
name = top;
position = "{346, 1552}";
}
);
layerId = "156B637B-193E-48A3-AAC8-7B4A3960F885";
paths = (
{
closed = 1;
nodes = (
"428 -33 OFFCURVE",
"450 -31 OFFCURVE",
"472 -28 CURVE SMOOTH",
"516 -22 OFFCURVE",
"565 -5 OFFCURVE",
"599 19 CURVE SMOOTH",
"633 43 OFFCURVE",
"656 84 OFFCURVE",
"656 135 CURVE",
"635 156 OFFCURVE",
"615 166 OFFCURVE",
"596 166 CURVE SMOOTH",
"579 166 OFFCURVE",
"554 154 OFFCURVE",
"519 130 CURVE SMOOTH",
"484 105 OFFCURVE",
"455 93 OFFCURVE",
"432 93 CURVE SMOOTH",
"377 93 OFFCURVE",
"331 118 OFFCURVE",
"299 169 CURVE SMOOTH",
"267 220 OFFCURVE",
"244 273 OFFCURVE",
"229 354 CURVE SMOOTH",
"214 435 OFFCURVE",
"205 495 OFFCURVE",
"202 588 CURVE SMOOTH",
"198 680 OFFCURVE",
"197 726 OFFCURVE",
"197 807 CURVE SMOOTH",
"197 856 LINE SMOOTH",
"197 872 OFFCURVE",
"200 896 OFFCURVE",
"206 928 CURVE SMOOTH",
"212 959 OFFCURVE",
"215 983 OFFCURVE",
"215 999 CURVE SMOOTH",
"215 1014 OFFCURVE",
"214 1038 OFFCURVE",
"212 1069 CURVE SMOOTH",
"210 1100 OFFCURVE",
"209 1124 OFFCURVE",
"209 1140 CURVE SMOOTH",
"209 1167 OFFCURVE",
"209 1189 OFFCURVE",
"210 1206 CURVE SMOOTH",
"211 1239 OFFCURVE",
"217 1297 OFFCURVE",
"227 1327 CURVE SMOOTH",
"237 1357 OFFCURVE",
"257 1395 OFFCURVE",
"285 1415 CURVE SMOOTH",
"313 1434 OFFCURVE",
"356 1448 OFFCURVE",
"411 1448 CURVE",
"411 1443 LINE",
"439 1443 LINE",
"439 1444 LINE",
"448 1428 OFFCURVE",
"487 1419 OFFCURVE",
"512 1419 CURVE SMOOTH",
"543 1419 OFFCURVE",
"569 1436 OFFCURVE",
"569 1465 CURVE SMOOTH",
"569 1525 OFFCURVE",
"491 1565 OFFCURVE",
"426 1565 CURVE SMOOTH",
"242 1565 OFFCURVE",
"100 1458 OFFCURVE",
"100 1290 CURVE SMOOTH",
"100 1269 OFFCURVE",
"102 1248 OFFCURVE",
"106 1226 CURVE",
"97 1178 OFFCURVE",
"92 1115 OFFCURVE",
"92 1037 CURVE SMOOTH",
"92 1015 OFFCURVE",
"92 977 OFFCURVE",
"91 922 CURVE SMOOTH",
"90 867 OFFCURVE",
"90 823 OFFCURVE",
"90 792 CURVE SMOOTH",
"90 732 OFFCURVE",
"91 678 OFFCURVE",
"93 630 CURVE SMOOTH",
"96 533 OFFCURVE",
"106 403 OFFCURVE",
"124 313 CURVE SMOOTH",
"142 223 OFFCURVE",
"174 124 OFFCURVE",
"217 66 CURVE SMOOTH",
"260 8 OFFCURVE",
"325 -33 OFFCURVE",
"405 -33 CURVE SMOOTH"
);
}
);
width = 691;
}
);
leftMetricsKey = O;
note = C;
unicode = 0043;
},
{
glyphname = D;
layers = (
{
anchors = (
{
name = bottom;
position = "{390, 0}";
},
{
name = center;
position = "{390, 772}";
},
{
name = top;
position = "{260, 1544}";
}
);
layerId = "27A8C2A5-6B67-4598-967C-E5EC4FB8AE70";
paths = (
{
closed = 1;
nodes = (
"270 -4 OFFCURVE",
"434 107 OFFCURVE",
"517 284 CURVE SMOOTH",
"600 461 OFFCURVE",
"645 672 OFFCURVE",
"645 837 CURVE SMOOTH",
"645 860 OFFCURVE",
"645 881 OFFCURVE",
"645 902 CURVE SMOOTH",
"644 942 OFFCURVE",
"638 1027 OFFCURVE",
"630 1089 CURVE SMOOTH",
"622 1151 OFFCURVE",
"604 1237 OFFCURVE",
"581 1301 CURVE SMOOTH",
"558 1364 OFFCURVE",
"520 1433 OFFCURVE",
"476 1475 CURVE SMOOTH",
"431 1517 OFFCURVE",
"367 1546 OFFCURVE",
"294 1546 CURVE SMOOTH",
"284 1546 LINE SMOOTH",
"181 1546 OFFCURVE",
"130 1530 OFFCURVE",
"130 1497 CURVE SMOOTH",
"130 1484 OFFCURVE",
"135 1465 OFFCURVE",
"144 1441 CURVE SMOOTH",
"153 1417 OFFCURVE",
"158 1400 OFFCURVE",
"159 1391 CURVE",
"164 1358 OFFCURVE",
"168 1262 OFFCURVE",
"171 1105 CURVE SMOOTH",
"173 948 OFFCURVE",
"174 865 OFFCURVE",
"175 858 CURVE",
"189 299 LINE",
"195 119 LINE",
"196 109 OFFCURVE",
"191 95 OFFCURVE",
"180 78 CURVE SMOOTH",
"169 60 OFFCURVE",
"163 46 OFFCURVE",
"163 37 CURVE SMOOTH",
"163 12 OFFCURVE",
"206 -4 OFFCURVE",
"238 -4 CURVE SMOOTH"
);
},
{
closed = 1;
nodes = (
"259 330 LINE SMOOTH",
"259 416 OFFCURVE",
"254 546 OFFCURVE",
"244 719 CURVE SMOOTH",
"233 892 OFFCURVE",
"228 1022 OFFCURVE",
"228 1110 CURVE SMOOTH",
"228 1147 OFFCURVE",
"225 1204 OFFCURVE",
"219 1279 CURVE SMOOTH",
"213 1354 OFFCURVE",
"210 1411 OFFCURVE",
"210 1450 CURVE SMOOTH",
"210 1465 OFFCURVE",
"224 1473 OFFCURVE",
"253 1473 CURVE SMOOTH",
"473 1473 OFFCURVE",
"583 1273 OFFCURVE",
"583 874 CURVE SMOOTH",
"583 829 OFFCURVE",
"581 782 OFFCURVE",
"577 733 CURVE SMOOTH",
"568 635 OFFCURVE",
"540 489 OFFCURVE",
"497 378 CURVE SMOOTH",
"453 266 OFFCURVE",
"372 155 OFFCURVE",
"269 100 CURVE",
"259 100 LINE"
);
}
);
width = 780;
},
{
anchors = (
{
name = bottom;
position = "{269, 0}";
},
{
name = center;
position = "{189, 776}";
},
{
name = top;
position = "{329, 1552}";
}
);
layerId = "156B637B-193E-48A3-AAC8-7B4A3960F885";
paths = (
{
closed = 1;
nodes = (
"275 -5 OFFCURVE",
"322 13 OFFCURVE",
"368 50 CURVE SMOOTH",
"459 122 OFFCURVE",
"523 238 OFFCURVE",
"575 369 CURVE SMOOTH",
"626 500 OFFCURVE",
"652 626 OFFCURVE",
"652 711 CURVE SMOOTH",
"652 716 OFFCURVE",
"651 722 OFFCURVE",
"650 731 CURVE",
"648 740 OFFCURVE",
"647 748 OFFCURVE",
"647 755 CURVE SMOOTH",
"647 762 OFFCURVE",
"649 768 OFFCURVE",
"652 773 CURVE",
"652 868 LINE SMOOTH",
"652 892 OFFCURVE",
"652 914 OFFCURVE",
"652 933 CURVE SMOOTH",
"651 972 OFFCURVE",
"646 1056 OFFCURVE",
"638 1115 CURVE SMOOTH",
"629 1174 OFFCURVE",
"610 1259 OFFCURVE",
"586 1319 CURVE SMOOTH",
"562 1378 OFFCURVE",
"523 1444 OFFCURVE",
"476 1484 CURVE SMOOTH",
"429 1524 OFFCURVE",
"362 1552 OFFCURVE",
"283 1552 CURVE SMOOTH",
"252 1552 LINE SMOOTH",
"147 1552 OFFCURVE",
"95 1528 OFFCURVE",
"95 1481 CURVE SMOOTH",
"95 1456 OFFCURVE",
"103 1413 OFFCURVE",
"118 1352 CURVE SMOOTH",
"133 1291 OFFCURVE",
"140 1242 OFFCURVE",
"140 1206 CURVE SMOOTH",
"140 1181 OFFCURVE",
"139 1143 OFFCURVE",
"137 1093 CURVE SMOOTH",
"135 1043 OFFCURVE",
"134 1006 OFFCURVE",
"134 982 CURVE SMOOTH",
"134 907 OFFCURVE",
"140 795 OFFCURVE",
"153 645 CURVE SMOOTH",
"166 495 OFFCURVE",
"172 382 OFFCURVE",
"172 306 CURVE SMOOTH",
"172 177 OFFCURVE",
"157 96 OFFCURVE",
"127 65 CURVE",
"127 18 OFFCURVE",
"176 -5 OFFCURVE",
"227 -5 CURVE SMOOTH"
);
},
{
closed = 1;
nodes = (
"270 310 LINE SMOOTH",
"270 435 OFFCURVE",
"262 622 OFFCURVE",
"246 870 CURVE SMOOTH",
"229 1118 OFFCURVE",
"221 1304 OFFCURVE",
"221 1427 CURVE SMOOTH",
"221 1429 LINE",
"312 1429 OFFCURVE",
"386 1390 OFFCURVE",
"431 1326 CURVE SMOOTH",
"476 1261 OFFCURVE",
"510 1186 OFFCURVE",
"526 1095 CURVE SMOOTH",
"541 1003 OFFCURVE",
"547 931 OFFCURVE",
"547 854 CURVE SMOOTH",
"547 723 OFFCURVE",
"530 590 OFFCURVE",
"491 449 CURVE SMOOTH",
"451 308 OFFCURVE",
"373 181 OFFCURVE",
"270 114 CURVE"
);
}
);
width = 777;
}
);
note = D;
unicode = 0044;
},
{
glyphname = Eth;
layers = (
{
layerId = "27A8C2A5-6B67-4598-967C-E5EC4FB8AE70";
paths = (
{
closed = 1;
nodes = (
"380 -53 OFFCURVE",
"452 8 OFFCURVE",
"517 93 CURVE SMOOTH",
"645 263 OFFCURVE",
"712 470 OFFCURVE",
"712 649 CURVE SMOOTH",
"712 860 OFFCURVE",
"680 1056 OFFCURVE",
"616 1237 CURVE",
"616 1241 LINE",
"573 1321 OFFCURVE",
"518 1399 OFFCURVE",
"445 1476 CURVE SMOOTH",
"372 1553 OFFCURVE",
"279 1606 OFFCURVE",
"194 1606 CURVE SMOOTH",
"183 1606 OFFCURVE",
"161 1574 OFFCURVE",
"161 1563 CURVE SMOOTH",
"161 1522 OFFCURVE",
"164 1461 OFFCURVE",
"170 1380 CURVE SMOOTH",
"175 1299 OFFCURVE",
"178 1237 OFFCURVE",
"178 1196 CURVE SMOOTH",
"178 1155 OFFCURVE",
"183 1093 OFFCURVE",
"192 1011 CURVE SMOOTH",
"201 929 OFFCURVE",
"206 868 OFFCURVE",
"206 827 CURVE SMOOTH",
"206 826 OFFCURVE",
"206 825 OFFCURVE",
"205 822 CURVE SMOOTH",
"204 819 OFFCURVE",
"204 818 OFFCURVE",
"204 817 CURVE",
"196 813 LINE",
"178 813 LINE SMOOTH",
"93 813 OFFCURVE",
"51 801 OFFCURVE",
"51 776 CURVE SMOOTH",
"51 752 OFFCURVE",
"56 741 OFFCURVE",
"79 741 CURVE SMOOTH",
"92 741 OFFCURVE",
"113 743 OFFCURVE",
"141 748 CURVE SMOOTH",
"168 752 OFFCURVE",
"189 754 OFFCURVE",
"204 754 CURVE",
"209 737 OFFCURVE",
"214 686 OFFCURVE",
"221 602 CURVE",
"233 349 OFFCURVE",
"239 132 OFFCURVE",
"239 -49 CURVE",
"241 -49 LINE",
"250 -69 OFFCURVE",
"258 -75 OFFCURVE",
"278 -80 CURVE",
"287 -83 OFFCURVE",
"295 -85 OFFCURVE",
"301 -88 CURVE"
);
},
{
closed = 1;
nodes = (
"309 55 OFFCURVE",
"306 129 OFFCURVE",
"299 228 CURVE SMOOTH",
"292 327 OFFCURVE",
"288 400 OFFCURVE",
"288 449 CURVE",
"290 451 LINE",
"286 467 OFFCURVE",
"276 713 OFFCURVE",
"276 756 CURVE",
"319 765 OFFCURVE",
"375 770 OFFCURVE",
"444 770 CURVE",
"464 795 LINE",
"461 818 OFFCURVE",
"444 844 OFFCURVE",
"421 844 CURVE SMOOTH",
"406 844 OFFCURVE",
"382 840 OFFCURVE",
"351 833 CURVE SMOOTH",
"320 825 OFFCURVE",
"296 821 OFFCURVE",
"280 821 CURVE",
"253 858 OFFCURVE",
"231 1362 OFFCURVE",
"231 1534 CURVE",
"235 1538 LINE",
"427 1481 OFFCURVE",
"551 1302 OFFCURVE",
"595 1087 CURVE",
"608 1037 OFFCURVE",
"618 983 OFFCURVE",
"625 925 CURVE SMOOTH",
"638 808 OFFCURVE",
"638 759 OFFCURVE",
"638 616 CURVE SMOOTH",
"638 437 OFFCURVE",
"519 194 OFFCURVE",
"382 59 CURVE SMOOTH",
"379 56 OFFCURVE",
"375 52 OFFCURVE",
"369 46 CURVE",
"357 33 OFFCURVE",
"354 29 OFFCURVE",
"343 21 CURVE SMOOTH",
"332 13 OFFCURVE",
"321 9 OFFCURVE",
"309 6 CURVE"
);
}
);
width = 880;
},
{
layerId = "156B637B-193E-48A3-AAC8-7B4A3960F885";
paths = (
{
closed = 1;
nodes = (
"312 -5 OFFCURVE",
"359 13 OFFCURVE",
"405 50 CURVE SMOOTH",
"496 122 OFFCURVE",
"560 238 OFFCURVE",
"612 369 CURVE SMOOTH",
"663 500 OFFCURVE",
"689 626 OFFCURVE",
"689 711 CURVE SMOOTH",
"689 716 OFFCURVE",
"688 722 OFFCURVE",
"687 731 CURVE",
"685 740 OFFCURVE",
"684 748 OFFCURVE",
"684 755 CURVE SMOOTH",
"684 762 OFFCURVE",
"686 768 OFFCURVE",
"689 773 CURVE",
"689 868 LINE SMOOTH",
"689 892 OFFCURVE",
"689 914 OFFCURVE",
"689 933 CURVE SMOOTH",
"688 972 OFFCURVE",
"683 1056 OFFCURVE",
"675 1115 CURVE SMOOTH",
"666 1174 OFFCURVE",
"647 1259 OFFCURVE",
"623 1319 CURVE SMOOTH",
"599 1378 OFFCURVE",
"560 1444 OFFCURVE",
"513 1484 CURVE SMOOTH",
"466 1524 OFFCURVE",
"399 1552 OFFCURVE",
"320 1552 CURVE SMOOTH",
"289 1552 LINE SMOOTH",
"184 1552 OFFCURVE",
"132 1528 OFFCURVE",
"132 1481 CURVE SMOOTH",
"132 1456 OFFCURVE",
"140 1413 OFFCURVE",
"155 1352 CURVE SMOOTH",
"170 1291 OFFCURVE",
"177 1242 OFFCURVE",
"177 1206 CURVE SMOOTH",
"177 1181 OFFCURVE",
"176 1143 OFFCURVE",
"174 1093 CURVE SMOOTH",
"172 1043 OFFCURVE",
"171 1006 OFFCURVE",
"171 982 CURVE SMOOTH",
"171 907 OFFCURVE",
"177 795 OFFCURVE",
"190 645 CURVE SMOOTH",
"203 495 OFFCURVE",
"209 382 OFFCURVE",
"209 306 CURVE SMOOTH",
"209 177 OFFCURVE",
"194 96 OFFCURVE",
"164 65 CURVE",
"164 18 OFFCURVE",
"213 -5 OFFCURVE",
"264 -5 CURVE SMOOTH"
);
},
{
closed = 1;
nodes = (
"93 738 OFFCURVE",
"121 739 OFFCURVE",
"155 741 CURVE SMOOTH",
"223 745 OFFCURVE",
"332 753 OFFCURVE",
"397 778 CURVE SMOOTH",
"429 790 OFFCURVE",
"445 804 OFFCURVE",
"445 821 CURVE SMOOTH",
"445 856 OFFCURVE",
"412 880 OFFCURVE",
"377 880 CURVE SMOOTH",
"355 880 OFFCURVE",
"327 879 OFFCURVE",
"293 877 CURVE SMOOTH",
"224 873 OFFCURVE",
"116 864 OFFCURVE",
"52 840 CURVE SMOOTH",
"19 828 OFFCURVE",
"3 814 OFFCURVE",
"3 797 CURVE SMOOTH",
"3 764 OFFCURVE",
"35 738 OFFCURVE",
"70 738 CURVE SMOOTH"
);
},
{
closed = 1;
nodes = (
"307 310 LINE SMOOTH",
"307 435 OFFCURVE",
"299 622 OFFCURVE",
"283 870 CURVE SMOOTH",
"266 1118 OFFCURVE",
"258 1304 OFFCURVE",
"258 1427 CURVE SMOOTH",
"258 1429 LINE",
"349 1429 OFFCURVE",
"423 1390 OFFCURVE",
"468 1326 CURVE SMOOTH",
"513 1261 OFFCURVE",
"547 1186 OFFCURVE",
"563 1095 CURVE SMOOTH",
"578 1003 OFFCURVE",
"584 931 OFFCURVE",
"584 854 CURVE SMOOTH",
"584 723 OFFCURVE",
"567 590 OFFCURVE",
"528 449 CURVE SMOOTH",
"488 308 OFFCURVE",
"410 181 OFFCURVE",
"307 114 CURVE"
);
}
);
width = 862;
}
);
note = Eth;
unicode = 00D0;
},
{
glyphname = E;
layers = (
{
anchors = (
{
name = bottom;
position = "{255, 0}";
},
{
name = ogonek;
position = "{418, 10}";
},
{
name = top;
position = "{255, 1544}";
},
{
name = topleft;
position = "{20, 1544}";
}
);
layerId = "27A8C2A5-6B67-4598-967C-E5EC4FB8AE70";
paths = (
{
closed = 1;
nodes = (
"320 -12 LINE SMOOTH",
"373 -12 OFFCURVE",
"407 -9 OFFCURVE",
"420 -4 CURVE SMOOTH",
"433 1 OFFCURVE",
"439 14 OFFCURVE",
"439 35 CURVE SMOOTH",
"439 53 OFFCURVE",
"426 62 OFFCURVE",
"401 62 CURVE SMOOTH",
"383 62 LINE SMOOTH",
"370 62 OFFCURVE",
"341 62 OFFCURVE",
"296 62 CURVE SMOOTH",
"251 61 OFFCURVE",
"222 61 OFFCURVE",
"209 61 CURVE",
"209 137 LINE SMOOTH",
"209 213 OFFCURVE",
"208 321 OFFCURVE",
"205 462 CURVE SMOOTH",
"202 602 OFFCURVE",
"201 703 OFFCURVE",
"201 766 CURVE SMOOTH",
"201 773 OFFCURVE",
"204 776 OFFCURVE",
"209 776 CURVE SMOOTH",
"326 776 LINE SMOOTH",
"349 776 OFFCURVE",
"357 785 OFFCURVE",
"357 810 CURVE SMOOTH",
"357 830 OFFCURVE",
"346 840 OFFCURVE",
"323 840 CURVE SMOOTH",
"301 840 OFFCURVE",
"264 839 OFFCURVE",
"212 836 CURVE",
"211 836 OFFCURVE",
"211 836 OFFCURVE",
"210 836 CURVE SMOOTH",
"209 836 OFFCURVE",
"209 836 OFFCURVE",
"208 836 CURVE SMOOTH",
"205 836 OFFCURVE",
"204 837 OFFCURVE",
"204 840 CURVE SMOOTH",
"204 1096 LINE SMOOTH",
"204 1135 OFFCURVE",
"204 1193 OFFCURVE",
"204 1270 CURVE SMOOTH",
"203 1347 OFFCURVE",
"203 1405 OFFCURVE",
"203 1444 CURVE SMOOTH",
"203 1465 OFFCURVE",
"208 1468 OFFCURVE",
"227 1468 CURVE SMOOTH",
"233 1468 OFFCURVE",
"244 1467 OFFCURVE",
"260 1466 CURVE SMOOTH",
"276 1465 OFFCURVE",
"287 1464 OFFCURVE",
"293 1464 CURVE SMOOTH",
"307 1464 OFFCURVE",
"318 1464 OFFCURVE",
"327 1465 CURVE",
"343 1466 OFFCURVE",
"367 1479 OFFCURVE",
"367 1503 CURVE SMOOTH",
"367 1522 OFFCURVE",
"361 1533 OFFCURVE",
"346 1538 CURVE",
"331 1542 OFFCURVE",
"324 1542 OFFCURVE",
"304 1542 CURVE SMOOTH",
"177 1542 LINE SMOOTH",
"153 1542 OFFCURVE",
"140 1517 OFFCURVE",
"140 1485 CURVE",
"143 1389 OFFCURVE",
"144 1313 OFFCURVE",
"144 1257 CURVE",
"146 412 LINE",
"144 113 LINE",
"144 109 LINE SMOOTH",
"144 100 OFFCURVE",
"144 88 OFFCURVE",
"145 71 CURVE",
"145 54 OFFCURVE",
"145 42 OFFCURVE",
"145 33 CURVE SMOOTH",
"145 -6 OFFCURVE",
"174 -12 OFFCURVE",
"233 -12 CURVE SMOOTH"
);
}
);
width = 509;
},
{
anchors = (
{
name = bottom;
position = "{285, 0}";
},
{
name = ogonek;
position = "{512, 10}";
},
{
name = top;
position = "{245, 1582}";
},
{
name = topleft;
position = "{20, 1552}";
}
);
layerId = "156B637B-193E-48A3-AAC8-7B4A3960F885";
paths = (
{
closed = 1;
nodes = (
"304 -12 LINE SMOOTH",
"331 -12 OFFCURVE",
"354 -11 OFFCURVE",
"371 -10 CURVE SMOOTH",
"406 -7 OFFCURVE",
"460 13 OFFCURVE",
"479 50 CURVE",
"479 57 LINE SMOOTH",
"479 93 OFFCURVE",
"440 111 OFFCURVE",
"362 111 CURVE SMOOTH",
"356 111 OFFCURVE",
"318 109 OFFCURVE",
"248 105 CURVE",
"248 737 LINE",
"256 747 OFFCURVE",
"270 752 OFFCURVE",
"290 752 CURVE SMOOTH",
"297 752 OFFCURVE",
"306 752 OFFCURVE",
"318 751 CURVE SMOOTH",
"329 750 OFFCURVE",
"337 750 OFFCURVE",
"341 750 CURVE SMOOTH",
"373 750 OFFCURVE",
"395 780 OFFCURVE",
"395 813 CURVE SMOOTH",
"395 844 OFFCURVE",
"366 870 OFFCURVE",
"335 870 CURVE SMOOTH",
"315 870 OFFCURVE",
"294 866 OFFCURVE",
"269 859 CURVE",
"256 856 OFFCURVE",
"246 853 OFFCURVE",
"239 852 CURVE",
"239 876 OFFCURVE",
"241 914 OFFCURVE",
"244 967 CURVE SMOOTH",
"247 1019 OFFCURVE",
"249 1059 OFFCURVE",
"249 1086 CURVE SMOOTH",
"249 1123 OFFCURVE",
"246 1180 OFFCURVE",
"241 1255 CURVE SMOOTH",
"236 1330 OFFCURVE",
"233 1387 OFFCURVE",
"233 1424 CURVE",
"238 1425 OFFCURVE",
"245 1425 OFFCURVE",
"255 1425 CURVE SMOOTH",
"262 1425 OFFCURVE",
"272 1425 OFFCURVE",
"285 1424 CURVE SMOOTH",
"298 1423 OFFCURVE",
"307 1423 OFFCURVE",
"314 1423 CURVE SMOOTH",
"376 1423 OFFCURVE",
"407 1443 OFFCURVE",
"407 1484 CURVE SMOOTH",
"407 1524 OFFCURVE",
"354 1551 OFFCURVE",
"313 1551 CURVE SMOOTH",
"296 1551 OFFCURVE",
"271 1548 OFFCURVE",
"237 1542 CURVE SMOOTH",
"203 1536 OFFCURVE",
"178 1533 OFFCURVE",
"161 1533 CURVE",
"150 1522 OFFCURVE",
"133 1498 OFFCURVE",
"110 1461 CURVE",
"110 1454 LINE SMOOTH",
"110 1430 OFFCURVE",
"115 1395 OFFCURVE",
"124 1349 CURVE SMOOTH",
"133 1303 OFFCURVE",
"138 1268 OFFCURVE",
"138 1245 CURVE SMOOTH",
"138 55 LINE SMOOTH",
"138 24 OFFCURVE",
"149 5 OFFCURVE",
"172 -3 CURVE SMOOTH",
"195 -11 OFFCURVE",
"209 -12 OFFCURVE",
"240 -12 CURVE SMOOTH"
);
}
);
width = 569;
}
);
note = E;
unicode = 0045;
},
{
glyphname = F;
layers = (
{
anchors = (
{
name = bottom;
position = "{262, 0}";
},
{
name = top;
position = "{262, 1544}";
}
);
layerId = "27A8C2A5-6B67-4598-967C-E5EC4FB8AE70";
paths = (
{
closed = 1;
nodes = (
"258 -4 OFFCURVE",
"273 9 OFFCURVE",
"273 34 CURVE SMOOTH",
"273 42 OFFCURVE",
"271 51 OFFCURVE",
"267 61 CURVE",
"273 72 LINE",
"273 149 OFFCURVE",
"267 264 OFFCURVE",
"254 417 CURVE SMOOTH",
"241 570 OFFCURVE",
"234 685 OFFCURVE",
"234 762 CURVE SMOOTH",
"234 775 OFFCURVE",
"248 783 OFFCURVE",
"277 786 CURVE SMOOTH",
"333 791 OFFCURVE",
"404 794 OFFCURVE",
"404 827 CURVE SMOOTH",
"404 844 OFFCURVE",
"389 868 OFFCURVE",
"372 868 CURVE SMOOTH",
"357 868 OFFCURVE",
"334 864 OFFCURVE",
"303 856 CURVE SMOOTH",
"272 848 OFFCURVE",
"249 844 OFFCURVE",
"234 844 CURVE",
"234 860 OFFCURVE",
"229 960 OFFCURVE",
"219 1145 CURVE SMOOTH",
"209 1329 OFFCURVE",
"204 1428 OFFCURVE",
"204 1443 CURVE SMOOTH",
"204 1480 OFFCURVE",
"208 1483 OFFCURVE",
"229 1483 CURVE SMOOTH",
"236 1483 OFFCURVE",
"253 1483 OFFCURVE",
"282 1482 CURVE SMOOTH",
"310 1481 OFFCURVE",
"326 1481 OFFCURVE",
"329 1481 CURVE SMOOTH",
"354 1481 OFFCURVE",
"367 1488 OFFCURVE",
"367 1501 CURVE SMOOTH",
"367 1525 OFFCURVE",
"356 1548 OFFCURVE",
"333 1548 CURVE SMOOTH",
"318 1548 OFFCURVE",
"300 1548 OFFCURVE",
"277 1549 CURVE",
"254 1549 OFFCURVE",
"239 1549 OFFCURVE",
"231 1549 CURVE SMOOTH",
"196 1549 OFFCURVE",
"173 1548 OFFCURVE",
"160 1545 CURVE SMOOTH",
"147 1542 OFFCURVE",
"140 1535 OFFCURVE",
"140 1525 CURVE SMOOTH",
"140 1512 LINE SMOOTH",
"140 1509 OFFCURVE",
"143 1457 OFFCURVE",
"148 1355 CURVE SMOOTH",
"158 1150 OFFCURVE",
"169 875 OFFCURVE",
"169 819 CURVE SMOOTH",
"169 698 OFFCURVE",
"180 476 OFFCURVE",
"189 326 CURVE SMOOTH",
"193 251 OFFCURVE",
"195 209 OFFCURVE",
"195 201 CURVE SMOOTH",
"195 49 LINE SMOOTH",
"195 14 OFFCURVE",
"206 -4 OFFCURVE",
"228 -4 CURVE SMOOTH"
);
}
);
width = 524;
},
{
anchors = (
{
name = bottom;
position = "{271, 0}";
},
{
name = top;
position = "{271, 1552}";
}
);
layerId = "156B637B-193E-48A3-AAC8-7B4A3960F885";
paths = (
{
closed = 1;
nodes = (
"272 -2 OFFCURVE",
"300 21 OFFCURVE",
"300 56 CURVE SMOOTH",
"300 65 OFFCURVE",
"299 73 OFFCURVE",
"296 81 CURVE",
"296 82 OFFCURVE",
"297 84 OFFCURVE",
"299 87 CURVE",
"300 90 OFFCURVE",
"301 93 OFFCURVE",
"301 94 CURVE SMOOTH",
"301 169 OFFCURVE",
"295 280 OFFCURVE",
"282 428 CURVE SMOOTH",
"269 576 OFFCURVE",
"262 687 OFFCURVE",
"262 761 CURVE",
"264 761 OFFCURVE",
"272 761 OFFCURVE",
"285 762 CURVE",
"312 763 OFFCURVE",
"320 764 OFFCURVE",
"347 768 CURVE",
"374 771 OFFCURVE",
"388 778 OFFCURVE",
"406 787 CURVE",
"424 795 OFFCURVE",
"432 809 OFFCURVE",
"432 828 CURVE SMOOTH",
"432 860 OFFCURVE",
"407 891 OFFCURVE",
"376 891 CURVE SMOOTH",
"345 891 OFFCURVE",
"267 870 OFFCURVE",
"262 869 CURVE",
"261 928 OFFCURVE",
"256 1018 OFFCURVE",
"246 1141 CURVE SMOOTH",
"236 1263 OFFCURVE",
"231 1356 OFFCURVE",
"231 1419 CURVE SMOOTH",
"231 1434 OFFCURVE",
"250 1442 OFFCURVE",
"288 1442 CURVE SMOOTH",
"296 1442 OFFCURVE",
"306 1442 OFFCURVE",
"318 1441 CURVE SMOOTH",
"329 1440 OFFCURVE",
"336 1440 OFFCURVE",
"338 1440 CURVE SMOOTH",
"369 1440 OFFCURVE",
"395 1455 OFFCURVE",
"395 1484 CURVE SMOOTH",
"395 1540 OFFCURVE",
"367 1554 OFFCURVE",
"308 1554 CURVE SMOOTH",
"287 1554 OFFCURVE",
"269 1554 OFFCURVE",
"255 1553 CURVE",
"226 1552 OFFCURVE",
"179 1543 OFFCURVE",
"155 1528 CURVE SMOOTH",
"131 1512 OFFCURVE",
"110 1483 OFFCURVE",
"110 1440 CURVE",
"138 1397 OFFCURVE",
"172 389 OFFCURVE",
"172 129 CURVE SMOOTH",
"172 42 OFFCURVE",
"192 -2 OFFCURVE",
"231 -2 CURVE SMOOTH"
);
}
);
width = 542;
}
);
note = F;
unicode = 0046;
},
{
glyphname = G;
layers = (
{
anchors = (
{
name = bottom;
position = "{444, -20}";
},
{
name = top;
position = "{424, 1564}";
}
);
layerId = "27A8C2A5-6B67-4598-967C-E5EC4FB8AE70";
paths = (
{
closed = 1;
nodes = (
"486 -33 OFFCURVE",
"554 -10 OFFCURVE",
"633 35 CURVE",
"633 34 OFFCURVE",
"633 33 OFFCURVE",
"632 30 CURVE SMOOTH",
"631 27 OFFCURVE",
"631 26 OFFCURVE",
"631 25 CURVE SMOOTH",
"631 -5 OFFCURVE",
"647 -20 OFFCURVE",
"680 -20 CURVE SMOOTH",
"698 -20 OFFCURVE",
"707 -9 OFFCURVE",
"707 12 CURVE SMOOTH",
"707 53 OFFCURVE",
"700 114 OFFCURVE",
"687 195 CURVE SMOOTH",
"673 276 OFFCURVE",
"666 336 OFFCURVE",
"666 377 CURVE SMOOTH",
"666 425 OFFCURVE",
"647 463 OFFCURVE",
"602 463 CURVE SMOOTH",
"559 463 OFFCURVE",
"449 443 OFFCURVE",
"449 418 CURVE SMOOTH",
"449 395 OFFCURVE",
"465 383 OFFCURVE",
"496 383 CURVE SMOOTH",
"506 383 OFFCURVE",
"520 384 OFFCURVE",
"538 387 CURVE SMOOTH",
"556 390 OFFCURVE",
"569 391 OFFCURVE",
"578 391 CURVE SMOOTH",
"589 391 OFFCURVE",
"598 380 OFFCURVE",
"606 357 CURVE",
"613 334 OFFCURVE",
"619 305 OFFCURVE",
"622 272 CURVE SMOOTH",
"629 205 OFFCURVE",
"631 158 OFFCURVE",
"631 127 CURVE",
"587 59 OFFCURVE",
"529 25 OFFCURVE",
"457 25 CURVE SMOOTH",
"415 25 OFFCURVE",
"378 40 OFFCURVE",
"346 71 CURVE SMOOTH",
"281 132 OFFCURVE",
"247 224 OFFCURVE",
"224 353 CURVE SMOOTH",
"200 481 OFFCURVE",
"194 591 OFFCURVE",
"194 715 CURVE SMOOTH",
"194 768 OFFCURVE",
"194 805 OFFCURVE",
"195 827 CURVE",
"195 844 OFFCURVE",
"196 919 OFFCURVE",
"197 962 CURVE SMOOTH",
"198 1005 OFFCURVE",
"202 1089 OFFCURVE",
"208 1143 CURVE SMOOTH",
"214 1197 OFFCURVE",
"225 1274 OFFCURVE",
"240 1325 CURVE SMOOTH",
"255 1376 OFFCURVE",
"279 1433 OFFCURVE",
"308 1466 CURVE SMOOTH",
"336 1499 OFFCURVE",
"377 1522 OFFCURVE",
"424 1522 CURVE SMOOTH",
"431 1522 OFFCURVE",
"440 1520 OFFCURVE",
"453 1517 CURVE",
"466 1513 OFFCURVE",
"475 1511 OFFCURVE",
"482 1511 CURVE SMOOTH",
"502 1511 OFFCURVE",
"512 1519 OFFCURVE",
"512 1536 CURVE SMOOTH",
"512 1559 OFFCURVE",
"492 1571 OFFCURVE",
"451 1571 CURVE SMOOTH",
"417 1571 OFFCURVE",
"386 1565 OFFCURVE",
"357 1554 CURVE SMOOTH",
"299 1531 OFFCURVE",
"259 1497 OFFCURVE",
"226 1440 CURVE SMOOTH",
"193 1383 OFFCURVE",
"172 1333 OFFCURVE",
"157 1258 CURVE SMOOTH",
"141 1182 OFFCURVE",
"134 1131 OFFCURVE",
"130 1054 CURVE SMOOTH",
"125 977 OFFCURVE",
"125 940 OFFCURVE",
"125 877 CURVE SMOOTH",
"125 565 OFFCURVE",
"149 335 OFFCURVE",
"198 188 CURVE SMOOTH",
"247 41 OFFCURVE",
"323 -33 OFFCURVE",
"427 -33 CURVE SMOOTH"
);
}
);
width = 787;
},
{
anchors = (
{
name = bottom;
position = "{380, 0}";
},
{
name = top;
position = "{330, 1572}";
}
);
layerId = "156B637B-193E-48A3-AAC8-7B4A3960F885";
paths = (
{
closed = 1;
nodes = (
"483 -54 OFFCURVE",
"512 -43 OFFCURVE",
"556 -19 CURVE SMOOTH",
"578 -7 OFFCURVE",
"593 1 OFFCURVE",
"601 4 CURVE",
"601 2 LINE",
"612 -27 OFFCURVE",
"635 -41 OFFCURVE",
"669 -41 CURVE SMOOTH",
"698 -41 OFFCURVE",
"719 -16 OFFCURVE",
"719 15 CURVE SMOOTH",
"719 56 OFFCURVE",
"712 116 OFFCURVE",
"699 197 CURVE SMOOTH",
"685 278 OFFCURVE",
"678 339 OFFCURVE",
"678 380 CURVE SMOOTH",
"678 440 OFFCURVE",
"648 489 OFFCURVE",
"591 489 CURVE SMOOTH",
"566 489 OFFCURVE",
"531 485 OFFCURVE",
"489 476 CURVE SMOOTH",
"447 467 OFFCURVE",
"414 448 OFFCURVE",
"414 421 CURVE SMOOTH",
"414 382 OFFCURVE",
"437 363 OFFCURVE",
"484 363 CURVE SMOOTH",
"495 363 OFFCURVE",
"511 364 OFFCURVE",
"532 367 CURVE SMOOTH",
"552 370 OFFCURVE",
"563 371 OFFCURVE",
"564 371 CURVE",
"585 334 OFFCURVE",
"596 217 OFFCURVE",
"597 137 CURVE",
"557 80 OFFCURVE",
"507 51 OFFCURVE",
"446 51 CURVE SMOOTH",
"415 51 OFFCURVE",
"386 58 OFFCURVE",
"361 72 CURVE SMOOTH",
"309 99 OFFCURVE",
"277 141 OFFCURVE",
"253 206 CURVE SMOOTH",
"228 271 OFFCURVE",
"216 330 OFFCURVE",
"208 411 CURVE SMOOTH",
"200 491 OFFCURVE",
"199 544 OFFCURVE",
"199 617 CURVE SMOOTH",
"199 636 OFFCURVE",
"199 660 OFFCURVE",
"200 688 CURVE",
"200 715 OFFCURVE",
"200 734 OFFCURVE",
"200 744 CURVE SMOOTH",
"200 807 OFFCURVE",
"200 845 OFFCURVE",
"204 938 CURVE SMOOTH",
"207 1030 OFFCURVE",
"216 1096 OFFCURVE",
"229 1187 CURVE SMOOTH",
"241 1278 OFFCURVE",
"264 1343 OFFCURVE",
"292 1403 CURVE SMOOTH",
"320 1462 OFFCURVE",
"362 1495 OFFCURVE",
"413 1495 CURVE SMOOTH",
"420 1495 OFFCURVE",
"430 1493 OFFCURVE",
"443 1490 CURVE SMOOTH",
"456 1487 OFFCURVE",
"465 1485 OFFCURVE",
"472 1485 CURVE SMOOTH",
"501 1485 OFFCURVE",
"526 1504 OFFCURVE",
"526 1533 CURVE SMOOTH",
"526 1572 OFFCURVE",
"498 1591 OFFCURVE",
"441 1591 CURVE SMOOTH",
"406 1591 OFFCURVE",
"373 1586 OFFCURVE",
"344 1576 CURVE SMOOTH",
"284 1555 OFFCURVE",
"241 1520 OFFCURVE",
"206 1467 CURVE SMOOTH",
"170 1414 OFFCURVE",
"148 1360 OFFCURVE",
"130 1287 CURVE SMOOTH",
"112 1214 OFFCURVE",
"102 1153 OFFCURVE",
"97 1073 CURVE SMOOTH",
"92 992 OFFCURVE",
"90 937 OFFCURVE",
"90 862 CURVE SMOOTH",
"90 842 OFFCURVE",
"90 815 OFFCURVE",
"91 781 CURVE",
"91 747 OFFCURVE",
"91 724 OFFCURVE",
"91 711 CURVE SMOOTH",
"91 676 OFFCURVE",
"91 645 OFFCURVE",
"92 619 CURVE",
"92 567 OFFCURVE",
"98 467 OFFCURVE",
"107 402 CURVE SMOOTH",
"115 337 OFFCURVE",
"132 244 OFFCURVE",
"156 183 CURVE SMOOTH",
"180 122 OFFCURVE",
"218 53 OFFCURVE",
"264 14 CURVE SMOOTH",
"310 -26 OFFCURVE",
"374 -54 OFFCURVE",
"450 -54 CURVE SMOOTH"
);
}
);
width = 759;
}
);
note = G;
unicode = 0047;
},
{
glyphname = H;
layers = (
{
anchors = (
{
name = bottom;
position = "{335, 0}";
},
{
name = center;
position = "{335, 772}";
},
{
name = top;
position = "{335, 1544}";
},
{
name = topleft;
position = "{20, 1544}";
}
);
layerId = "27A8C2A5-6B67-4598-967C-E5EC4FB8AE70";
paths = (
{
closed = 1;
nodes = (
"510 -20 OFFCURVE",
"519 1 OFFCURVE",
"519 20 CURVE SMOOTH",
"519 49 LINE SMOOTH",
"519 98 OFFCURVE",
"514 294 OFFCURVE",
"504 638 CURVE SMOOTH",
"494 981 OFFCURVE",
"489 1275 OFFCURVE",
"489 1518 CURVE SMOOTH",
"489 1534 OFFCURVE",
"473 1545 OFFCURVE",
"454 1545 CURVE SMOOTH",
"436 1545 OFFCURVE",
"427 1537 OFFCURVE",
"427 1520 CURVE SMOOTH",
"427 1443 OFFCURVE",
"430 1327 OFFCURVE",
"437 1172 CURVE SMOOTH",
"443 1017 OFFCURVE",
"446 902 OFFCURVE",
"446 825 CURVE",
"444 821 LINE",
"417 821 OFFCURVE",
"378 818 OFFCURVE",
"327 813 CURVE SMOOTH",
"275 808 OFFCURVE",
"236 805 OFFCURVE",
"209 805 CURVE SMOOTH",
"202 805 OFFCURVE",
"198 823 OFFCURVE",
"198 858 CURVE SMOOTH",
"198 958 LINE SMOOTH",
"198 1005 OFFCURVE",
"195 1074 OFFCURVE",
"190 1166 CURVE SMOOTH",
"184 1258 OFFCURVE",
"181 1327 OFFCURVE",
"181 1374 CURVE SMOOTH",
"181 1526 LINE",
"182 1543 OFFCURVE",
"171 1553 OFFCURVE",
"156 1553 CURVE SMOOTH",
"139 1553 OFFCURVE",
"130 1546 OFFCURVE",
"130 1532 CURVE SMOOTH",
"130 1243 OFFCURVE",
"142 931 OFFCURVE",
"167 598 CURVE SMOOTH",
"174 503 OFFCURVE",
"190 76 OFFCURVE",
"190 20 CURVE SMOOTH",
"190 1 OFFCURVE",
"201 -8 OFFCURVE",
"222 -8 CURVE SMOOTH",
"236 -8 OFFCURVE",
"243 2 OFFCURVE",
"243 23 CURVE SMOOTH",
"243 102 OFFCURVE",
"237 226 OFFCURVE",
"226 393 CURVE SMOOTH",
"214 560 OFFCURVE",
"208 684 OFFCURVE",
"208 763 CURVE",
"227 768 OFFCURVE",
"276 770 OFFCURVE",
"353 770 CURVE SMOOTH",
"361 770 OFFCURVE",
"374 770 OFFCURVE",
"392 771 CURVE",
"410 771 OFFCURVE",
"423 771 OFFCURVE",
"431 771 CURVE SMOOTH",
"444 771 LINE",
"457 512 OFFCURVE",
"464 275 OFFCURVE",
"464 59 CURVE SMOOTH",
"464 54 OFFCURVE",
"464 46 OFFCURVE",
"463 36 CURVE SMOOTH",
"462 25 OFFCURVE",
"462 17 OFFCURVE",
"462 12 CURVE SMOOTH",
"462 -9 OFFCURVE",
"467 -20 OFFCURVE",
"491 -20 CURVE SMOOTH"
);
}
);
width = 669;
},
{
anchors = (
{
name = bottom;
position = "{338, 0}";
},
{
name = center;
position = "{278, 1152}";
},
{
name = top;
position = "{298, 1552}";
},
{
name = topleft;
position = "{20, 1552}";
}
);
layerId = "156B637B-193E-48A3-AAC8-7B4A3960F885";
paths = (
{
closed = 1;
nodes = (
"516 -31 OFFCURVE",
"541 7 OFFCURVE",
"541 43 CURVE SMOOTH",
"541 192 OFFCURVE",
"535 417 OFFCURVE",
"522 718 CURVE SMOOTH",
"509 1018 OFFCURVE",
"502 1243 OFFCURVE",
"502 1393 CURVE SMOOTH",
"502 1412 OFFCURVE",
"502 1428 OFFCURVE",
"501 1439 CURVE",
"500 1462 OFFCURVE",
"493 1500 OFFCURVE",
"480 1517 CURVE SMOOTH",
"467 1534 OFFCURVE",
"439 1550 OFFCURVE",
"402 1550 CURVE",
"402 1496 LINE SMOOTH",
"402 1417 OFFCURVE",
"403 1302 OFFCURVE",
"406 1152 CURVE SMOOTH",
"409 1001 OFFCURVE",
"410 892 OFFCURVE",
"410 824 CURVE",
"387 823 OFFCURVE",
"354 821 OFFCURVE",
"310 817 CURVE SMOOTH",
"266 812 OFFCURVE",
"233 810 OFFCURVE",
"211 809 CURVE",
"208 825 OFFCURVE",
"207 843 OFFCURVE",
"207 862 CURVE SMOOTH",
"207 871 OFFCURVE",
"207 884 OFFCURVE",
"208 901 CURVE SMOOTH",
"209 918 OFFCURVE",
"209 931 OFFCURVE",
"209 939 CURVE SMOOTH",
"209 986 OFFCURVE",
"207 1056 OFFCURVE",
"202 1150 CURVE SMOOTH",
"197 1243 OFFCURVE",
"195 1313 OFFCURVE",
"195 1360 CURVE SMOOTH",
"195 1414 OFFCURVE",
"197 1465 OFFCURVE",
"202 1514 CURVE",
"190 1530 OFFCURVE",
"155 1547 OFFCURVE",
"130 1547 CURVE SMOOTH",
"107 1547 OFFCURVE",
"95 1535 OFFCURVE",
"95 1510 CURVE SMOOTH",
"95 1452 OFFCURVE",
"95 1392 OFFCURVE",
"96 1329 CURVE SMOOTH",
"97 1203 OFFCURVE",
"101 898 OFFCURVE",
"111 682 CURVE SMOOTH",
"121 466 OFFCURVE",
"135 224 OFFCURVE",
"164 99 CURVE SMOOTH",
"178 36 OFFCURVE",
"194 5 OFFCURVE",
"212 5 CURVE SMOOTH",
"239 5 OFFCURVE",
"256 32 OFFCURVE",
"256 59 CURVE SMOOTH",
"256 138 OFFCURVE",
"250 254 OFFCURVE",
"239 408 CURVE SMOOTH",
"228 562 OFFCURVE",
"222 677 OFFCURVE",
"222 753 CURVE",
"247 764 OFFCURVE",
"288 769 OFFCURVE",
"343 769 CURVE SMOOTH",
"352 769 OFFCURVE",
"374 766 OFFCURVE",
"411 759 CURVE",
"423 538 OFFCURVE",
"429 297 OFFCURVE",
"429 37 CURVE SMOOTH",
"429 0 OFFCURVE",
"445 -31 OFFCURVE",
"481 -31 CURVE SMOOTH"
);
}
);
width = 676;
}
);
note = H;
unicode = 0048;
},
{
glyphname = Hbar;
layers = (
{
layerId = "27A8C2A5-6B67-4598-967C-E5EC4FB8AE70";
paths = (
{
closed = 1;
nodes = (
"552 -33 OFFCURVE",
"570 1 OFFCURVE",
"570 20 CURVE SMOOTH",
"570 27 OFFCURVE",
"567 37 OFFCURVE",
"561 49 CURVE",
"561 108 OFFCURVE",
"557 267 OFFCURVE",
"548 524 CURVE SMOOTH",
"539 781 OFFCURVE",
"534 1010 OFFCURVE",
"532 1212 CURVE",
"559 1212 LINE",
"559 1232 OFFCURVE",
"544 1248 OFFCURVE",
"531 1251 CURVE",
"531 1382 LINE SMOOTH",
"531 1430 OFFCURVE",
"529 1459 OFFCURVE",
"522 1495 CURVE SMOOTH",
"515 1530 OFFCURVE",
"498 1548 OFFCURVE",
"473 1548 CURVE",
"470 1535 OFFCURVE",
"469 1525 OFFCURVE",
"469 1520 CURVE SMOOTH",
"469 1461 OFFCURVE",
"471 1371 OFFCURVE",
"475 1251 CURVE",
"336 1249 OFFCURVE",
"254 1248 OFFCURVE",
"227 1247 CURVE",
"224 1303 OFFCURVE",
"223 1345 OFFCURVE",
"223 1374 CURVE SMOOTH",
"223 1425 OFFCURVE",
"226 1475 OFFCURVE",
"232 1526 CURVE",
"205 1548 LINE",
"172 1532 LINE",
"172 1426 OFFCURVE",
"173 1330 OFFCURVE",
"176 1245 CURVE",
"146 1244 OFFCURVE",
"131 1242 OFFCURVE",
"131 1241 CURVE SMOOTH",
"131 1220 OFFCURVE",
"154 1206 OFFCURVE",
"174 1206 CURVE SMOOTH",
"177 1206 LINE",
"183 1010 OFFCURVE",
"194 807 OFFCURVE",
"209 598 CURVE SMOOTH",
"211 573 OFFCURVE",
"213 515 OFFCURVE",
"214 424 CURVE SMOOTH",
"215 333 OFFCURVE",
"216 249 OFFCURVE",
"219 171 CURVE SMOOTH",
"222 92 OFFCURVE",
"226 44 OFFCURVE",
"232 27 CURVE",
"237 10 OFFCURVE",
"245 6 OFFCURVE",
"264 6 CURVE SMOOTH",
"278 6 OFFCURVE",
"285 16 OFFCURVE",
"285 37 CURVE SMOOTH",
"285 116 OFFCURVE",
"279 234 OFFCURVE",
"268 391 CURVE SMOOTH",
"256 548 OFFCURVE",
"250 666 OFFCURVE",
"250 745 CURVE",
"279 762 OFFCURVE",
"327 770 OFFCURVE",
"395 770 CURVE SMOOTH",
"404 770 OFFCURVE",
"417 768 OFFCURVE",
"434 765 CURVE SMOOTH",
"451 762 OFFCURVE",
"464 760 OFFCURVE",
"473 760 CURVE SMOOTH",
"474 760 OFFCURVE",
"477 760 OFFCURVE",
"480 761 CURVE SMOOTH",
"483 762 OFFCURVE",
"485 762 OFFCURVE",
"486 762 CURVE",
"499 503 OFFCURVE",
"506 269 OFFCURVE",
"506 59 CURVE SMOOTH",
"506 54 OFFCURVE",
"506 46 OFFCURVE",
"505 36 CURVE SMOOTH",
"504 25 OFFCURVE",
"504 17 OFFCURVE",
"504 12 CURVE SMOOTH",
"504 -18 OFFCURVE",
"514 -33 OFFCURVE",
"533 -33 CURVE SMOOTH"
);
},
{
closed = 1;
nodes = (
"241 826 OFFCURVE",
"238 850 OFFCURVE",
"238 877 CURVE SMOOTH",
"238 886 OFFCURVE",
"238 899 OFFCURVE",
"239 917 CURVE SMOOTH",
"240 935 OFFCURVE",
"240 949 OFFCURVE",
"240 958 CURVE SMOOTH",
"240 1002 OFFCURVE",
"236 1085 OFFCURVE",
"229 1207 CURVE",
"280 1208 OFFCURVE",
"430 1212 OFFCURVE",
"477 1212 CURVE",
"484 1023 OFFCURVE",
"488 894 OFFCURVE",
"488 825 CURVE",
"486 821 LINE",
"459 821 OFFCURVE",
"419 818 OFFCURVE",
"366 813 CURVE SMOOTH",
"313 808 OFFCURVE",
"273 805 OFFCURVE",
"246 805 CURVE"
);
}
);
width = 760;
},
{
layerId = "156B637B-193E-48A3-AAC8-7B4A3960F885";
paths = (
{
closed = 1;
nodes = (
"548 -48 OFFCURVE",
"575 -11 OFFCURVE",
"575 20 CURVE SMOOTH",
"575 29 OFFCURVE",
"572 40 OFFCURVE",
"566 52 CURVE",
"566 114 OFFCURVE",
"562 272 OFFCURVE",
"553 525 CURVE SMOOTH",
"544 775 OFFCURVE",
"539 999 OFFCURVE",
"537 1197 CURVE",
"592 1197 LINE",
"600 1221 OFFCURVE",
"586 1249 OFFCURVE",
"536 1261 CURVE",
"536 1382 LINE SMOOTH",
"536 1433 OFFCURVE",
"534 1462 OFFCURVE",
"527 1498 CURVE SMOOTH",
"517 1544 OFFCURVE",
"490 1568 OFFCURVE",
"451 1562 CURVE",
"447 1548 OFFCURVE",
"444 1531 OFFCURVE",
"444 1520 CURVE SMOOTH",
"444 1463 OFFCURVE",
"446 1378 OFFCURVE",
"450 1266 CURVE",
"338 1264 OFFCURVE",
"266 1263 OFFCURVE",
"231 1262 CURVE",
"229 1305 OFFCURVE",
"228 1343 OFFCURVE",
"228 1374 CURVE SMOOTH",
"228 1426 OFFCURVE",
"231 1478 OFFCURVE",
"238 1532 CURVE",
"197 1566 LINE",
"147 1541 LINE",
"147 1438 OFFCURVE",
"148 1343 OFFCURVE",
"151 1259 CURVE",
"98 1258 OFFCURVE",
"86 1255 OFFCURVE",
"86 1241 CURVE SMOOTH",
"86 1214 OFFCURVE",
"113 1191 OFFCURVE",
"164 1191 CURVE",
"152 1191 LINE",
"159 999 OFFCURVE",
"169 801 OFFCURVE",
"184 597 CURVE SMOOTH",
"186 572 OFFCURVE",
"188 515 OFFCURVE",
"189 424 CURVE SMOOTH",
"190 333 OFFCURVE",
"191 249 OFFCURVE",
"194 170 CURVE SMOOTH",
"197 86 OFFCURVE",
"201 40 OFFCURVE",
"208 22 CURVE",
"208 23 LINE",
"214 0 OFFCURVE",
"227 -9 OFFCURVE",
"254 -9 CURVE SMOOTH",
"277 -9 OFFCURVE",
"290 8 OFFCURVE",
"290 37 CURVE SMOOTH",
"290 113 OFFCURVE",
"285 227 OFFCURVE",
"273 392 CURVE SMOOTH",
"261 543 OFFCURVE",
"255 657 OFFCURVE",
"255 736 CURVE",
"282 749 OFFCURVE",
"325 755 OFFCURVE",
"385 755 CURVE SMOOTH",
"392 755 OFFCURVE",
"402 754 OFFCURVE",
"421 750 CURVE SMOOTH",
"442 747 OFFCURVE",
"454 745 OFFCURVE",
"463 745 CURVE SMOOTH",
"467 745 OFFCURVE",
"471 746 OFFCURVE",
"475 747 CURVE SMOOTH",
"475 747 OFFCURVE",
"476 747 OFFCURVE",
"476 747 CURVE",
"461 761 LINE",
"474 502 OFFCURVE",
"481 269 OFFCURVE",
"481 59 CURVE SMOOTH",
"481 54 OFFCURVE",
"481 47 OFFCURVE",
"480 37 CURVE SMOOTH",
"479 26 OFFCURVE",
"479 17 OFFCURVE",
"479 12 CURVE SMOOTH",
"479 -26 OFFCURVE",
"495 -48 OFFCURVE",
"523 -48 CURVE SMOOTH"
);
},
{
closed = 1;
nodes = (
"245 838 OFFCURVE",
"243 857 OFFCURVE",
"243 877 CURVE SMOOTH",
"243 886 OFFCURVE",
"243 899 OFFCURVE",
"244 916 CURVE SMOOTH",
"245 935 OFFCURVE",
"245 949 OFFCURVE",
"245 958 CURVE SMOOTH",
"245 1000 OFFCURVE",
"241 1079 OFFCURVE",
"235 1192 CURVE",
"290 1194 OFFCURVE",
"400 1196 OFFCURVE",
"453 1197 CURVE",
"459 1019 OFFCURVE",
"463 896 OFFCURVE",
"463 829 CURVE",
"467 836 LINE",
"442 835 OFFCURVE",
"408 833 OFFCURVE",
"355 828 CURVE SMOOTH",
"309 824 OFFCURVE",
"274 821 OFFCURVE",
"248 820 CURVE"
);
}
);
width = 676;
}
);
note = Hbar;
unicode = 0126;
},
{
glyphname = I;
layers = (
{
anchors = (
{
name = bottom;
position = "{276, 0}";
},
{
name = ogonek;
position = "{497, 10}";
},
{
name = top;
position = "{276, 1544}";
},
{
name = topleft;
position = "{20, 1544}";
}
);
layerId = "27A8C2A5-6B67-4598-967C-E5EC4FB8AE70";
paths = (
{
closed = 1;
nodes = (
"417 8 OFFCURVE",
"432 26 OFFCURVE",
"432 42 CURVE SMOOTH",
"432 61 OFFCURVE",
"417 71 OFFCURVE",
"386 71 CURVE SMOOTH",
"312 71 LINE",
"312 82 OFFCURVE",
"312 101 OFFCURVE",
"313 127 CURVE SMOOTH",
"314 153 OFFCURVE",
"314 172 OFFCURVE",
"314 184 CURVE SMOOTH",
"314 315 OFFCURVE",
"306 531 OFFCURVE",
"289 830 CURVE SMOOTH",
"272 1129 OFFCURVE",
"263 1344 OFFCURVE",
"263 1474 CURVE SMOOTH",
"263 1477 OFFCURVE",
"264 1480 OFFCURVE",
"266 1482 CURVE SMOOTH",
"269 1485 OFFCURVE",
"281 1487 OFFCURVE",
"290 1487 CURVE SMOOTH",
"295 1487 OFFCURVE",
"302 1487 OFFCURVE",
"312 1487 CURVE SMOOTH",
"317 1487 OFFCURVE",
"324 1487 OFFCURVE",
"335 1486 CURVE SMOOTH",
"346 1485 OFFCURVE",
"354 1485 OFFCURVE",
"361 1485 CURVE SMOOTH",
"377 1485 OFFCURVE",
"386 1502 OFFCURVE",
"386 1518 CURVE SMOOTH",
"386 1537 OFFCURVE",
"369 1547 OFFCURVE",
"349 1547 CURVE SMOOTH",
"327 1547 OFFCURVE",
"301 1547 OFFCURVE",
"271 1548 CURVE SMOOTH",
"241 1548 OFFCURVE",
"222 1548 OFFCURVE",
"213 1548 CURVE SMOOTH",
"174 1548 OFFCURVE",
"148 1546 OFFCURVE",
"137 1542 CURVE",
"126 1537 OFFCURVE",
"120 1528 OFFCURVE",
"120 1513 CURVE SMOOTH",
"120 1494 OFFCURVE",
"127 1484 OFFCURVE",
"142 1484 CURVE SMOOTH",
"212 1484 LINE",
"216 1471 OFFCURVE",
"218 1427 OFFCURVE",
"218 1354 CURVE SMOOTH",
"218 1321 OFFCURVE",
"218 1276 OFFCURVE",
"217 1218 CURVE SMOOTH",
"216 1160 OFFCURVE",
"216 1125 OFFCURVE",
"216 1114 CURVE",
"217 1067 OFFCURVE",
"223 917 OFFCURVE",
"232 663 CURVE SMOOTH",
"241 408 OFFCURVE",
"246 211 OFFCURVE",
"246 70 CURVE",
"166 70 LINE SMOOTH",
"143 70 OFFCURVE",
"132 61 OFFCURVE",
"132 44 CURVE SMOOTH",
"132 27 OFFCURVE",
"147 10 OFFCURVE",
"168 10 CURVE SMOOTH",
"203 10 OFFCURVE",
"244 10 OFFCURVE",
"292 9 CURVE SMOOTH",
"339 8 OFFCURVE",
"377 8 OFFCURVE",
"404 8 CURVE SMOOTH"
);
}
);
width = 552;
},
{
anchors = (
{
name = bottom;
position = "{264, 0}";
},
{
name = ogonek;
position = "{394, 10}";
},
{
name = top;
position = "{194, 1572}";
},
{
name = topleft;
position = "{20, 1552}";
}
);
layerId = "156B637B-193E-48A3-AAC8-7B4A3960F885";
paths = (
{
closed = 1;
nodes = (
"276 3 OFFCURVE",
"304 4 OFFCURVE",
"337 6 CURVE SMOOTH",
"370 7 OFFCURVE",
"388 8 OFFCURVE",
"391 8 CURVE",
"442 43 LINE",
"442 55 LINE SMOOTH",
"442 103 OFFCURVE",
"414 127 OFFCURVE",
"357 127 CURVE SMOOTH",
"343 127 OFFCURVE",
"329 126 OFFCURVE",
"315 124 CURVE",
"315 203 LINE SMOOTH",
"315 336 OFFCURVE",
"307 536 OFFCURVE",
"290 802 CURVE SMOOTH",
"273 1068 OFFCURVE",
"265 1268 OFFCURVE",
"265 1401 CURVE SMOOTH",
"265 1434 OFFCURVE",
"277 1443 OFFCURVE",
"304 1443 CURVE SMOOTH",
"307 1443 OFFCURVE",
"312 1443 OFFCURVE",
"320 1443 CURVE",
"328 1442 OFFCURVE",
"335 1442 OFFCURVE",
"340 1442 CURVE SMOOTH",
"368 1442 OFFCURVE",
"388 1468 OFFCURVE",
"388 1497 CURVE SMOOTH",
"388 1528 OFFCURVE",
"360 1553 OFFCURVE",
"328 1553 CURVE SMOOTH",
"293 1553 OFFCURVE",
"244 1549 OFFCURVE",
"183 1538 CURVE SMOOTH",
"122 1527 OFFCURVE",
"75 1501 OFFCURVE",
"75 1468 CURVE SMOOTH",
"75 1435 OFFCURVE",
"91 1419 OFFCURVE",
"123 1419 CURVE SMOOTH",
"137 1419 OFFCURVE",
"153 1422 OFFCURVE",
"171 1428 CURVE",
"174 1396 OFFCURVE",
"176 1358 OFFCURVE",
"176 1314 CURVE SMOOTH",
"176 1291 OFFCURVE",
"175 1256 OFFCURVE",
"174 1210 CURVE SMOOTH",
"173 1163 OFFCURVE",
"172 1128 OFFCURVE",
"172 1105 CURVE SMOOTH",
"172 1000 OFFCURVE",
"178 842 OFFCURVE",
"191 632 CURVE SMOOTH",
"204 421 OFFCURVE",
"210 263 OFFCURVE",
"210 158 CURVE SMOOTH",
"210 121 OFFCURVE",
"201 110 OFFCURVE",
"180 110 CURVE SMOOTH",
"177 110 OFFCURVE",
"170 111 OFFCURVE",
"161 112 CURVE SMOOTH",
"151 113 OFFCURVE",
"143 113 OFFCURVE",
"137 113 CURVE SMOOTH",
"96 113 OFFCURVE",
"75 97 OFFCURVE",
"75 64 CURVE SMOOTH",
"75 23 OFFCURVE",
"134 3 OFFCURVE",
"252 3 CURVE SMOOTH"
);
}
);
width = 527;
}
);
note = I;
unicode = 0049;
},
{
glyphname = J;
layers = (
{
anchors = (
{
name = bottom;
position = "{238, 0}";
},
{
name = top;
position = "{238, 1544}";
}
);
layerId = "27A8C2A5-6B67-4598-967C-E5EC4FB8AE70";
paths = (
{
closed = 1;
nodes = (
"147 -176 OFFCURVE",
"176 -150 OFFCURVE",
"199 -121 CURVE SMOOTH",
"245 -65 OFFCURVE",
"269 -16 OFFCURVE",
"283 64 CURVE SMOOTH",
"297 144 OFFCURVE",
"298 198 OFFCURVE",
"298 305 CURVE SMOOTH",
"298 332 OFFCURVE",
"291 496 OFFCURVE",
"276 798 CURVE SMOOTH",
"261 1099 OFFCURVE",
"253 1330 OFFCURVE",
"253 1489 CURVE",
"299 1489 LINE SMOOTH",
"342 1489 OFFCURVE",
"355 1493 OFFCURVE",
"355 1520 CURVE SMOOTH",
"355 1537 OFFCURVE",
"341 1552 OFFCURVE",
"322 1552 CURVE SMOOTH",
"290 1552 OFFCURVE",
"254 1552 OFFCURVE",
"213 1553 CURVE SMOOTH",
"172 1554 OFFCURVE",
"146 1554 OFFCURVE",
"135 1554 CURVE SMOOTH",
"96 1554 OFFCURVE",
"70 1552 OFFCURVE",
"58 1547 CURVE SMOOTH",
"46 1542 OFFCURVE",
"40 1532 OFFCURVE",
"40 1516 CURVE SMOOTH",
"40 1500 OFFCURVE",
"52 1485 OFFCURVE",
"68 1485 CURVE SMOOTH",
"80 1485 OFFCURVE",
"100 1486 OFFCURVE",
"129 1487 CURVE SMOOTH",
"158 1488 OFFCURVE",
"178 1489 OFFCURVE",
"191 1489 CURVE",
"191 1402 OFFCURVE",
"194 1279 OFFCURVE",
"201 1119 CURVE SMOOTH",
"207 958 OFFCURVE",
"211 852 OFFCURVE",
"212 801 CURVE SMOOTH",
"213 748 OFFCURVE",
"217 655 OFFCURVE",
"224 524 CURVE SMOOTH",
"231 393 OFFCURVE",
"234 292 OFFCURVE",
"234 221 CURVE SMOOTH",
"234 72 OFFCURVE",
"204 -32 OFFCURVE",
"144 -92 CURVE SMOOTH",
"140 -96 OFFCURVE",
"132 -102 OFFCURVE",
"119 -110 CURVE SMOOTH",
"93 -127 OFFCURVE",
"71 -144 OFFCURVE",
"70 -160 CURVE",
"70 -186 OFFCURVE",
"84 -199 OFFCURVE",
"113 -199 CURVE"
);
}
);
width = 475;
},
{
anchors = (
{
name = bottom;
position = "{274, 0}";
},
{
name = top;
position = "{214, 1552}";
}
);
layerId = "156B637B-193E-48A3-AAC8-7B4A3960F885";
paths = (
{
closed = 1;
nodes = (
"275 -149 OFFCURVE",
"344 -9 OFFCURVE",
"344 152 CURVE SMOOTH",
"344 170 OFFCURVE",
"344 197 OFFCURVE",
"345 234 CURVE SMOOTH",
"345 270 OFFCURVE",
"345 297 OFFCURVE",
"345 315 CURVE SMOOTH",
"345 404 OFFCURVE",
"339 537 OFFCURVE",
"327 714 CURVE SMOOTH",
"314 891 OFFCURVE",
"308 1023 OFFCURVE",
"308 1112 CURVE SMOOTH",
"308 1147 OFFCURVE",
"304 1200 OFFCURVE",
"296 1271 CURVE SMOOTH",
"288 1341 OFFCURVE",
"284 1394 OFFCURVE",
"284 1429 CURVE SMOOTH",
"284 1445 LINE",
"312 1445 LINE SMOOTH",
"313 1445 OFFCURVE",
"314 1445 OFFCURVE",
"315 1445 CURVE",
"316 1444 OFFCURVE",
"317 1444 OFFCURVE",
"318 1444 CURVE SMOOTH",
"375 1444 OFFCURVE",
"403 1462 OFFCURVE",
"403 1497 CURVE SMOOTH",
"403 1513 OFFCURVE",
"398 1525 OFFCURVE",
"388 1534 CURVE",
"367 1551 OFFCURVE",
"346 1553 OFFCURVE",
"311 1553 CURVE SMOOTH",
"285 1553 LINE SMOOTH",
"122 1553 OFFCURVE",
"40 1529 OFFCURVE",
"40 1481 CURVE SMOOTH",
"40 1453 OFFCURVE",
"64 1429 OFFCURVE",
"92 1429 CURVE SMOOTH",
"111 1429 OFFCURVE",
"127 1432 OFFCURVE",
"154 1439 CURVE SMOOTH",
"167 1442 OFFCURVE",
"176 1444 OFFCURVE",
"181 1445 CURVE",
"204 1196 OFFCURVE",
"217 958 OFFCURVE",
"226 732 CURVE SMOOTH",
"231 619 OFFCURVE",
"234 550 OFFCURVE",
"235 525 CURVE SMOOTH",
"236 488 OFFCURVE",
"237 460 OFFCURVE",
"237 441 CURVE SMOOTH",
"237 418 OFFCURVE",
"237 385 OFFCURVE",
"236 341 CURVE SMOOTH",
"235 296 OFFCURVE",
"234 263 OFFCURVE",
"234 241 CURVE SMOOTH",
"234 117 OFFCURVE",
"189 0 OFFCURVE",
"152 -48 CURVE",
"113 -64 OFFCURVE",
"72 -98 OFFCURVE",
"72 -131 CURVE SMOOTH",
"72 -172 OFFCURVE",
"103 -194 OFFCURVE",
"146 -194 CURVE"
);
}
);
width = 548;
}
);
note = J;
unicode = 004A;
},
{
glyphname = K;
layers = (
{
anchors = (
{
name = bottom;
position = "{323, 0}";
},
{
name = top;
position = "{323, 1544}";
}
);
layerId = "27A8C2A5-6B67-4598-967C-E5EC4FB8AE70";
paths = (
{
closed = 1;
nodes = (
"613 -32 OFFCURVE",
"630 -21 OFFCURVE",
"630 -2 CURVE SMOOTH",
"630 2 OFFCURVE",
"629 7 OFFCURVE",
"627 12 CURVE",
"623 28 OFFCURVE",
"544 309 OFFCURVE",
"505 444 CURVE SMOOTH",
"466 579 OFFCURVE",
"389 820 OFFCURVE",
"330 969 CURVE",
"325 976 OFFCURVE",
"325 984 OFFCURVE",
"328 993 CURVE",
"333 1003 OFFCURVE",
"362 1073 OFFCURVE",
"416 1203 CURVE SMOOTH",
"469 1333 OFFCURVE",
"504 1415 OFFCURVE",
"519 1448 CURVE SMOOTH",
"523 1457 OFFCURVE",
"530 1469 OFFCURVE",
"539 1484 CURVE SMOOTH",
"557 1513 OFFCURVE",
"568 1538 OFFCURVE",
"572 1567 CURVE",
"572 1586 OFFCURVE",
"556 1597 OFFCURVE",
"537 1597 CURVE SMOOTH",
"514 1597 OFFCURVE",
"466 1502 OFFCURVE",
"392 1313 CURVE SMOOTH",
"386 1299 OFFCURVE",
"360 1235 OFFCURVE",
"315 1122 CURVE SMOOTH",
"269 1008 OFFCURVE",
"232 922 OFFCURVE",
"205 864 CURVE",
"203 864 LINE",
"203 869 OFFCURVE",
"204 952 OFFCURVE",
"207 1112 CURVE SMOOTH",
"209 1271 OFFCURVE",
"210 1385 OFFCURVE",
"210 1453 CURVE SMOOTH",
"210 1491 OFFCURVE",
"208 1515 OFFCURVE",
"203 1525 CURVE SMOOTH",
"198 1535 OFFCURVE",
"186 1540 OFFCURVE",
"166 1540 CURVE SMOOTH",
"155 1540 OFFCURVE",
"147 1532 OFFCURVE",
"144 1516 CURVE SMOOTH",
"141 1499 OFFCURVE",
"139 1475 OFFCURVE",
"139 1443 CURVE SMOOTH",
"139 1362 OFFCURVE",
"138 1231 OFFCURVE",
"135 1050 CURVE SMOOTH",
"132 869 OFFCURVE",
"130 738 OFFCURVE",
"130 657 CURVE SMOOTH",
"130 38 LINE SMOOTH",
"130 -10 OFFCURVE",
"135 -26 OFFCURVE",
"164 -26 CURVE SMOOTH",
"192 -26 OFFCURVE",
"197 -9 OFFCURVE",
"197 34 CURVE SMOOTH",
"197 763 LINE",
"201 770 OFFCURVE",
"211 786 OFFCURVE",
"226 811 CURVE SMOOTH",
"241 835 OFFCURVE",
"254 858 OFFCURVE",
"267 880 CURVE SMOOTH",
"280 901 OFFCURVE",
"287 914 OFFCURVE",
"290 919 CURVE",
"304 884 LINE",
"324 827 OFFCURVE",
"372 666 OFFCURVE",
"448 403 CURVE SMOOTH",
"524 140 OFFCURVE",
"565 -1 OFFCURVE",
"570 -19 CURVE",
"573 -28 OFFCURVE",
"581 -32 OFFCURVE",
"594 -32 CURVE SMOOTH"
);
}
);
width = 645;
},
{
anchors = (
{
name = bottom;
position = "{365, 0}";
},
{
name = top;
position = "{365, 1552}";
}
);
layerId = "156B637B-193E-48A3-AAC8-7B4A3960F885";
paths = (
{
closed = 1;
nodes = (
"638 -48 OFFCURVE",
"670 -22 OFFCURVE",
"670 11 CURVE SMOOTH",
"670 46 OFFCURVE",
"413 854 OFFCURVE",
"373 955 CURVE",
"373 991 LINE",
"382 1033 OFFCURVE",
"424 1132 OFFCURVE",
"499 1288 CURVE SMOOTH",
"573 1444 OFFCURVE",
"610 1529 OFFCURVE",
"610 1542 CURVE SMOOTH",
"610 1573 OFFCURVE",
"583 1596 OFFCURVE",
"552 1596 CURVE SMOOTH",
"539 1596 OFFCURVE",
"521 1577 OFFCURVE",
"498 1540 CURVE SMOOTH",
"475 1503 OFFCURVE",
"450 1454 OFFCURVE",
"424 1395 CURVE SMOOTH",
"372 1275 OFFCURVE",
"327 1165 OFFCURVE",
"284 1054 CURVE SMOOTH",
"263 999 OFFCURVE",
"250 965 OFFCURVE",
"245 954 CURVE",
"251 1234 OFFCURVE",
"254 1374 OFFCURVE",
"254 1375 CURVE SMOOTH",
"254 1486 OFFCURVE",
"229 1541 OFFCURVE",
"178 1541 CURVE SMOOTH",
"145 1541 OFFCURVE",
"120 1511 OFFCURVE",
"120 1476 CURVE SMOOTH",
"120 1438 OFFCURVE",
"125 1374 OFFCURVE",
"135 1285 CURVE SMOOTH",
"145 1196 OFFCURVE",
"150 1117 OFFCURVE",
"150 1049 CURVE SMOOTH",
"150 997 OFFCURVE",
"150 926 OFFCURVE",
"149 836 CURVE SMOOTH",
"148 746 OFFCURVE",
"147 687 OFFCURVE",
"147 660 CURVE SMOOTH",
"147 599 OFFCURVE",
"143 507 OFFCURVE",
"134 384 CURVE SMOOTH",
"125 261 OFFCURVE",
"120 169 OFFCURVE",
"120 108 CURVE SMOOTH",
"120 31 OFFCURVE",
"140 -7 OFFCURVE",
"180 -7 CURVE SMOOTH",
"227 -7 OFFCURVE",
"250 29 OFFCURVE",
"250 102 CURVE SMOOTH",
"250 270 LINE SMOOTH",
"250 313 OFFCURVE",
"248 376 OFFCURVE",
"244 460 CURVE SMOOTH",
"239 544 OFFCURVE",
"237 607 OFFCURVE",
"237 650 CURVE SMOOTH",
"237 690 OFFCURVE",
"241 719 OFFCURVE",
"243 739 CURVE SMOOTH",
"245 758 OFFCURVE",
"259 788 OFFCURVE",
"265 800 CURVE SMOOTH",
"271 812 OFFCURVE",
"295 859 OFFCURVE",
"307 880 CURVE",
"426 619 OFFCURVE",
"489 348 OFFCURVE",
"557 -40 CURVE",
"562 -40 OFFCURVE",
"569 -41 OFFCURVE",
"580 -44 CURVE SMOOTH",
"591 -47 OFFCURVE",
"599 -48 OFFCURVE",
"605 -48 CURVE SMOOTH"
);
}
);
width = 730;
}
);
note = K;
unicode = 004B;
},
{
glyphname = L;
layers = (
{
anchors = (
{
name = bottom;
position = "{253, 0}";
},
{
name = center;
position = "{253, 772}";
},
{
name = top;
position = "{173, 1544}";
},
{
name = topright;
position = "{485, 1544}";
}
);
layerId = "27A8C2A5-6B67-4598-967C-E5EC4FB8AE70";
paths = (
{
closed = 1;
nodes = (
"281 -12 OFFCURVE",
"336 -12 OFFCURVE",
"379 -11 CURVE SMOOTH",
"383 -11 OFFCURVE",
"389 -11 OFFCURVE",
"396 -10 CURVE SMOOTH",
"403 -9 OFFCURVE",
"408 -9 OFFCURVE",
"410 -9 CURVE SMOOTH",
"426 -9 OFFCURVE",
"435 11 OFFCURVE",
"435 31 CURVE SMOOTH",
"435 56 OFFCURVE",
"426 68 OFFCURVE",
"407 68 CURVE SMOOTH",
"281 68 LINE SMOOTH",
"266 68 OFFCURVE",
"256 68 OFFCURVE",
"253 69 CURVE",
"249 70 OFFCURVE",
"247 72 OFFCURVE",
"247 75 CURVE SMOOTH",
"246 116 OFFCURVE",
"242 201 OFFCURVE",
"235 330 CURVE SMOOTH",
"228 459 OFFCURVE",
"224 552 OFFCURVE",
"224 610 CURVE SMOOTH",
"214 977 LINE SMOOTH",
"209 1101 OFFCURVE",
"206 1290 OFFCURVE",
"206 1545 CURVE SMOOTH",
"206 1564 OFFCURVE",
"194 1574 OFFCURVE",
"170 1574 CURVE SMOOTH",
"154 1574 OFFCURVE",
"140 1565 OFFCURVE",
"140 1550 CURVE SMOOTH",
"140 1455 OFFCURVE",
"144 1313 OFFCURVE",
"151 1122 CURVE SMOOTH",
"158 931 OFFCURVE",
"161 789 OFFCURVE",
"161 694 CURVE SMOOTH",
"161 629 OFFCURVE",
"164 532 OFFCURVE",
"171 403 CURVE SMOOTH",
"178 274 OFFCURVE",
"181 177 OFFCURVE",
"181 113 CURVE SMOOTH",
"181 98 OFFCURVE",
"181 81 OFFCURVE",
"181 64 CURVE",
"180 46 OFFCURVE",
"180 35 OFFCURVE",
"180 31 CURVE SMOOTH",
"180 7 OFFCURVE",
"194 -12 OFFCURVE",
"214 -12 CURVE SMOOTH"
);
}
);
width = 505;
},
{
anchors = (
{
name = bottom;
position = "{257, 0}";
},
{
name = center;
position = "{257, 776}";
},
{
name = top;
position = "{167, 1552}";
},
{
name = topright;
position = "{493, 1552}";
}
);
layerId = "156B637B-193E-48A3-AAC8-7B4A3960F885";
paths = (
{
closed = 1;
nodes = (
"242 -23 OFFCURVE",
"261 -15 OFFCURVE",
"275 2 CURVE",
"282 2 OFFCURVE",
"293 2 OFFCURVE",
"308 1 CURVE SMOOTH",
"323 0 OFFCURVE",
"334 -1 OFFCURVE",
"341 -1 CURVE SMOOTH",
"356 -1 OFFCURVE",
"369 0 OFFCURVE",
"380 3 CURVE",
"382 2 OFFCURVE",
"385 1 OFFCURVE",
"390 0 CURVE",
"398 -3 OFFCURVE",
"406 -4 OFFCURVE",
"411 -4 CURVE SMOOTH",
"440 -4 OFFCURVE",
"463 23 OFFCURVE",
"463 54 CURVE SMOOTH",
"463 75 OFFCURVE",
"448 95 OFFCURVE",
"419 115 CURVE",
"263 115 LINE",
"263 167 LINE SMOOTH",
"263 404 OFFCURVE",
"260 582 OFFCURVE",
"255 701 CURVE",
"255 710 LINE",
"256 713 OFFCURVE",
"256 718 OFFCURVE",
"256 725 CURVE SMOOTH",
"256 731 OFFCURVE",
"256 739 OFFCURVE",
"255 750 CURVE SMOOTH",
"254 761 OFFCURVE",
"253 769 OFFCURVE",
"253 775 CURVE SMOOTH",
"253 856 OFFCURVE",
"250 979 OFFCURVE",
"243 1143 CURVE SMOOTH",
"236 1307 OFFCURVE",
"232 1430 OFFCURVE",
"232 1512 CURVE SMOOTH",
"232 1545 OFFCURVE",
"203 1571 OFFCURVE",
"170 1571 CURVE SMOOTH",
"143 1571 OFFCURVE",
"120 1554 OFFCURVE",
"120 1529 CURVE SMOOTH",
"120 1374 OFFCURVE",
"127 1141 OFFCURVE",
"141 831 CURVE SMOOTH",
"154 520 OFFCURVE",
"161 287 OFFCURVE",
"161 132 CURVE SMOOTH",
"161 122 OFFCURVE",
"159 107 OFFCURVE",
"155 88 CURVE",
"150 68 OFFCURVE",
"148 53 OFFCURVE",
"148 42 CURVE SMOOTH",
"148 7 OFFCURVE",
"182 -23 OFFCURVE",
"217 -23 CURVE SMOOTH"
);
}
);
width = 513;
}
);
note = L;
unicode = 004C;
},
{
glyphname = Lslash;
layers = (
{
layerId = "27A8C2A5-6B67-4598-967C-E5EC4FB8AE70";
paths = (
{
closed = 1;
nodes = (
"312 -12 OFFCURVE",
"367 -12 OFFCURVE",
"410 -11 CURVE SMOOTH",
"414 -11 OFFCURVE",
"420 -11 OFFCURVE",
"427 -10 CURVE SMOOTH",
"434 -9 OFFCURVE",
"439 -9 OFFCURVE",
"441 -9 CURVE SMOOTH",
"457 -9 OFFCURVE",
"466 11 OFFCURVE",
"466 31 CURVE SMOOTH",
"466 56 OFFCURVE",
"457 68 OFFCURVE",
"438 68 CURVE SMOOTH",
"312 68 LINE SMOOTH",
"297 68 OFFCURVE",
"287 68 OFFCURVE",
"284 69 CURVE",
"280 70 OFFCURVE",
"278 72 OFFCURVE",
"278 75 CURVE SMOOTH",
"277 116 OFFCURVE",
"273 201 OFFCURVE",
"266 330 CURVE SMOOTH",
"259 459 OFFCURVE",
"255 552 OFFCURVE",
"255 610 CURVE SMOOTH",
"245 977 LINE SMOOTH",
"240 1101 OFFCURVE",
"237 1290 OFFCURVE",
"237 1545 CURVE SMOOTH",
"237 1564 OFFCURVE",
"225 1574 OFFCURVE",
"201 1574 CURVE SMOOTH",
"185 1574 OFFCURVE",
"171 1565 OFFCURVE",
"171 1550 CURVE SMOOTH",
"171 1455 OFFCURVE",
"175 1313 OFFCURVE",
"182 1122 CURVE SMOOTH",
"189 931 OFFCURVE",
"192 789 OFFCURVE",
"192 694 CURVE SMOOTH",
"192 629 OFFCURVE",
"195 532 OFFCURVE",
"202 403 CURVE SMOOTH",
"209 274 OFFCURVE",
"212 177 OFFCURVE",
"212 113 CURVE SMOOTH",
"212 98 OFFCURVE",
"212 81 OFFCURVE",
"212 64 CURVE",
"211 46 OFFCURVE",
"211 35 OFFCURVE",
"211 31 CURVE SMOOTH",
"211 7 OFFCURVE",
"225 -12 OFFCURVE",
"245 -12 CURVE SMOOTH"
);
},
{
closed = 1;
nodes = (
"51 727 OFFCURVE",
"58 728 OFFCURVE",
"66 731 CURVE",
"318 845 OFFCURVE",
"444 913 OFFCURVE",
"444 936 CURVE SMOOTH",
"444 948 OFFCURVE",
"424 956 OFFCURVE",
"409 956 CURVE SMOOTH",
"402 956 OFFCURVE",
"396 955 OFFCURVE",
"389 952 CURVE SMOOTH",
"246 889 OFFCURVE",
"13 776 OFFCURVE",
"13 748 CURVE SMOOTH",
"13 735 OFFCURVE",
"33 727 OFFCURVE",
"46 727 CURVE SMOOTH"
);
}
);
width = 536;
},
{
layerId = "156B637B-193E-48A3-AAC8-7B4A3960F885";
paths = (
{
closed = 1;
nodes = (
"461 -4 OFFCURVE",
"484 23 OFFCURVE",
"484 54 CURVE SMOOTH",
"484 75 OFFCURVE",
"469 95 OFFCURVE",
"440 115 CURVE",
"284 115 LINE",
"284 167 LINE SMOOTH",
"284 404 OFFCURVE",
"281 582 OFFCURVE",
"276 701 CURVE",
"276 710 LINE",
"277 715 OFFCURVE",
"277 721 OFFCURVE",
"277 730 CURVE SMOOTH",
"277 737 OFFCURVE",
"277 748 OFFCURVE",
"276 763 CURVE SMOOTH",
"275 777 OFFCURVE",
"274 788 OFFCURVE",
"274 795 CURVE SMOOTH",
"274 797 LINE",
"416 818 OFFCURVE",
"487 852 OFFCURVE",
"487 897 CURVE SMOOTH",
"487 928 OFFCURVE",
"468 949 OFFCURVE",
"449 949 CURVE SMOOTH",
"400 949 OFFCURVE",
"342 934 OFFCURVE",
"273 904 CURVE",
"272 949 OFFCURVE",
"268 1042 OFFCURVE",
"262 1184 CURVE SMOOTH",
"256 1325 OFFCURVE",
"253 1435 OFFCURVE",
"253 1512 CURVE SMOOTH",
"253 1545 OFFCURVE",
"224 1571 OFFCURVE",
"191 1571 CURVE SMOOTH",
"164 1571 OFFCURVE",
"141 1554 OFFCURVE",
"141 1529 CURVE SMOOTH",
"141 1384 OFFCURVE",
"147 1165 OFFCURVE",
"159 873 CURVE",
"83 857 OFFCURVE",
"45 834 OFFCURVE",
"45 803 CURVE SMOOTH",
"45 775 OFFCURVE",
"77 754 OFFCURVE",
"112 754 CURVE SMOOTH",
"126 754 OFFCURVE",
"143 759 OFFCURVE",
"164 768 CURVE",
"176 485 OFFCURVE",
"182 273 OFFCURVE",
"182 132 CURVE SMOOTH",
"182 122 OFFCURVE",
"180 107 OFFCURVE",
"176 88 CURVE",
"171 68 OFFCURVE",
"169 53 OFFCURVE",
"169 42 CURVE SMOOTH",
"169 22 OFFCURVE",
"199 5 OFFCURVE",
"228 5 CURVE SMOOTH",
"237 5 OFFCURVE",
"249 5 OFFCURVE",
"265 4 CURVE SMOOTH",
"281 3 OFFCURVE",
"291 2 OFFCURVE",
"296 2 CURVE SMOOTH",
"303 2 OFFCURVE",
"314 2 OFFCURVE",
"329 1 CURVE SMOOTH",
"344 0 OFFCURVE",
"355 -1 OFFCURVE",
"362 -1 CURVE SMOOTH",
"377 -1 OFFCURVE",
"390 0 OFFCURVE",
"401 3 CURVE",
"403 2 OFFCURVE",
"406 1 OFFCURVE",
"411 0 CURVE",
"419 -3 OFFCURVE",
"427 -4 OFFCURVE",
"432 -4 CURVE SMOOTH"
);
}
);
width = 572;
}
);
note = Lslash;
unicode = 0141;
},
{
glyphname = M;
layers = (
{
layerId = "27A8C2A5-6B67-4598-967C-E5EC4FB8AE70";
paths = (
{
closed = 1;
nodes = (
"767 -47 OFFCURVE",
"775 -43 OFFCURVE",
"780 -34 CURVE SMOOTH",
"785 -25 OFFCURVE",
"787 -6 OFFCURVE",
"787 24 CURVE SMOOTH",
"787 86 OFFCURVE",
"785 155 OFFCURVE",
"782 230 CURVE SMOOTH",
"779 305 OFFCURVE",
"777 361 OFFCURVE",
"777 399 CURVE SMOOTH",
"777 501 OFFCURVE",
"772 655 OFFCURVE",
"761 861 CURVE SMOOTH",
"750 1067 OFFCURVE",
"744 1222 OFFCURVE",
"744 1325 CURVE SMOOTH",
"744 1528 LINE SMOOTH",
"744 1552 OFFCURVE",
"731 1566 OFFCURVE",
"716 1566 CURVE SMOOTH",
"700 1566 OFFCURVE",
"686 1551 OFFCURVE",
"681 1523 CURVE",
"680 1513 OFFCURVE",
"676 1493 OFFCURVE",
"671 1462 CURVE SMOOTH",
"665 1431 OFFCURVE",
"658 1393 OFFCURVE",
"650 1347 CURVE SMOOTH",
"641 1300 OFFCURVE",
"635 1265 OFFCURVE",
"630 1241 CURVE SMOOTH",
"575 945 OFFCURVE",
"544 778 OFFCURVE",
"536 739 CURVE SMOOTH",
"533 722 OFFCURVE",
"522 662 OFFCURVE",
"505 559 CURVE SMOOTH",
"487 456 OFFCURVE",
"476 395 OFFCURVE",
"473 376 CURVE",
"444 551 OFFCURVE",
"424 665 OFFCURVE",
"413 717 CURVE SMOOTH",
"362 949 OFFCURVE",
"234 1468 OFFCURVE",
"210 1544 CURVE",
"206 1555 OFFCURVE",
"199 1561 OFFCURVE",
"189 1561 CURVE SMOOTH",
"174 1561 OFFCURVE",
"159 1548 OFFCURVE",
"159 1533 CURVE SMOOTH",
"159 1354 LINE SMOOTH",
"159 1300 OFFCURVE",
"158 1219 OFFCURVE",
"156 1111 CURVE SMOOTH",
"154 1003 OFFCURVE",
"153 922 OFFCURVE",
"153 868 CURVE SMOOTH",
"153 821 OFFCURVE",
"153 752 OFFCURVE",
"152 660 CURVE SMOOTH",
"151 567 OFFCURVE",
"150 498 OFFCURVE",
"150 453 CURVE SMOOTH",
"150 111 LINE SMOOTH",
"150 40 OFFCURVE",
"169 4 OFFCURVE",
"208 4 CURVE",
"219 15 OFFCURVE",
"224 32 OFFCURVE",
"224 57 CURVE SMOOTH",
"224 79 OFFCURVE",
"222 112 OFFCURVE",
"219 155 CURVE SMOOTH",
"216 198 OFFCURVE",
"214 230 OFFCURVE",
"214 252 CURVE SMOOTH",
"214 324 OFFCURVE",
"213 432 OFFCURVE",
"211 577 CURVE SMOOTH",
"209 722 OFFCURVE",
"208 830 OFFCURVE",
"208 903 CURVE SMOOTH",
"208 1056 OFFCURVE",
"211 1194 OFFCURVE",
"216 1317 CURVE",
"232 1294 OFFCURVE",
"404 411 OFFCURVE",
"419 302 CURVE SMOOTH",
"424 261 OFFCURVE",
"442 238 OFFCURVE",
"462 238 CURVE SMOOTH",
"483 238 OFFCURVE",
"504 261 OFFCURVE",
"509 296 CURVE",
"516 335 OFFCURVE",
"528 398 OFFCURVE",
"546 483 CURVE SMOOTH",
"574 618 OFFCURVE",
"654 1044 OFFCURVE",
"689 1268 CURVE SMOOTH",
"690 1276 OFFCURVE",
"692 1281 OFFCURVE",
"693 1282 CURVE",
"694 1268 OFFCURVE",
"695 1240 OFFCURVE",
"698 1198 CURVE SMOOTH",
"700 1156 OFFCURVE",
"701 1123 OFFCURVE",
"701 1100 CURVE SMOOTH",
"701 1075 OFFCURVE",
"700 1036 OFFCURVE",
"699 985 CURVE SMOOTH",
"698 934 OFFCURVE",
"697 895 OFFCURVE",
"697 870 CURVE SMOOTH",
"697 795 OFFCURVE",
"700 683 OFFCURVE",
"705 534 CURVE SMOOTH",
"710 385 OFFCURVE",
"712 272 OFFCURVE",
"712 197 CURVE SMOOTH",
"712 10 LINE SMOOTH",
"712 -27 OFFCURVE",
"718 -47 OFFCURVE",
"757 -47 CURVE SMOOTH"
);
}
);
width = 937;
},
{
anchors = (
{
name = bottom;
position = "{464, 0}";
},
{
name = top;
position = "{464, 1552}";
}
);
layerId = "156B637B-193E-48A3-AAC8-7B4A3960F885";
paths = (
{
closed = 1;
nodes = (
"751 -54 OFFCURVE",
"793 2 OFFCURVE",
"793 67 CURVE SMOOTH",
"793 230 OFFCURVE",
"787 475 OFFCURVE",
"775 801 CURVE SMOOTH",
"762 1127 OFFCURVE",
"756 1372 OFFCURVE",
"756 1535 CURVE SMOOTH",
"756 1560 OFFCURVE",
"733 1587 OFFCURVE",
"708 1587 CURVE SMOOTH",
"672 1587 OFFCURVE",
"640 1564 OFFCURVE",
"635 1529 CURVE",
"635 1517 LINE",
"630 1440 OFFCURVE",
"621 1355 OFFCURVE",
"607 1262 CURVE SMOOTH",
"578 1074 OFFCURVE",
"560 991 OFFCURVE",
"509 764 CURVE SMOOTH",
"484 651 OFFCURVE",
"466 572 OFFCURVE",
"457 528 CURVE",
"454 540 OFFCURVE",
"444 593 OFFCURVE",
"427 686 CURVE SMOOTH",
"410 779 OFFCURVE",
"392 869 OFFCURVE",
"374 954 CURVE SMOOTH",
"338 1125 OFFCURVE",
"289 1343 OFFCURVE",
"241 1463 CURVE SMOOTH",
"216 1522 OFFCURVE",
"194 1553 OFFCURVE",
"173 1554 CURVE",
"116 1522 LINE",
"114 1434 OFFCURVE",
"113 1346 OFFCURVE",
"113 1257 CURVE SMOOTH",
"113 1169 OFFCURVE",
"114 1037 OFFCURVE",
"117 861 CURVE SMOOTH",
"119 685 OFFCURVE",
"120 553 OFFCURVE",
"120 464 CURVE SMOOTH",
"120 427 OFFCURVE",
"118 372 OFFCURVE",
"115 299 CURVE SMOOTH",
"112 225 OFFCURVE",
"110 169 OFFCURVE",
"110 132 CURVE SMOOTH",
"110 55 OFFCURVE",
"129 6 OFFCURVE",
"200 6 CURVE",
"221 28 OFFCURVE",
"231 54 OFFCURVE",
"231 83 CURVE SMOOTH",
"231 177 OFFCURVE",
"228 317 OFFCURVE",
"223 504 CURVE SMOOTH",
"217 691 OFFCURVE",
"214 831 OFFCURVE",
"214 925 CURVE SMOOTH",
"214 980 OFFCURVE",
"215 1063 OFFCURVE",
"218 1172 CURVE",
"227 1131 OFFCURVE",
"247 1055 OFFCURVE",
"278 942 CURVE SMOOTH",
"338 716 OFFCURVE",
"369 561 OFFCURVE",
"369 413 CURVE SMOOTH",
"369 286 OFFCURVE",
"393 222 OFFCURVE",
"442 222 CURVE SMOOTH",
"471 222 OFFCURVE",
"493 239 OFFCURVE",
"505 271 CURVE SMOOTH",
"517 302 OFFCURVE",
"522 323 OFFCURVE",
"527 363 CURVE SMOOTH",
"530 383 OFFCURVE",
"532 396 OFFCURVE",
"533 401 CURVE",
"533 414 LINE",
"542 484 OFFCURVE",
"563 585 OFFCURVE",
"596 717 CURVE SMOOTH",
"629 848 OFFCURVE",
"650 940 OFFCURVE",
"659 993 CURVE",
"659 889 LINE SMOOTH",
"659 794 OFFCURVE",
"660 650 OFFCURVE",
"663 458 CURVE SMOOTH",
"666 266 OFFCURVE",
"667 122 OFFCURVE",
"667 27 CURVE SMOOTH",
"667 -26 OFFCURVE",
"687 -54 OFFCURVE",
"712 -54 CURVE SMOOTH"
);
}
);
width = 928;
}
);
note = M;
unicode = 004D;
},
{
glyphname = N;
layers = (
{
anchors = (
{
name = bottom;
position = "{389, 0}";
},
{
name = top;
position = "{389, 1544}";
}
);
layerId = "27A8C2A5-6B67-4598-967C-E5EC4FB8AE70";
paths = (
{
closed = 1;
nodes = (
"593 -23 OFFCURVE",
"610 -3 OFFCURVE",
"610 37 CURVE SMOOTH",
"610 72 OFFCURVE",
"612 126 OFFCURVE",
"615 199 CURVE SMOOTH",
"618 272 OFFCURVE",
"620 325 OFFCURVE",
"620 360 CURVE SMOOTH",
"620 468 OFFCURVE",
"621 629 OFFCURVE",
"623 843 CURVE SMOOTH",
"624 1057 OFFCURVE",
"625 1219 OFFCURVE",
"625 1329 CURVE SMOOTH",
"625 1460 LINE SMOOTH",
"625 1464 OFFCURVE",
"626 1475 OFFCURVE",
"627 1493 CURVE SMOOTH",
"628 1510 OFFCURVE",
"628 1524 OFFCURVE",
"628 1535 CURVE SMOOTH",
"628 1575 OFFCURVE",
"623 1595 OFFCURVE",
"612 1595 CURVE SMOOTH",
"589 1595 OFFCURVE",
"575 1586 OFFCURVE",
"570 1567 CURVE",
"572 1278 LINE",
"572 1243 OFFCURVE",
"572 1190 OFFCURVE",
"571 1120 CURVE SMOOTH",
"570 1049 OFFCURVE",
"569 996 OFFCURVE",
"569 961 CURVE SMOOTH",
"569 882 OFFCURVE",
"568 763 OFFCURVE",
"565 605 CURVE SMOOTH",
"562 446 OFFCURVE",
"561 327 OFFCURVE",
"561 248 CURVE SMOOTH",
"561 202 OFFCURVE",
"557 169 OFFCURVE",
"548 150 CURVE",
"517 243 OFFCURVE",
"482 373 OFFCURVE",
"442 539 CURVE SMOOTH",
"345 901 OFFCURVE",
"296 1087 OFFCURVE",
"294 1096 CURVE SMOOTH",
"283 1142 OFFCURVE",
"267 1214 OFFCURVE",
"246 1313 CURVE SMOOTH",
"225 1411 OFFCURVE",
"211 1478 OFFCURVE",
"202 1513 CURVE SMOOTH",
"197 1532 OFFCURVE",
"172 1552 OFFCURVE",
"155 1552 CURVE SMOOTH",
"118 1552 OFFCURVE",
"100 1544 OFFCURVE",
"100 1509 CURVE SMOOTH",
"100 1504 OFFCURVE",
"100 1497 OFFCURVE",
"101 1488 CURVE SMOOTH",
"102 1478 OFFCURVE",
"102 1471 OFFCURVE",
"102 1466 CURVE SMOOTH",
"102 1423 OFFCURVE",
"103 1359 OFFCURVE",
"104 1273 CURVE SMOOTH",
"105 1187 OFFCURVE",
"105 1122 OFFCURVE",
"105 1079 CURVE SMOOTH",
"105 811 LINE SMOOTH",
"105 732 OFFCURVE",
"106 613 OFFCURVE",
"108 455 CURVE SMOOTH",
"109 296 OFFCURVE",
"110 177 OFFCURVE",
"110 98 CURVE SMOOTH",
"110 54 OFFCURVE",
"109 27 OFFCURVE",
"106 16 CURVE",
"112 0 LINE",
"159 0 LINE",
"173 16 LINE",
"173 81 OFFCURVE",
"171 179 OFFCURVE",
"168 308 CURVE SMOOTH",
"165 437 OFFCURVE",
"163 535 OFFCURVE",
"163 600 CURVE SMOOTH",
"163 1341 LINE SMOOTH",
"163 1384 OFFCURVE",
"164 1413 OFFCURVE",
"165 1426 CURVE",
"213 1187 OFFCURVE",
"241 1050 OFFCURVE",
"249 1016 CURVE SMOOTH",
"267 941 OFFCURVE",
"351 634 OFFCURVE",
"501 94 CURVE",
"502 89 OFFCURVE",
"504 79 OFFCURVE",
"507 64 CURVE SMOOTH",
"510 48 OFFCURVE",
"512 35 OFFCURVE",
"515 24 CURVE",
"520 2 OFFCURVE",
"537 -23 OFFCURVE",
"558 -23 CURVE SMOOTH"
);
}
);
width = 778;
},
{
anchors = (
{
name = bottom;
position = "{422, 0}";
},
{
name = top;
position = "{422, 1552}";
}
);
layerId = "156B637B-193E-48A3-AAC8-7B4A3960F885";
paths = (
{
closed = 1;
nodes = (
"662 -30 OFFCURVE",
"688 20 OFFCURVE",
"688 61 CURVE SMOOTH",
"688 687 LINE SMOOTH",
"688 771 OFFCURVE",
"690 897 OFFCURVE",
"695 1066 CURVE SMOOTH",
"699 1235 OFFCURVE",
"701 1361 OFFCURVE",
"701 1444 CURVE SMOOTH",
"701 1467 OFFCURVE",
"705 1487 OFFCURVE",
"713 1504 CURVE",
"713 1516 LINE SMOOTH",
"713 1569 OFFCURVE",
"695 1596 OFFCURVE",
"658 1596 CURVE SMOOTH",
"621 1596 OFFCURVE",
"599 1579 OFFCURVE",
"591 1545 CURVE",
"591 939 LINE SMOOTH",
"591 860 OFFCURVE",
"590 741 OFFCURVE",
"587 582 CURVE SMOOTH",
"584 423 OFFCURVE",
"583 304 OFFCURVE",
"583 225 CURVE",
"581 235 LINE SMOOTH",
"575 262 OFFCURVE",
"564 310 OFFCURVE",
"549 377 CURVE SMOOTH",
"518 511 OFFCURVE",
"466 735 OFFCURVE",
"409 947 CURVE SMOOTH",
"352 1158 OFFCURVE",
"293 1356 OFFCURVE",
"238 1475 CURVE SMOOTH",
"211 1534 OFFCURVE",
"188 1564 OFFCURVE",
"169 1564 CURVE SMOOTH",
"139 1564 OFFCURVE",
"124 1530 OFFCURVE",
"124 1462 CURVE SMOOTH",
"124 1449 LINE SMOOTH",
"124 1407 OFFCURVE",
"122 1344 OFFCURVE",
"117 1261 CURVE SMOOTH",
"112 1178 OFFCURVE",
"110 1115 OFFCURVE",
"110 1073 CURVE SMOOTH",
"110 812 LINE SMOOTH",
"110 777 OFFCURVE",
"114 680 OFFCURVE",
"123 521 CURVE SMOOTH",
"132 362 OFFCURVE",
"136 248 OFFCURVE",
"136 177 CURVE SMOOTH",
"136 152 OFFCURVE",
"134 123 OFFCURVE",
"131 91 CURVE SMOOTH",
"128 59 OFFCURVE",
"126 39 OFFCURVE",
"126 30 CURVE SMOOTH",
"126 9 OFFCURVE",
"141 -2 OFFCURVE",
"171 -2 CURVE SMOOTH",
"206 -2 OFFCURVE",
"243 17 OFFCURVE",
"243 42 CURVE SMOOTH",
"243 107 OFFCURVE",
"238 205 OFFCURVE",
"229 334 CURVE SMOOTH",
"219 463 OFFCURVE",
"214 561 OFFCURVE",
"214 626 CURVE SMOOTH",
"214 1298 LINE",
"295 975 OFFCURVE",
"378 673 OFFCURVE",
"461 392 CURVE SMOOTH",
"544 111 OFFCURVE",
"600 -30 OFFCURVE",
"629 -30 CURVE SMOOTH"
);
}
);
width = 843;
}
);
note = N;
unicode = 004E;
},
{
glyphname = Eng;
layers = (
{
layerId = "27A8C2A5-6B67-4598-967C-E5EC4FB8AE70";
paths = (
{
closed = 1;
nodes = (
"617 -394 OFFCURVE",
"691 -274 OFFCURVE",
"691 -131 CURVE SMOOTH",
"691 -105 OFFCURVE",
"693 -74 OFFCURVE",
"697 -39 CURVE SMOOTH",
"700 -4 OFFCURVE",
"702 22 OFFCURVE",
"702 37 CURVE SMOOTH",
"702 72 OFFCURVE",
"704 126 OFFCURVE",
"707 199 CURVE SMOOTH",
"710 272 OFFCURVE",
"712 325 OFFCURVE",
"712 360 CURVE SMOOTH",
"712 618 LINE",
"716 627 LINE",
"713 651 OFFCURVE",
"712 669 OFFCURVE",
"712 682 CURVE SMOOTH",
"712 754 OFFCURVE",
"713 862 OFFCURVE",
"715 1006 CURVE SMOOTH",
"717 1150 OFFCURVE",
"718 1258 OFFCURVE",
"718 1329 CURVE",
"723 1341 OFFCURVE",
"726 1362 OFFCURVE",
"726 1391 CURVE SMOOTH",
"726 1398 OFFCURVE",
"726 1410 OFFCURVE",
"725 1425 CURVE SMOOTH",
"724 1440 OFFCURVE",
"724 1452 OFFCURVE",
"724 1460 CURVE SMOOTH",
"724 1488 OFFCURVE",
"728 1511 OFFCURVE",
"737 1528 CURVE",
"737 1573 OFFCURVE",
"726 1595 OFFCURVE",
"704 1595 CURVE SMOOTH",
"675 1595 OFFCURVE",
"658 1586 OFFCURVE",
"653 1567 CURVE",
"658 1541 OFFCURVE",
"661 1501 OFFCURVE",
"661 1446 CURVE SMOOTH",
"661 1399 LINE",
"655 1382 LINE",
"659 1379 OFFCURVE",
"661 1371 OFFCURVE",
"661 1356 CURVE SMOOTH",
"661 1348 OFFCURVE",
"660 1335 OFFCURVE",
"658 1318 CURVE SMOOTH",
"656 1301 OFFCURVE",
"655 1287 OFFCURVE",
"655 1278 CURVE SMOOTH",
"655 1243 OFFCURVE",
"656 1190 OFFCURVE",
"658 1120 CURVE SMOOTH",
"660 1049 OFFCURVE",
"661 996 OFFCURVE",
"661 961 CURVE SMOOTH",
"661 882 OFFCURVE",
"660 763 OFFCURVE",
"657 605 CURVE SMOOTH",
"654 446 OFFCURVE",
"653 327 OFFCURVE",
"653 248 CURVE SMOOTH",
"653 229 OFFCURVE",
"650 184 OFFCURVE",
"644 115 CURVE",
"585 313 LINE SMOOTH",
"578 334 OFFCURVE",
"569 375 OFFCURVE",
"557 435 CURVE SMOOTH",
"532 554 OFFCURVE",
"529 562 OFFCURVE",
"486 713 CURVE SMOOTH",
"442 864 OFFCURVE",
"409 984 OFFCURVE",
"386 1096 CURVE SMOOTH",
"383 1113 OFFCURVE",
"378 1146 OFFCURVE",
"373 1194 CURVE SMOOTH",
"362 1289 OFFCURVE",
"352 1317 OFFCURVE",
"329 1370 CURVE SMOOTH",
"306 1422 OFFCURVE",
"294 1460 OFFCURVE",
"294 1513 CURVE SMOOTH",
"294 1532 OFFCURVE",
"267 1552 OFFCURVE",
"247 1552 CURVE SMOOTH",
"210 1552 OFFCURVE",
"192 1544 OFFCURVE",
"192 1509 CURVE SMOOTH",
"192 1504 OFFCURVE",
"192 1497 OFFCURVE",
"193 1488 CURVE SMOOTH",
"194 1478 OFFCURVE",
"194 1471 OFFCURVE",
"194 1466 CURVE SMOOTH",
"194 1423 OFFCURVE",
"192 1359 OFFCURVE",
"187 1273 CURVE SMOOTH",
"182 1187 OFFCURVE",
"179 1122 OFFCURVE",
"179 1079 CURVE SMOOTH",
"179 811 LINE SMOOTH",
"179 732 OFFCURVE",
"183 613 OFFCURVE",
"191 455 CURVE SMOOTH",
"198 296 OFFCURVE",
"202 177 OFFCURVE",
"202 98 CURVE SMOOTH",
"202 54 OFFCURVE",
"201 27 OFFCURVE",
"198 16 CURVE",
"204 0 LINE",
"251 0 LINE",
"265 16 LINE",
"265 81 OFFCURVE",
"260 179 OFFCURVE",
"251 308 CURVE SMOOTH",
"242 437 OFFCURVE",
"237 535 OFFCURVE",
"237 600 CURVE SMOOTH",
"237 1161 LINE SMOOTH",
"237 1224 OFFCURVE",
"242 1271 OFFCURVE",
"251 1303 CURVE",
"248 1311 OFFCURVE",
"247 1324 OFFCURVE",
"247 1341 CURVE SMOOTH",
"247 1347 OFFCURVE",
"247 1353 OFFCURVE",
"248 1360 CURVE",
"249 1373 OFFCURVE",
"252 1392 OFFCURVE",
"253 1401 CURVE",
"268 1366 OFFCURVE",
"278 1333 OFFCURVE",
"289 1284 CURVE SMOOTH",
"294 1259 OFFCURVE",
"298 1242 OFFCURVE",
"301 1232 CURVE",
"305 1211 OFFCURVE",
"322 1120 OFFCURVE",
"323 1112 CURVE",
"319 1102 LINE",
"332 1089 OFFCURVE",
"337 1071 OFFCURVE",
"338 1045 CURVE",
"339 1032 OFFCURVE",
"340 1022 OFFCURVE",
"341 1016 CURVE SMOOTH",
"358 920 OFFCURVE",
"385 804 OFFCURVE",
"422 669 CURVE SMOOTH",
"495 398 OFFCURVE",
"516 339 OFFCURVE",
"616 23 CURVE SMOOTH",
"623 0 OFFCURVE",
"630 -18 OFFCURVE",
"638 -29 CURVE",
"638 -47 LINE SMOOTH",
"638 -196 OFFCURVE",
"608 -300 OFFCURVE",
"548 -360 CURVE SMOOTH",
"544 -364 OFFCURVE",
"536 -370 OFFCURVE",
"523 -378 CURVE SMOOTH",
"497 -395 OFFCURVE",
"475 -412 OFFCURVE",
"474 -428 CURVE",
"474 -454 OFFCURVE",
"488 -467 OFFCURVE",
"517 -467 CURVE"
);
}
);
width = 920;
},
{
layerId = "156B637B-193E-48A3-AAC8-7B4A3960F885";
paths = (
{
closed = 1;
nodes = (
"572 -361 OFFCURVE",
"621 -323 OFFCURVE",
"641 -308 CURVE SMOOTH",
"651 -301 OFFCURVE",
"663 -291 OFFCURVE",
"676 -278 CURVE",
"703 -254 OFFCURVE",
"708 -245 OFFCURVE",
"723 -216 CURVE SMOOTH",
"738 -187 OFFCURVE",
"739 -166 OFFCURVE",
"745 -121 CURVE SMOOTH",
"751 -76 OFFCURVE",
"750 -31 OFFCURVE",
"750 42 CURVE SMOOTH",
"750 1444 LINE SMOOTH",
"750 1456 OFFCURVE",
"756 1469 OFFCURVE",
"766 1486 CURVE SMOOTH",
"771 1495 OFFCURVE",
"774 1501 OFFCURVE",
"775 1504 CURVE",
"775 1516 LINE SMOOTH",
"775 1569 OFFCURVE",
"757 1596 OFFCURVE",
"720 1596 CURVE SMOOTH",
"683 1596 OFFCURVE",
"661 1579 OFFCURVE",
"653 1545 CURVE",
"653 939 LINE SMOOTH",
"653 860 OFFCURVE",
"652 741 OFFCURVE",
"649 582 CURVE SMOOTH",
"646 423 OFFCURVE",
"645 304 OFFCURVE",
"645 225 CURVE",
"643 235 LINE SMOOTH",
"637 262 OFFCURVE",
"626 310 OFFCURVE",
"611 377 CURVE SMOOTH",
"580 511 OFFCURVE",
"528 735 OFFCURVE",
"471 947 CURVE SMOOTH",
"414 1158 OFFCURVE",
"355 1356 OFFCURVE",
"300 1475 CURVE SMOOTH",
"273 1534 OFFCURVE",
"250 1564 OFFCURVE",
"231 1564 CURVE SMOOTH",
"201 1564 OFFCURVE",
"186 1530 OFFCURVE",
"186 1462 CURVE SMOOTH",
"186 1449 LINE SMOOTH",
"186 1407 OFFCURVE",
"184 1344 OFFCURVE",
"179 1261 CURVE SMOOTH",
"174 1178 OFFCURVE",
"172 1115 OFFCURVE",
"172 1073 CURVE SMOOTH",
"172 812 LINE SMOOTH",
"172 777 OFFCURVE",
"176 680 OFFCURVE",
"185 521 CURVE SMOOTH",
"194 362 OFFCURVE",
"198 248 OFFCURVE",
"198 177 CURVE SMOOTH",
"198 152 OFFCURVE",
"196 123 OFFCURVE",
"193 91 CURVE SMOOTH",
"190 59 OFFCURVE",
"188 39 OFFCURVE",
"188 30 CURVE SMOOTH",
"188 9 OFFCURVE",
"203 -2 OFFCURVE",
"233 -2 CURVE SMOOTH",
"268 -2 OFFCURVE",
"305 17 OFFCURVE",
"305 42 CURVE SMOOTH",
"305 107 OFFCURVE",
"300 205 OFFCURVE",
"291 334 CURVE SMOOTH",
"281 463 OFFCURVE",
"276 561 OFFCURVE",
"276 626 CURVE SMOOTH",
"276 1298 LINE",
"404 787 OFFCURVE",
"564 215 OFFCURVE",
"648 32 CURVE",
"648 15 OFFCURVE",
"648 -9 OFFCURVE",
"648 -41 CURVE SMOOTH",
"647 -73 OFFCURVE",
"647 -97 OFFCURVE",
"647 -113 CURVE SMOOTH",
"647 -136 OFFCURVE",
"641 -156 OFFCURVE",
"629 -173 CURVE SMOOTH",
"604 -207 OFFCURVE",
"565 -225 OFFCURVE",
"529 -243 CURVE SMOOTH",
"493 -261 OFFCURVE",
"465 -289 OFFCURVE",
"465 -325 CURVE SMOOTH",
"465 -366 OFFCURVE",
"496 -388 OFFCURVE",
"539 -388 CURVE"
);
}
);
width = 952;
}
);
note = Eng;
unicode = 014A;
},
{
glyphname = Nhookleft;
layers = (
{
anchors = (
{
name = bottom;
position = "{389, 0}";
},
{
name = top;
position = "{389, 1544}";
}
);
layerId = "27A8C2A5-6B67-4598-967C-E5EC4FB8AE70";
paths = (
{
closed = 1;
nodes = (
"110 -47 LINE SMOOTH",
"110 -196 OFFCURVE",
"80 -300 OFFCURVE",
"20 -360 CURVE SMOOTH",
"16 -364 OFFCURVE",
"8 -370 OFFCURVE",
"-5 -378 CURVE SMOOTH",
"-31 -394 OFFCURVE",
"-53 -412 OFFCURVE",
"-54 -428 CURVE",
"-54 -454 OFFCURVE",
"-40 -467 OFFCURVE",
"-11 -467 CURVE",
"89 -394 OFFCURVE",
"163 -274 OFFCURVE",
"163 -131 CURVE SMOOTH",
"163 -105 OFFCURVE",
"165 -74 OFFCURVE",
"169 -39 CURVE",
"169 26 OFFCURVE",
"171 179 OFFCURVE",
"168 308 CURVE SMOOTH",
"165 437 OFFCURVE",
"163 535 OFFCURVE",
"163 600 CURVE SMOOTH",
"163 1341 LINE SMOOTH",
"163 1384 OFFCURVE",
"164 1413 OFFCURVE",
"165 1426 CURVE",
"213 1187 OFFCURVE",
"241 1050 OFFCURVE",
"249 1016 CURVE SMOOTH",
"267 941 OFFCURVE",
"351 634 OFFCURVE",
"501 94 CURVE",
"502 89 OFFCURVE",
"504 79 OFFCURVE",
"507 64 CURVE SMOOTH",
"510 48 OFFCURVE",
"512 35 OFFCURVE",
"515 24 CURVE",
"520 2 OFFCURVE",
"537 -23 OFFCURVE",
"558 -23 CURVE SMOOTH",
"593 -23 OFFCURVE",
"610 -3 OFFCURVE",
"610 37 CURVE SMOOTH",
"610 72 OFFCURVE",
"612 126 OFFCURVE",
"615 199 CURVE SMOOTH",
"618 272 OFFCURVE",
"620 325 OFFCURVE",
"620 360 CURVE SMOOTH",
"620 468 OFFCURVE",
"621 629 OFFCURVE",
"623 843 CURVE SMOOTH",
"624 1057 OFFCURVE",
"625 1219 OFFCURVE",
"625 1329 CURVE SMOOTH",
"625 1460 LINE SMOOTH",
"625 1464 OFFCURVE",
"626 1475 OFFCURVE",
"627 1493 CURVE SMOOTH",
"628 1510 OFFCURVE",
"628 1524 OFFCURVE",
"628 1535 CURVE SMOOTH",
"628 1575 OFFCURVE",
"623 1595 OFFCURVE",
"612 1595 CURVE SMOOTH",
"589 1595 OFFCURVE",
"575 1586 OFFCURVE",
"570 1567 CURVE",
"572 1278 LINE",
"572 1243 OFFCURVE",
"572 1190 OFFCURVE",
"571 1120 CURVE SMOOTH",
"570 1049 OFFCURVE",
"569 996 OFFCURVE",
"569 961 CURVE SMOOTH",
"569 882 OFFCURVE",
"568 763 OFFCURVE",
"565 605 CURVE SMOOTH",
"562 446 OFFCURVE",
"561 327 OFFCURVE",
"561 248 CURVE SMOOTH",
"561 202 OFFCURVE",
"557 169 OFFCURVE",
"548 150 CURVE",
"517 243 OFFCURVE",
"482 373 OFFCURVE",
"442 539 CURVE SMOOTH",
"345 901 OFFCURVE",
"296 1087 OFFCURVE",
"294 1096 CURVE SMOOTH",
"283 1142 OFFCURVE",
"267 1214 OFFCURVE",
"246 1313 CURVE SMOOTH",
"225 1411 OFFCURVE",
"211 1478 OFFCURVE",
"202 1513 CURVE SMOOTH",
"197 1532 OFFCURVE",
"172 1552 OFFCURVE",
"155 1552 CURVE SMOOTH",
"118 1552 OFFCURVE",
"100 1544 OFFCURVE",
"100 1509 CURVE SMOOTH",
"100 1504 OFFCURVE",
"100 1497 OFFCURVE",
"101 1488 CURVE SMOOTH",
"102 1478 OFFCURVE",
"102 1471 OFFCURVE",
"102 1466 CURVE SMOOTH",
"102 1423 OFFCURVE",
"103 1359 OFFCURVE",
"104 1273 CURVE SMOOTH",
"105 1187 OFFCURVE",
"105 1122 OFFCURVE",
"105 1079 CURVE SMOOTH",
"105 811 LINE SMOOTH",
"105 732 OFFCURVE",
"106 613 OFFCURVE",
"108 455 CURVE SMOOTH",
"109 296 OFFCURVE",
"110 50 OFFCURVE",
"110 -29 CURVE SMOOTH"
);
}
);
width = 778;
},
{
anchors = (
{
name = bottom;
position = "{422, 0}";
},
{
name = top;
position = "{422, 1552}";
}
);
layerId = "156B637B-193E-48A3-AAC8-7B4A3960F885";
paths = (
{
closed = 1;
nodes = (
"65 -361 OFFCURVE",
"114 -322 OFFCURVE",
"134 -308 CURVE SMOOTH",
"144 -301 OFFCURVE",
"156 -291 OFFCURVE",
"169 -278 CURVE",
"196 -254 OFFCURVE",
"201 -245 OFFCURVE",
"216 -216 CURVE SMOOTH",
"231 -187 OFFCURVE",
"232 -166 OFFCURVE",
"238 -121 CURVE SMOOTH",
"244 -76 OFFCURVE",
"243 -31 OFFCURVE",
"243 42 CURVE SMOOTH",
"243 107 OFFCURVE",
"238 205 OFFCURVE",
"229 334 CURVE SMOOTH",
"219 463 OFFCURVE",
"214 561 OFFCURVE",
"214 626 CURVE SMOOTH",
"214 1298 LINE",
"295 975 OFFCURVE",
"378 673 OFFCURVE",
"461 392 CURVE SMOOTH",
"544 111 OFFCURVE",
"600 -30 OFFCURVE",
"629 -30 CURVE SMOOTH",
"662 -30 OFFCURVE",
"688 20 OFFCURVE",
"688 61 CURVE SMOOTH",
"688 687 LINE SMOOTH",
"688 771 OFFCURVE",
"690 897 OFFCURVE",
"695 1066 CURVE SMOOTH",
"699 1235 OFFCURVE",
"701 1361 OFFCURVE",
"701 1444 CURVE SMOOTH",
"701 1467 OFFCURVE",
"705 1487 OFFCURVE",
"713 1504 CURVE",
"713 1516 LINE SMOOTH",
"713 1569 OFFCURVE",
"695 1596 OFFCURVE",
"658 1596 CURVE SMOOTH",
"621 1596 OFFCURVE",
"599 1579 OFFCURVE",
"591 1545 CURVE",
"591 939 LINE SMOOTH",
"591 860 OFFCURVE",
"590 741 OFFCURVE",
"587 582 CURVE SMOOTH",
"584 423 OFFCURVE",
"583 304 OFFCURVE",
"583 225 CURVE",
"581 235 LINE SMOOTH",
"575 262 OFFCURVE",
"564 310 OFFCURVE",
"549 377 CURVE SMOOTH",
"518 511 OFFCURVE",
"466 735 OFFCURVE",
"409 947 CURVE SMOOTH",
"352 1158 OFFCURVE",
"293 1356 OFFCURVE",
"238 1475 CURVE SMOOTH",
"211 1534 OFFCURVE",
"188 1564 OFFCURVE",
"169 1564 CURVE SMOOTH",
"139 1564 OFFCURVE",
"124 1530 OFFCURVE",
"124 1462 CURVE SMOOTH",
"124 1449 LINE SMOOTH",
"124 1407 OFFCURVE",
"122 1344 OFFCURVE",
"117 1261 CURVE SMOOTH",
"112 1178 OFFCURVE",
"110 1115 OFFCURVE",
"110 1073 CURVE SMOOTH",
"110 812 LINE SMOOTH",
"110 777 OFFCURVE",
"114 680 OFFCURVE",
"123 521 CURVE SMOOTH",
"132 362 OFFCURVE",
"136 248 OFFCURVE",
"136 177 CURVE",
"141 32 LINE",
"141 15 OFFCURVE",
"141 -9 OFFCURVE",
"141 -41 CURVE SMOOTH",
"141 -73 OFFCURVE",
"140 -97 OFFCURVE",
"140 -113 CURVE SMOOTH",
"140 -136 OFFCURVE",
"134 -156 OFFCURVE",
"122 -173 CURVE SMOOTH",
"98 -207 OFFCURVE",
"58 -225 OFFCURVE",
"22 -243 CURVE SMOOTH",
"-14 -261 OFFCURVE",
"-42 -289 OFFCURVE",
"-42 -325 CURVE SMOOTH",
"-42 -366 OFFCURVE",
"-11 -388 OFFCURVE",
"32 -388 CURVE"
);
}
);
width = 843;
}
);
unicode = 019D;
},
{
glyphname = O;
layers = (
{
anchors = (
{
name = bottom;
position = "{378, 0}";
},
{
name = center;
position = "{378, 772}";
},
{
name = ogonek;
position = "{489, 10}";
},
{
name = top;
position = "{328, 1574}";
},
{
name = topleft;
position = "{20, 1544}";
},
{
name = topright;
position = "{445, 1492}";
}
);
layerId = "27A8C2A5-6B67-4598-967C-E5EC4FB8AE70";
paths = (
{
closed = 1;
nodes = (
"460 -43 OFFCURVE",
"502 -18 OFFCURVE",
"531 31 CURVE SMOOTH",
"559 80 OFFCURVE",
"581 128 OFFCURVE",
"594 208 CURVE SMOOTH",
"606 287 OFFCURVE",
"613 335 OFFCURVE",
"617 423 CURVE SMOOTH",
"620 510 OFFCURVE",
"620 539 OFFCURVE",
"620 612 CURVE SMOOTH",
"620 618 LINE SMOOTH",
"620 799 OFFCURVE",
"604 1006 OFFCURVE",
"571 1239 CURVE SMOOTH",
"566 1276 OFFCURVE",
"560 1309 OFFCURVE",
"555 1336 CURVE SMOOTH",
"543 1391 OFFCURVE",
"517 1461 OFFCURVE",
"485 1501 CURVE SMOOTH",
"452 1541 OFFCURVE",
"396 1571 OFFCURVE",
"327 1571 CURVE SMOOTH",
"292 1571 OFFCURVE",
"262 1560 OFFCURVE",
"237 1537 CURVE SMOOTH",
"186 1492 OFFCURVE",
"161 1426 OFFCURVE",
"145 1323 CURVE SMOOTH",
"128 1220 OFFCURVE",
"125 1138 OFFCURVE",
"125 1025 CURVE SMOOTH",
"125 942 LINE SMOOTH",
"125 285 OFFCURVE",
"220 -43 OFFCURVE",
"409 -43 CURVE SMOOTH"
);
},
{
closed = 1;
nodes = (
"378 14 OFFCURVE",
"347 38 OFFCURVE",
"319 86 CURVE SMOOTH",
"262 182 OFFCURVE",
"234 322 OFFCURVE",
"213 484 CURVE SMOOTH",
"192 646 OFFCURVE",
"186 760 OFFCURVE",
"186 831 CURVE SMOOTH",
"186 931 LINE SMOOTH",
"186 994 OFFCURVE",
"187 1038 OFFCURVE",
"192 1139 CURVE SMOOTH",
"197 1239 OFFCURVE",
"212 1314 OFFCURVE",
"233 1393 CURVE SMOOTH",
"253 1472 OFFCURVE",
"290 1518 OFFCURVE",
"337 1518 CURVE SMOOTH",
"390 1518 OFFCURVE",
"436 1479 OFFCURVE",
"465 1408 CURVE SMOOTH",
"494 1336 OFFCURVE",
"519 1261 OFFCURVE",
"532 1154 CURVE SMOOTH",
"544 1046 OFFCURVE",
"553 972 OFFCURVE",
"557 867 CURVE SMOOTH",
"560 762 OFFCURVE",
"560 727 OFFCURVE",
"560 662 CURVE SMOOTH",
"560 653 LINE SMOOTH",
"560 594 OFFCURVE",
"559 548 OFFCURVE",
"554 439 CURVE SMOOTH",
"549 330 OFFCURVE",
"535 245 OFFCURVE",
"515 157 CURVE SMOOTH",
"495 68 OFFCURVE",
"458 14 OFFCURVE",
"413 14 CURVE SMOOTH"
);
}
);
width = 755;
},
{
anchors = (
{
name = bottom;
position = "{364, 0}";
},
{
name = center;
position = "{364, 776}";
},
{
name = ogonek;
position = "{515, 10}";
},
{
name = top;
position = "{314, 1582}";
},
{
name = topleft;
position = "{20, 1552}";
},
{
name = topright;
position = "{383, 1522}";
}
);
layerId = "156B637B-193E-48A3-AAC8-7B4A3960F885";
paths = (
{
closed = 1;
nodes = (
"428 -57 OFFCURVE",
"463 -41 OFFCURVE",
"494 -9 CURVE SMOOTH",
"557 54 OFFCURVE",
"587 143 OFFCURVE",
"587 215 CURVE SMOOTH",
"587 267 OFFCURVE",
"591 312 OFFCURVE",
"600 350 CURVE",
"600 359 LINE SMOOTH",
"600 387 OFFCURVE",
"603 430 OFFCURVE",
"609 487 CURVE SMOOTH",
"615 544 OFFCURVE",
"618 588 OFFCURVE",
"618 618 CURVE SMOOTH",
"618 736 LINE SMOOTH",
"618 836 OFFCURVE",
"616 901 OFFCURVE",
"611 1009 CURVE SMOOTH",
"606 1117 OFFCURVE",
"593 1192 OFFCURVE",
"574 1285 CURVE SMOOTH",
"554 1378 OFFCURVE",
"522 1442 OFFCURVE",
"481 1499 CURVE SMOOTH",
"440 1555 OFFCURVE",
"380 1585 OFFCURVE",
"309 1585 CURVE SMOOTH",
"282 1585 OFFCURVE",
"258 1579 OFFCURVE",
"236 1568 CURVE",
"192 1544 OFFCURVE",
"164 1507 OFFCURVE",
"142 1449 CURVE SMOOTH",
"120 1391 OFFCURVE",
"107 1333 OFFCURVE",
"100 1256 CURVE SMOOTH",
"92 1179 OFFCURVE",
"90 1118 OFFCURVE",
"90 1038 CURVE SMOOTH",
"90 1006 OFFCURVE",
"91 963 OFFCURVE",
"92 909 CURVE SMOOTH",
"93 855 OFFCURVE",
"93 818 OFFCURVE",
"93 799 CURVE SMOOTH",
"93 765 OFFCURVE",
"94 729 OFFCURVE",
"95 691 CURVE SMOOTH",
"98 615 OFFCURVE",
"108 486 OFFCURVE",
"125 382 CURVE SMOOTH",
"141 277 OFFCURVE",
"173 158 OFFCURVE",
"213 79 CURVE SMOOTH",
"253 -1 OFFCURVE",
"316 -57 OFFCURVE",
"391 -57 CURVE SMOOTH"
);
},
{
closed = 1;
nodes = (
"364 55 OFFCURVE",
"335 79 OFFCURVE",
"310 126 CURVE SMOOTH",
"259 220 OFFCURVE",
"232 359 OFFCURVE",
"212 515 CURVE SMOOTH",
"191 671 OFFCURVE",
"185 787 OFFCURVE",
"185 852 CURVE SMOOTH",
"185 861 LINE SMOOTH",
"185 905 OFFCURVE",
"186 931 OFFCURVE",
"188 1006 CURVE SMOOTH",
"190 1081 OFFCURVE",
"195 1136 OFFCURVE",
"203 1213 CURVE SMOOTH",
"210 1289 OFFCURVE",
"225 1345 OFFCURVE",
"243 1397 CURVE SMOOTH",
"261 1448 OFFCURVE",
"287 1477 OFFCURVE",
"319 1477 CURVE SMOOTH",
"367 1477 OFFCURVE",
"409 1438 OFFCURVE",
"437 1368 CURVE SMOOTH",
"464 1298 OFFCURVE",
"485 1221 OFFCURVE",
"498 1118 CURVE SMOOTH",
"510 1015 OFFCURVE",
"518 938 OFFCURVE",
"522 842 CURVE SMOOTH",
"525 745 OFFCURVE",
"525 706 OFFCURVE",
"525 653 CURVE SMOOTH",
"525 615 OFFCURVE",
"524 570 OFFCURVE",
"521 517 CURVE SMOOTH",
"515 412 OFFCURVE",
"503 235 OFFCURVE",
"465 132 CURVE SMOOTH",
"446 81 OFFCURVE",
"422 55 OFFCURVE",
"395 55 CURVE SMOOTH"
);
}
);
width = 728;
}
);
note = O;
unicode = 004F;
},
{
glyphname = Ohorn;
layers = (
{
components = (
{
name = O;
},
{
name = horncomb.case;
transform = "{1, 0, 0, 1, 293, 245}";
}
);
layerId = "27A8C2A5-6B67-4598-967C-E5EC4FB8AE70";
width = 755;
},
{
anchors = (
{
name = bottom;
position = "{381, 0}";
},
{
name = top;
position = "{311, 1622}";
}
);
components = (
{
name = O;
}
);
layerId = "156B637B-193E-48A3-AAC8-7B4A3960F885";
paths = (
{
closed = 1;
nodes = (
"721 1718 OFFCURVE",
"698 1746 OFFCURVE",
"642 1746 CURVE SMOOTH",
"602 1746 OFFCURVE",
"571 1735 OFFCURVE",
"571 1710 CURVE SMOOTH",
"571 1691 OFFCURVE",
"588 1664 OFFCURVE",
"588 1632 CURVE SMOOTH",
"588 1595 OFFCURVE",
"575 1566 OFFCURVE",
"495 1566 CURVE SMOOTH",
"476 1566 OFFCURVE",
"396 1573 OFFCURVE",
"368 1579 CURVE",
"368 1496 LINE",
"388 1488 OFFCURVE",
"479 1479 OFFCURVE",
"515 1479 CURVE SMOOTH",
"612 1479 OFFCURVE",
"721 1545 OFFCURVE",
"721 1663 CURVE SMOOTH"
);
}
);
width = 761;
}
);
unicode = 01A0;
},
{
glyphname = Oslash;
layers = (
{
anchors = (
{
name = bottom;
position = "{326, 0}";
},
{
name = top;
position = "{226, 1604}";
}
);
layerId = "27A8C2A5-6B67-4598-967C-E5EC4FB8AE70";
paths = (
{
closed = 1;
nodes = (
"184 -133 OFFCURVE",
"202 -39 OFFCURVE",
"211 20 CURVE",
"213 20 LINE",
"233 -7 OFFCURVE",
"267 -20 OFFCURVE",
"314 -20 CURVE SMOOTH",
"362 -20 OFFCURVE",
"403 -2 OFFCURVE",
"431 34 CURVE SMOOTH",
"458 69 OFFCURVE",
"479 104 OFFCURVE",
"491 160 CURVE SMOOTH",
"503 216 OFFCURVE",
"510 252 OFFCURVE",
"514 313 CURVE SMOOTH",
"517 373 OFFCURVE",
"517 395 OFFCURVE",
"517 444 CURVE SMOOTH",
"517 487 OFFCURVE",
"516 551 OFFCURVE",
"514 637 CURVE SMOOTH",
"511 723 OFFCURVE",
"510 788 OFFCURVE",
"510 831 CURVE",
"506 838 LINE",
"506 850 LINE SMOOTH",
"506 891 OFFCURVE",
"501 954 OFFCURVE",
"491 1039 CURVE SMOOTH",
"481 1124 OFFCURVE",
"476 1186 OFFCURVE",
"476 1227 CURVE",
"480 1229 LINE",
"480 1283 OFFCURVE",
"472 1329 OFFCURVE",
"457 1366 CURVE",
"456 1369 OFFCURVE",
"452 1374 OFFCURVE",
"447 1383 CURVE",
"435 1400 OFFCURVE",
"429 1414 OFFCURVE",
"426 1427 CURVE",
"428 1432 LINE",
"408 1455 OFFCURVE",
"398 1474 OFFCURVE",
"398 1491 CURVE",
"441 1739 LINE",
"443 1798 LINE",
"406 1798 LINE",
"405 1791 OFFCURVE",
"398 1754 OFFCURVE",
"387 1689 CURVE SMOOTH",
"376 1623 OFFCURVE",
"364 1573 OFFCURVE",
"353 1540 CURVE",
"342 1550 LINE",
"334 1546 LINE",
"329 1546 OFFCURVE",
"319 1550 OFFCURVE",
"306 1558 CURVE",
"293 1565 OFFCURVE",
"282 1569 OFFCURVE",
"275 1569 CURVE SMOOTH",
"175 1569 OFFCURVE",
"125 1406 OFFCURVE",
"125 1081 CURVE SMOOTH",
"125 952 LINE SMOOTH",
"125 619 OFFCURVE",
"139 363 OFFCURVE",
"168 184 CURVE SMOOTH",
"169 177 OFFCURVE",
"173 166 OFFCURVE",
"179 150 CURVE",
"184 133 OFFCURVE",
"187 120 OFFCURVE",
"187 111 CURVE",
"177 43 OFFCURVE",
"167 -16 OFFCURVE",
"157 -66 CURVE SMOOTH",
"136 -167 OFFCURVE",
"128 -196 OFFCURVE",
"127 -240 CURVE",
"158 -264 LINE"
);
},
{
closed = 1;
nodes = (
"265 23 OFFCURVE",
"240 51 OFFCURVE",
"240 119 CURVE SMOOTH",
"240 132 OFFCURVE",
"245 164 OFFCURVE",
"254 215 CURVE SMOOTH",
"281 352 OFFCURVE",
"305 552 OFFCURVE",
"328 817 CURVE SMOOTH",
"350 1082 OFFCURVE",
"371 1272 OFFCURVE",
"390 1389 CURVE",
"439 1292 OFFCURVE",
"463 962 OFFCURVE",
"463 399 CURVE SMOOTH",
"463 148 OFFCURVE",
"419 23 OFFCURVE",
"330 23 CURVE SMOOTH"
);
},
{
closed = 1;
nodes = (
"211 322 OFFCURVE",
"207 394 OFFCURVE",
"199 490 CURVE SMOOTH",
"191 586 OFFCURVE",
"187 658 OFFCURVE",
"187 705 CURVE",
"174 734 OFFCURVE",
"168 778 OFFCURVE",
"168 839 CURVE SMOOTH",
"168 852 LINE SMOOTH",
"168 1261 OFFCURVE",
"189 1479 OFFCURVE",
"232 1505 CURVE",
"244 1501 LINE",
"245 1502 OFFCURVE",
"249 1503 OFFCURVE",
"254 1505 CURVE SMOOTH",
"259 1507 OFFCURVE",
"264 1509 OFFCURVE",
"269 1511 CURVE",
"273 1512 OFFCURVE",
"276 1513 OFFCURVE",
"277 1513 CURVE SMOOTH",
"310 1513 OFFCURVE",
"342 1489 OFFCURVE",
"342 1456 CURVE SMOOTH",
"342 1409 OFFCURVE",
"336 1361 OFFCURVE",
"328 1299 CURVE SMOOTH",
"323 1268 OFFCURVE",
"320 1244 OFFCURVE",
"318 1227 CURVE",
"317 1212 OFFCURVE",
"312 1166 OFFCURVE",
"305 1089 CURVE SMOOTH",
"298 1011 OFFCURVE",
"290 931 OFFCURVE",
"282 848 CURVE SMOOTH",
"265 682 OFFCURVE",
"246 489 OFFCURVE",
"230 371 CURVE SMOOTH",
"221 312 OFFCURVE",
"215 279 OFFCURVE",
"211 274 CURVE"
);
}
);
width = 652;
},
{
anchors = (
{
name = bottom;
position = "{366, 0}";
},
{
name = top;
position = "{86, 1572}";
}
);
layerId = "156B637B-193E-48A3-AAC8-7B4A3960F885";
paths = (
{
closed = 1;
nodes = (
"240 47 LINE",
"284 -22 OFFCURVE",
"327 -57 OFFCURVE",
"391 -57 CURVE SMOOTH",
"428 -57 OFFCURVE",
"463 -41 OFFCURVE",
"494 -9 CURVE SMOOTH",
"557 54 OFFCURVE",
"587 143 OFFCURVE",
"587 215 CURVE SMOOTH",
"587 267 OFFCURVE",
"591 312 OFFCURVE",
"600 350 CURVE",
"600 359 LINE SMOOTH",
"600 387 OFFCURVE",
"603 430 OFFCURVE",
"609 487 CURVE SMOOTH",
"615 544 OFFCURVE",
"618 588 OFFCURVE",
"618 618 CURVE SMOOTH",
"618 629 OFFCURVE",
"618 648 OFFCURVE",
"619 674 CURVE",
"619 699 OFFCURVE",
"619 719 OFFCURVE",
"619 734 CURVE SMOOTH",
"619 883 OFFCURVE",
"616 983 OFFCURVE",
"601 1131 CURVE SMOOTH",
"585 1279 OFFCURVE",
"550 1401 OFFCURVE",
"495 1481 CURVE",
"559 1799 LINE",
"480 1799 LINE",
"435 1545 LINE",
"399 1572 OFFCURVE",
"357 1585 OFFCURVE",
"309 1585 CURVE SMOOTH",
"282 1585 OFFCURVE",
"258 1579 OFFCURVE",
"236 1568 CURVE",
"192 1544 OFFCURVE",
"164 1506 OFFCURVE",
"142 1449 CURVE SMOOTH",
"120 1392 OFFCURVE",
"107 1334 OFFCURVE",
"100 1257 CURVE SMOOTH",
"92 1180 OFFCURVE",
"90 1119 OFFCURVE",
"90 1039 CURVE SMOOTH",
"90 1006 OFFCURVE",
"91 963 OFFCURVE",
"92 909 CURVE SMOOTH",
"93 855 OFFCURVE",
"93 818 OFFCURVE",
"93 799 CURVE SMOOTH",
"93 604 OFFCURVE",
"114 327 OFFCURVE",
"185 143 CURVE",
"123 -224 LINE",
"168 -280 LINE"
);
},
{
closed = 1;
nodes = (
"344 55 OFFCURVE",
"301 116 OFFCURVE",
"266 239 CURVE",
"461 1299 LINE",
"504 1153 OFFCURVE",
"525 938 OFFCURVE",
"525 653 CURVE SMOOTH",
"525 615 OFFCURVE",
"524 570 OFFCURVE",
"521 517 CURVE SMOOTH",
"515 412 OFFCURVE",
"503 235 OFFCURVE",
"465 132 CURVE SMOOTH",
"446 81 OFFCURVE",
"422 55 OFFCURVE",
"395 55 CURVE SMOOTH"
);
},
{
closed = 1;
nodes = (
"201 560 OFFCURVE",
"185 763 OFFCURVE",
"185 852 CURVE SMOOTH",
"185 861 LINE SMOOTH",
"185 905 OFFCURVE",
"186 931 OFFCURVE",
"188 1006 CURVE SMOOTH",
"190 1081 OFFCURVE",
"195 1136 OFFCURVE",
"203 1213 CURVE SMOOTH",
"210 1289 OFFCURVE",
"225 1345 OFFCURVE",
"243 1397 CURVE SMOOTH",
"261 1448 OFFCURVE",
"287 1477 OFFCURVE",
"319 1477 CURVE SMOOTH",
"354 1477 OFFCURVE",
"385 1456 OFFCURVE",
"412 1415 CURVE",
"230 396 LINE"
);
}
);
width = 729;
}
);
note = Oslash;
unicode = 00D8;
},
{
glyphname = OE;
layers = (
{
layerId = "27A8C2A5-6B67-4598-967C-E5EC4FB8AE70";
paths = (
{
closed = 1;
nodes = (
"828 -20 OFFCURVE",
"880 -19 OFFCURVE",
"949 -17 CURVE SMOOTH",
"1018 -15 OFFCURVE",
"1069 -14 OFFCURVE",
"1104 -14 CURVE",
"1116 4 LINE",
"1116 30 OFFCURVE",
"1069 43 OFFCURVE",
"975 43 CURVE SMOOTH",
"955 43 OFFCURVE",
"927 42 OFFCURVE",
"890 40 CURVE SMOOTH",
"853 37 OFFCURVE",
"829 36 OFFCURVE",
"817 35 CURVE",
"817 116 OFFCURVE",
"815 238 OFFCURVE",
"810 401 CURVE SMOOTH",
"805 563 OFFCURVE",
"803 685 OFFCURVE",
"803 766 CURVE SMOOTH",
"803 778 OFFCURVE",
"823 784 OFFCURVE",
"862 784 CURVE SMOOTH",
"873 784 OFFCURVE",
"888 783 OFFCURVE",
"909 781 CURVE SMOOTH",
"930 779 OFFCURVE",
"945 778 OFFCURVE",
"955 778 CURVE SMOOTH",
"980 778 OFFCURVE",
"987 786 OFFCURVE",
"987 811 CURVE",
"974 828 OFFCURVE",
"958 836 OFFCURVE",
"938 836 CURVE SMOOTH",
"932 836 OFFCURVE",
"923 835 OFFCURVE",
"912 834 CURVE",
"900 832 OFFCURVE",
"891 831 OFFCURVE",
"885 831 CURVE",
"805 834 LINE",
"798 857 OFFCURVE",
"795 885 OFFCURVE",
"795 918 CURVE SMOOTH",
"795 930 OFFCURVE",
"796 948 OFFCURVE",
"797 971 CURVE SMOOTH",
"798 994 OFFCURVE",
"799 1012 OFFCURVE",
"799 1024 CURVE SMOOTH",
"799 1075 OFFCURVE",
"794 1151 OFFCURVE",
"785 1252 CURVE SMOOTH",
"775 1353 OFFCURVE",
"770 1428 OFFCURVE",
"770 1479 CURVE",
"797 1479 OFFCURVE",
"837 1478 OFFCURVE",
"891 1475 CURVE SMOOTH",
"945 1472 OFFCURVE",
"985 1470 OFFCURVE",
"1012 1470 CURVE SMOOTH",
"1037 1470 OFFCURVE",
"1049 1478 OFFCURVE",
"1049 1493 CURVE SMOOTH",
"1049 1504 OFFCURVE",
"1030 1522 OFFCURVE",
"1018 1530 CURVE",
"1013 1530 OFFCURVE",
"1006 1529 OFFCURVE",
"996 1528 CURVE SMOOTH",
"985 1527 OFFCURVE",
"978 1526 OFFCURVE",
"973 1526 CURVE SMOOTH",
"822 1526 LINE SMOOTH",
"813 1526 OFFCURVE",
"799 1528 OFFCURVE",
"782 1532 CURVE SMOOTH",
"764 1536 OFFCURVE",
"751 1538 OFFCURVE",
"742 1538 CURVE",
"711 1495 LINE",
"717 1473 LINE",
"669 1526 OFFCURVE",
"571 1552 OFFCURVE",
"422 1552 CURVE SMOOTH",
"343 1552 OFFCURVE",
"278 1508 OFFCURVE",
"236 1440 CURVE SMOOTH",
"194 1371 OFFCURVE",
"163 1289 OFFCURVE",
"147 1198 CURVE SMOOTH",
"131 1106 OFFCURVE",
"125 1033 OFFCURVE",
"125 965 CURVE SMOOTH",
"125 919 OFFCURVE",
"127 849 OFFCURVE",
"130 755 CURVE SMOOTH",
"133 661 OFFCURVE",
"135 591 OFFCURVE",
"135 545 CURVE SMOOTH",
"135 396 OFFCURVE",
"177 264 OFFCURVE",
"255 167 CURVE SMOOTH",
"333 70 OFFCURVE",
"458 10 OFFCURVE",
"611 10 CURVE SMOOTH",
"629 10 OFFCURVE",
"654 15 OFFCURVE",
"687 25 CURVE SMOOTH",
"719 35 OFFCURVE",
"742 41 OFFCURVE",
"756 43 CURVE",
"744 10 LINE",
"746 -10 OFFCURVE",
"762 -20 OFFCURVE",
"793 -20 CURVE SMOOTH"
);
},
{
closed = 1;
nodes = (
"463 72 OFFCURVE",
"376 114 OFFCURVE",
"299 197 CURVE",
"277 200 OFFCURVE",
"257 226 OFFCURVE",
"240 274 CURVE SMOOTH",
"223 321 OFFCURVE",
"210 378 OFFCURVE",
"202 443 CURVE SMOOTH",
"186 574 OFFCURVE",
"178 682 OFFCURVE",
"178 741 CURVE",
"174 748 LINE",
"175 765 OFFCURVE",
"176 789 OFFCURVE",
"176 821 CURVE SMOOTH",
"176 836 OFFCURVE",
"176 860 OFFCURVE",
"175 893 CURVE SMOOTH",
"174 926 OFFCURVE",
"174 950 OFFCURVE",
"174 967 CURVE SMOOTH",
"174 1039 OFFCURVE",
"178 1101 OFFCURVE",
"191 1186 CURVE SMOOTH",
"204 1271 OFFCURVE",
"232 1340 OFFCURVE",
"272 1401 CURVE SMOOTH",
"311 1461 OFFCURVE",
"377 1497 OFFCURVE",
"457 1497 CURVE SMOOTH",
"565 1497 OFFCURVE",
"671 1470 OFFCURVE",
"723 1401 CURVE",
"723 1374 OFFCURVE",
"725 1332 OFFCURVE",
"730 1277 CURVE SMOOTH",
"734 1222 OFFCURVE",
"736 1180 OFFCURVE",
"736 1153 CURVE SMOOTH",
"736 1042 OFFCURVE",
"741 875 OFFCURVE",
"750 654 CURVE SMOOTH",
"759 432 OFFCURVE",
"764 265 OFFCURVE",
"764 154 CURVE SMOOTH",
"764 119 OFFCURVE",
"729 95 OFFCURVE",
"681 85 CURVE SMOOTH",
"632 75 OFFCURVE",
"596 72 OFFCURVE",
"561 72 CURVE SMOOTH"
);
}
);
width = 1136;
},
{
anchors = (
{
name = bottom;
position = "{546, 0}";
},
{
name = top;
position = "{718, 1552}";
}
);
layerId = "156B637B-193E-48A3-AAC8-7B4A3960F885";
paths = (
{
closed = 1;
nodes = (
"818 -22 OFFCURVE",
"872 -21 OFFCURVE",
"944 -19 CURVE SMOOTH",
"1016 -17 OFFCURVE",
"1070 -16 OFFCURVE",
"1106 -16 CURVE",
"1129 18 LINE",
"1129 25 LINE SMOOTH",
"1129 65 OFFCURVE",
"1084 85 OFFCURVE",
"993 85 CURVE SMOOTH",
"964 85 LINE",
"960 87 LINE",
"940 87 OFFCURVE",
"896 85 OFFCURVE",
"827 80 CURVE",
"827 152 OFFCURVE",
"825 263 OFFCURVE",
"820 414 CURVE SMOOTH",
"815 565 OFFCURVE",
"813 679 OFFCURVE",
"813 757 CURVE",
"819 758 OFFCURVE",
"828 758 OFFCURVE",
"841 758 CURVE SMOOTH",
"852 758 OFFCURVE",
"869 757 OFFCURVE",
"891 756 CURVE SMOOTH",
"913 755 OFFCURVE",
"930 754 OFFCURVE",
"941 754 CURVE SMOOTH",
"978 754 OFFCURVE",
"997 775 OFFCURVE",
"997 818 CURVE",
"978 843 OFFCURVE",
"954 855 OFFCURVE",
"927 855 CURVE SMOOTH",
"923 855 OFFCURVE",
"916 855 OFFCURVE",
"906 855 CURVE",
"896 854 OFFCURVE",
"888 854 OFFCURVE",
"882 854 CURVE SMOOTH",
"873 854 LINE",
"811 856 LINE",
"808 872 OFFCURVE",
"806 891 OFFCURVE",
"806 913 CURVE SMOOTH",
"806 924 OFFCURVE",
"807 942 OFFCURVE",
"808 965 CURVE SMOOTH",
"809 988 OFFCURVE",
"810 1006 OFFCURVE",
"810 1018 CURVE SMOOTH",
"810 1065 OFFCURVE",
"805 1134 OFFCURVE",
"796 1226 CURVE SMOOTH",
"787 1318 OFFCURVE",
"782 1387 OFFCURVE",
"782 1433 CURVE",
"803 1433 OFFCURVE",
"839 1432 OFFCURVE",
"888 1430 CURVE SMOOTH",
"937 1427 OFFCURVE",
"974 1426 OFFCURVE",
"1000 1426 CURVE SMOOTH",
"1031 1426 OFFCURVE",
"1060 1442 OFFCURVE",
"1060 1470 CURVE SMOOTH",
"1060 1492 OFFCURVE",
"1044 1512 OFFCURVE",
"1013 1529 CURVE",
"1009 1529 OFFCURVE",
"1001 1528 OFFCURVE",
"990 1527 CURVE SMOOTH",
"978 1526 OFFCURVE",
"969 1525 OFFCURVE",
"962 1525 CURVE SMOOTH",
"810 1525 LINE SMOOTH",
"799 1525 OFFCURVE",
"784 1527 OFFCURVE",
"764 1531 CURVE SMOOTH",
"744 1535 OFFCURVE",
"729 1537 OFFCURVE",
"718 1537 CURVE",
"688 1494 LINE",
"615 1541 OFFCURVE",
"528 1551 OFFCURVE",
"411 1551 CURVE SMOOTH",
"376 1551 OFFCURVE",
"345 1545 OFFCURVE",
"316 1532 CURVE SMOOTH",
"259 1507 OFFCURVE",
"219 1471 OFFCURVE",
"186 1408 CURVE SMOOTH",
"153 1344 OFFCURVE",
"134 1293 OFFCURVE",
"119 1210 CURVE SMOOTH",
"104 1126 OFFCURVE",
"98 1078 OFFCURVE",
"94 992 CURVE SMOOTH",
"90 906 OFFCURVE",
"90 878 OFFCURVE",
"90 809 CURVE SMOOTH",
"90 762 OFFCURVE",
"91 720 OFFCURVE",
"92 684 CURVE SMOOTH",
"94 611 OFFCURVE",
"102 507 OFFCURVE",
"116 436 CURVE SMOOTH",
"130 365 OFFCURVE",
"155 279 OFFCURVE",
"191 220 CURVE SMOOTH",
"226 161 OFFCURVE",
"278 102 OFFCURVE",
"343 67 CURVE SMOOTH",
"407 32 OFFCURVE",
"496 9 OFFCURVE",
"600 9 CURVE SMOOTH",
"622 9 OFFCURVE",
"658 17 OFFCURVE",
"709 33 CURVE",
"708 26 LINE",
"708 -3 OFFCURVE",
"750 -22 OFFCURVE",
"782 -22 CURVE SMOOTH"
);
},
{
closed = 1;
nodes = (
"451 112 OFFCURVE",
"359 157 OFFCURVE",
"296 232 CURVE",
"273 234 OFFCURVE",
"255 260 OFFCURVE",
"241 309 CURVE SMOOTH",
"227 358 OFFCURVE",
"218 412 OFFCURVE",
"214 471 CURVE SMOOTH",
"206 588 OFFCURVE",
"197 726 OFFCURVE",
"184 751 CURVE",
"185 766 OFFCURVE",
"185 789 OFFCURVE",
"185 820 CURVE SMOOTH",
"185 835 OFFCURVE",
"185 857 OFFCURVE",
"185 888 CURVE SMOOTH",
"184 919 OFFCURVE",
"184 942 OFFCURVE",
"184 957 CURVE SMOOTH",
"184 1024 OFFCURVE",
"188 1080 OFFCURVE",
"200 1160 CURVE SMOOTH",
"211 1239 OFFCURVE",
"236 1302 OFFCURVE",
"273 1359 CURVE SMOOTH",
"309 1415 OFFCURVE",
"368 1449 OFFCURVE",
"443 1449 CURVE SMOOTH",
"558 1449 OFFCURVE",
"639 1423 OFFCURVE",
"686 1371 CURVE",
"688 1253 OFFCURVE",
"695 1059 OFFCURVE",
"708 789 CURVE SMOOTH",
"721 519 OFFCURVE",
"727 312 OFFCURVE",
"727 168 CURVE SMOOTH",
"727 154 OFFCURVE",
"714 143 OFFCURVE",
"687 134 CURVE SMOOTH",
"633 116 OFFCURVE",
"580 112 OFFCURVE",
"547 112 CURVE SMOOTH"
);
}
);
width = 1166;
}
);
leftMetricsKey = O;
note = OE;
unicode = 0152;
},
{
glyphname = P;
layers = (
{
anchors = (
{
name = bottom;
position = "{283, 0}";
},
{
name = top;
position = "{213, 1544}";
}
);
layerId = "27A8C2A5-6B67-4598-967C-E5EC4FB8AE70";
paths = (
{
closed = 1;
nodes = (
"218 -12 OFFCURVE",
"226 11 OFFCURVE",
"226 51 CURVE SMOOTH",
"226 126 OFFCURVE",
"223 239 OFFCURVE",
"218 388 CURVE SMOOTH",
"212 537 OFFCURVE",
"209 650 OFFCURVE",
"209 725 CURVE",
"260 736 OFFCURVE",
"306 769 OFFCURVE",
"347 824 CURVE SMOOTH",
"428 932 OFFCURVE",
"465 1070 OFFCURVE",
"465 1186 CURVE SMOOTH",
"465 1278 OFFCURVE",
"440 1368 OFFCURVE",
"393 1442 CURVE SMOOTH",
"346 1516 OFFCURVE",
"265 1565 OFFCURVE",
"168 1565 CURVE SMOOTH",
"161 1565 OFFCURVE",
"157 1565 OFFCURVE",
"153 1563 CURVE",
"148 1561 OFFCURVE",
"146 1559 OFFCURVE",
"143 1555 CURVE",
"139 1551 OFFCURVE",
"138 1550 OFFCURVE",
"135 1544 CURVE",
"133 1541 OFFCURVE",
"131 1538 OFFCURVE",
"130 1536 CURVE",
"130 1471 OFFCURVE",
"133 1381 OFFCURVE",
"138 1266 CURVE SMOOTH",
"145 1079 OFFCURVE",
"148 910 OFFCURVE",
"148 758 CURVE SMOOTH",
"148 721 OFFCURVE",
"148 665 OFFCURVE",
"149 592 CURVE SMOOTH",
"150 519 OFFCURVE",
"150 463 OFFCURVE",
"150 426 CURVE SMOOTH",
"150 385 OFFCURVE",
"151 323 OFFCURVE",
"153 242 CURVE SMOOTH",
"155 161 OFFCURVE",
"156 100 OFFCURVE",
"156 59 CURVE SMOOTH",
"156 12 OFFCURVE",
"164 -12 OFFCURVE",
"181 -12 CURVE SMOOTH"
);
},
{
closed = 1;
nodes = (
"205 805 LINE",
"205 883 OFFCURVE",
"201 1000 OFFCURVE",
"193 1155 CURVE SMOOTH",
"185 1310 OFFCURVE",
"181 1427 OFFCURVE",
"181 1505 CURVE",
"266 1505 OFFCURVE",
"330 1462 OFFCURVE",
"362 1395 CURVE SMOOTH",
"394 1328 OFFCURVE",
"408 1258 OFFCURVE",
"408 1182 CURVE SMOOTH",
"408 1048 OFFCURVE",
"364 937 OFFCURVE",
"275 848 CURVE SMOOTH",
"272 845 OFFCURVE",
"268 840 OFFCURVE",
"261 833 CURVE SMOOTH",
"254 826 OFFCURVE",
"249 820 OFFCURVE",
"246 817 CURVE",
"238 810 OFFCURVE",
"224 802 OFFCURVE",
"209 801 CURVE"
);
}
);
width = 565;
},
{
anchors = (
{
name = bottom;
position = "{295, 0}";
},
{
name = top;
position = "{295, 1552}";
}
);
layerId = "156B637B-193E-48A3-AAC8-7B4A3960F885";
paths = (
{
closed = 1;
nodes = (
"240 -11 OFFCURVE",
"260 25 OFFCURVE",
"260 74 CURVE SMOOTH",
"260 147 OFFCURVE",
"257 255 OFFCURVE",
"252 397 CURVE SMOOTH",
"247 538 OFFCURVE",
"244 643 OFFCURVE",
"244 712 CURVE",
"412 803 OFFCURVE",
"500 975 OFFCURVE",
"500 1175 CURVE SMOOTH",
"500 1272 OFFCURVE",
"471 1366 OFFCURVE",
"419 1442 CURVE SMOOTH",
"367 1517 OFFCURVE",
"280 1566 OFFCURVE",
"179 1566 CURVE SMOOTH",
"148 1566 OFFCURVE",
"121 1551 OFFCURVE",
"100 1520 CURVE",
"135 1354 OFFCURVE",
"153 1110 OFFCURVE",
"153 789 CURVE SMOOTH",
"153 696 OFFCURVE",
"151 567 OFFCURVE",
"148 401 CURVE SMOOTH",
"145 234 OFFCURVE",
"143 120 OFFCURVE",
"143 58 CURVE SMOOTH",
"143 23 OFFCURVE",
"159 -11 OFFCURVE",
"192 -11 CURVE SMOOTH"
);
},
{
closed = 1;
nodes = (
"238 883 OFFCURVE",
"234 991 OFFCURVE",
"227 1135 CURVE SMOOTH",
"220 1279 OFFCURVE",
"216 1387 OFFCURVE",
"215 1459 CURVE",
"241 1440 OFFCURVE",
"259 1427 OFFCURVE",
"269 1420 CURVE SMOOTH",
"289 1405 OFFCURVE",
"333 1371 OFFCURVE",
"345 1355 CURVE",
"356 1338 OFFCURVE",
"379 1306 OFFCURVE",
"384 1278 CURVE SMOOTH",
"389 1249 OFFCURVE",
"395 1210 OFFCURVE",
"395 1159 CURVE SMOOTH",
"395 1158 LINE SMOOTH",
"395 1017 OFFCURVE",
"346 911 OFFCURVE",
"239 811 CURVE"
);
}
);
width = 590;
}
);
note = P;
unicode = 0050;
},
{
glyphname = Thorn;
layers = (
{
layerId = "27A8C2A5-6B67-4598-967C-E5EC4FB8AE70";
paths = (
{
closed = 1;
nodes = (
"239 -12 OFFCURVE",
"247 11 OFFCURVE",
"247 51 CURVE SMOOTH",
"247 126 OFFCURVE",
"245 189 OFFCURVE",
"242 239 CURVE SMOOTH",
"238 289 OFFCURVE",
"236 352 OFFCURVE",
"236 427 CURVE",
"299 441 OFFCURVE",
"335 452 OFFCURVE",
"346 459 CURVE SMOOTH",
"351 462 OFFCURVE",
"359 467 OFFCURVE",
"372 473 CURVE",
"384 478 OFFCURVE",
"393 483 OFFCURVE",
"399 488 CURVE SMOOTH",
"488 559 OFFCURVE",
"552 755 OFFCURVE",
"552 887 CURVE SMOOTH",
"552 924 OFFCURVE",
"549 960 OFFCURVE",
"542 994 CURVE SMOOTH",
"528 1062 OFFCURVE",
"492 1133 OFFCURVE",
"440 1182 CURVE SMOOTH",
"388 1231 OFFCURVE",
"304 1265 OFFCURVE",
"200 1266 CURVE",
"200 1268 LINE",
"199 1287 OFFCURVE",
"197 1332 OFFCURVE",
"196 1404 CURVE SMOOTH",
"194 1476 OFFCURVE",
"192 1521 OFFCURVE",
"191 1540 CURVE",
"191 1539 OFFCURVE",
"189 1540 OFFCURVE",
"186 1541 CURVE",
"178 1543 OFFCURVE",
"165 1546 OFFCURVE",
"157 1546 CURVE",
"147 1543 OFFCURVE",
"142 1538 OFFCURVE",
"142 1530 CURVE",
"143 1525 LINE",
"143 1522 OFFCURVE",
"143 1518 OFFCURVE",
"143 1515 CURVE SMOOTH",
"143 1504 OFFCURVE",
"143 1482 OFFCURVE",
"142 1451 CURVE SMOOTH",
"141 1420 OFFCURVE",
"140 1401 OFFCURVE",
"140 1395 CURVE SMOOTH",
"140 1382 OFFCURVE",
"141 1373 OFFCURVE",
"142 1366 CURVE",
"142 1331 OFFCURVE",
"144 1282 OFFCURVE",
"149 1219 CURVE SMOOTH",
"154 1155 OFFCURVE",
"156 1115 OFFCURVE",
"157 1100 CURVE",
"158 1066 OFFCURVE",
"161 1011 OFFCURVE",
"164 936 CURVE SMOOTH",
"171 785 OFFCURVE",
"175 670 OFFCURVE",
"175 569 CURVE SMOOTH",
"175 532 OFFCURVE",
"176 490 OFFCURVE",
"177 443 CURVE SMOOTH",
"178 396 OFFCURVE",
"179 354 OFFCURVE",
"179 317 CURVE SMOOTH",
"179 276 OFFCURVE",
"179 233 OFFCURVE",
"178 188 CURVE SMOOTH",
"177 143 OFFCURVE",
"177 100 OFFCURVE",
"177 59 CURVE SMOOTH",
"177 12 OFFCURVE",
"185 -12 OFFCURVE",
"202 -12 CURVE SMOOTH"
);
},
{
closed = 1;
nodes = (
"235 571 OFFCURVE",
"230 679 OFFCURVE",
"222 824 CURVE SMOOTH",
"213 969 OFFCURVE",
"209 1079 OFFCURVE",
"208 1154 CURVE SMOOTH",
"208 1207 LINE",
"399 1207 OFFCURVE",
"495 1099 OFFCURVE",
"495 883 CURVE SMOOTH",
"495 749 OFFCURVE",
"451 638 OFFCURVE",
"362 549 CURVE SMOOTH",
"343 530 OFFCURVE",
"269 505 OFFCURVE",
"236 502 CURVE"
);
}
);
width = 652;
},
{
layerId = "156B637B-193E-48A3-AAC8-7B4A3960F885";
paths = (
{
closed = 1;
nodes = (
"213 -11 OFFCURVE",
"236 17 OFFCURVE",
"236 74 CURVE SMOOTH",
"236 123 OFFCURVE",
"233 196 OFFCURVE",
"228 291 CURVE SMOOTH",
"223 386 OFFCURVE",
"220 456 OFFCURVE",
"220 502 CURVE",
"388 593 OFFCURVE",
"476 765 OFFCURVE",
"476 965 CURVE SMOOTH",
"476 1022 OFFCURVE",
"467 1078 OFFCURVE",
"450 1132 CURVE SMOOTH",
"414 1240 OFFCURVE",
"329 1337 OFFCURVE",
"214 1353 CURVE",
"214 1358 OFFCURVE",
"214 1368 OFFCURVE",
"215 1385 CURVE SMOOTH",
"216 1401 OFFCURVE",
"216 1414 OFFCURVE",
"216 1424 CURVE SMOOTH",
"216 1507 OFFCURVE",
"193 1548 OFFCURVE",
"146 1548 CURVE SMOOTH",
"112 1548 OFFCURVE",
"95 1528 OFFCURVE",
"95 1487 CURVE",
"97 1297 LINE",
"97 1159 OFFCURVE",
"101 952 OFFCURVE",
"108 677 CURVE SMOOTH",
"115 402 OFFCURVE",
"119 195 OFFCURVE",
"119 58 CURVE SMOOTH",
"119 23 OFFCURVE",
"135 -11 OFFCURVE",
"168 -11 CURVE SMOOTH"
);
},
{
closed = 1;
nodes = (
"215 673 OFFCURVE",
"214 781 OFFCURVE",
"213 925 CURVE SMOOTH",
"212 1069 OFFCURVE",
"211 1177 OFFCURVE",
"211 1249 CURVE",
"217 1249 LINE",
"264 1212 OFFCURVE",
"297 1182 OFFCURVE",
"316 1161 CURVE",
"353 1117 OFFCURVE",
"370 1064 OFFCURVE",
"370 948 CURVE SMOOTH",
"370 807 OFFCURVE",
"320 701 OFFCURVE",
"215 601 CURVE"
);
}
);
width = 536;
}
);
note = Thorn;
unicode = 00DE;
},
{
glyphname = Q;
layers = (
{
layerId = "27A8C2A5-6B67-4598-967C-E5EC4FB8AE70";
paths = (
{
closed = 1;
nodes = (
"649 -283 OFFCURVE",
"675 -270 OFFCURVE",
"675 -244 CURVE SMOOTH",
"675 -226 OFFCURVE",
"654 -217 OFFCURVE",
"611 -217 CURVE SMOOTH",
"603 -217 LINE SMOOTH",
"581 -217 OFFCURVE",
"564 -209 OFFCURVE",
"551 -192 CURVE SMOOTH",
"526 -160 OFFCURVE",
"524 -123 OFFCURVE",
"519 -69 CURVE SMOOTH",
"516 -42 OFFCURVE",
"514 -24 OFFCURVE",
"511 -14 CURVE",
"510 -10 OFFCURVE",
"506 0 OFFCURVE",
"501 15 CURVE",
"495 30 OFFCURVE",
"492 43 OFFCURVE",
"491 53 CURVE",
"576 174 OFFCURVE",
"618 355 OFFCURVE",
"618 594 CURVE SMOOTH",
"618 915 OFFCURVE",
"599 1180 OFFCURVE",
"562 1391 CURVE SMOOTH",
"546 1484 OFFCURVE",
"433 1577 OFFCURVE",
"337 1577 CURVE SMOOTH",
"289 1577 OFFCURVE",
"249 1551 OFFCURVE",
"221 1500 CURVE SMOOTH",
"193 1449 OFFCURVE",
"172 1391 OFFCURVE",
"158 1306 CURVE SMOOTH",
"144 1221 OFFCURVE",
"135 1147 OFFCURVE",
"131 1044 CURVE SMOOTH",
"126 940 OFFCURVE",
"125 869 OFFCURVE",
"125 765 CURVE SMOOTH",
"125 742 OFFCURVE",
"125 709 OFFCURVE",
"126 666 CURVE",
"126 623 OFFCURVE",
"126 592 OFFCURVE",
"126 573 CURVE SMOOTH",
"126 538 OFFCURVE",
"127 508 OFFCURVE",
"128 482 CURVE SMOOTH",
"130 429 OFFCURVE",
"138 336 OFFCURVE",
"154 277 CURVE SMOOTH",
"169 217 OFFCURVE",
"200 144 OFFCURVE",
"241 101 CURVE SMOOTH",
"282 58 OFFCURVE",
"347 27 OFFCURVE",
"427 27 CURVE",
"432 12 OFFCURVE",
"438 -20 OFFCURVE",
"446 -71 CURVE SMOOTH",
"462 -172 OFFCURVE",
"484 -233 OFFCURVE",
"536 -256 CURVE",
"539 -257 OFFCURVE",
"548 -261 OFFCURVE",
"565 -270 CURVE SMOOTH",
"581 -279 OFFCURVE",
"592 -283 OFFCURVE",
"597 -283 CURVE SMOOTH"
);
},
{
closed = 1;
nodes = (
"368 80 OFFCURVE",
"336 94 OFFCURVE",
"309 121 CURVE SMOOTH",
"254 176 OFFCURVE",
"227 254 OFFCURVE",
"208 354 CURVE SMOOTH",
"188 453 OFFCURVE",
"184 526 OFFCURVE",
"184 590 CURVE SMOOTH",
"184 713 LINE SMOOTH",
"184 752 OFFCURVE",
"185 794 OFFCURVE",
"186 839 CURVE SMOOTH",
"189 929 OFFCURVE",
"195 1073 OFFCURVE",
"209 1188 CURVE SMOOTH",
"223 1303 OFFCURVE",
"242 1414 OFFCURVE",
"276 1475 CURVE SMOOTH",
"293 1505 OFFCURVE",
"312 1520 OFFCURVE",
"333 1520 CURVE SMOOTH",
"382 1520 OFFCURVE",
"425 1500 OFFCURVE",
"453 1460 CURVE SMOOTH",
"481 1420 OFFCURVE",
"504 1377 OFFCURVE",
"517 1312 CURVE SMOOTH",
"529 1247 OFFCURVE",
"538 1199 OFFCURVE",
"542 1124 CURVE SMOOTH",
"545 1049 OFFCURVE",
"546 1009 OFFCURVE",
"546 941 CURVE SMOOTH",
"546 887 LINE SMOOTH",
"546 606 OFFCURVE",
"535 402 OFFCURVE",
"512 273 CURVE SMOOTH",
"489 144 OFFCURVE",
"453 80 OFFCURVE",
"403 80 CURVE SMOOTH"
);
}
);
width = 755;
},
{
layerId = "156B637B-193E-48A3-AAC8-7B4A3960F885";
paths = (
{
closed = 1;
nodes = (
"654 -282 OFFCURVE",
"684 -261 OFFCURVE",
"684 -219 CURVE SMOOTH",
"684 -196 OFFCURVE",
"673 -181 OFFCURVE",
"653 -175 CURVE SMOOTH",
"633 -169 OFFCURVE",
"620 -169 OFFCURVE",
"596 -169 CURVE SMOOTH",
"588 -169 LINE SMOOTH",
"567 -169 OFFCURVE",
"548 -140 OFFCURVE",
"536 -96 CURVE SMOOTH",
"523 -53 OFFCURVE",
"516 -15 OFFCURVE",
"509 29 CURVE SMOOTH",
"505 51 OFFCURVE",
"502 65 OFFCURVE",
"501 70 CURVE",
"610 222 OFFCURVE",
"627 336 OFFCURVE",
"627 567 CURVE SMOOTH",
"627 659 LINE SMOOTH",
"627 678 OFFCURVE",
"627 711 OFFCURVE",
"628 758 CURVE SMOOTH",
"629 805 OFFCURVE",
"629 841 OFFCURVE",
"629 868 CURVE SMOOTH",
"629 920 OFFCURVE",
"628 967 OFFCURVE",
"627 1009 CURVE SMOOTH",
"624 1092 OFFCURVE",
"613 1204 OFFCURVE",
"597 1281 CURVE SMOOTH",
"580 1358 OFFCURVE",
"549 1443 OFFCURVE",
"507 1492 CURVE SMOOTH",
"465 1541 OFFCURVE",
"401 1576 OFFCURVE",
"324 1576 CURVE SMOOTH",
"296 1576 OFFCURVE",
"271 1570 OFFCURVE",
"248 1558 CURVE SMOOTH",
"202 1533 OFFCURVE",
"173 1495 OFFCURVE",
"150 1436 CURVE SMOOTH",
"126 1377 OFFCURVE",
"115 1323 OFFCURVE",
"107 1249 CURVE SMOOTH",
"99 1175 OFFCURVE",
"98 1121 OFFCURVE",
"98 1052 CURVE SMOOTH",
"98 1031 OFFCURVE",
"98 1004 OFFCURVE",
"99 972 CURVE SMOOTH",
"100 939 OFFCURVE",
"100 918 OFFCURVE",
"100 908 CURVE SMOOTH",
"100 871 OFFCURVE",
"98 815 OFFCURVE",
"95 741 CURVE SMOOTH",
"92 667 OFFCURVE",
"90 611 OFFCURVE",
"90 574 CURVE SMOOTH",
"90 526 OFFCURVE",
"91 483 OFFCURVE",
"94 446 CURVE SMOOTH",
"99 370 OFFCURVE",
"117 276 OFFCURVE",
"149 208 CURVE SMOOTH",
"180 140 OFFCURVE",
"235 69 OFFCURVE",
"310 20 CURVE",
"394 20 LINE",
"397 8 OFFCURVE",
"400 -11 OFFCURVE",
"404 -37 CURVE SMOOTH",
"411 -89 OFFCURVE",
"417 -118 OFFCURVE",
"431 -161 CURVE SMOOTH",
"445 -204 OFFCURVE",
"471 -235 OFFCURVE",
"508 -252 CURVE",
"508 -253 LINE",
"541 -272 OFFCURVE",
"570 -282 OFFCURVE",
"593 -282 CURVE SMOOTH"
);
},
{
closed = 1;
nodes = (
"326 85 OFFCURVE",
"280 134 OFFCURVE",
"254 208 CURVE SMOOTH",
"228 282 OFFCURVE",
"209 358 OFFCURVE",
"201 451 CURVE SMOOTH",
"193 543 OFFCURVE",
"191 596 OFFCURVE",
"191 653 CURVE SMOOTH",
"191 706 OFFCURVE",
"192 768 OFFCURVE",
"195 839 CURVE SMOOTH",
"199 981 OFFCURVE",
"211 1228 OFFCURVE",
"245 1369 CURVE SMOOTH",
"262 1439 OFFCURVE",
"282 1474 OFFCURVE",
"307 1474 CURVE SMOOTH",
"334 1474 OFFCURVE",
"359 1467 OFFCURVE",
"381 1453 CURVE SMOOTH",
"424 1424 OFFCURVE",
"451 1382 OFFCURVE",
"472 1312 CURVE SMOOTH",
"492 1242 OFFCURVE",
"501 1184 OFFCURVE",
"508 1097 CURVE SMOOTH",
"515 1009 OFFCURVE",
"515 958 OFFCURVE",
"515 878 CURVE SMOOTH",
"515 327 LINE SMOOTH",
"515 228 OFFCURVE",
"489 154 OFFCURVE",
"438 107 CURVE",
"438 108 LINE",
"411 108 OFFCURVE",
"392 99 OFFCURVE",
"382 82 CURVE",
"382 80 LINE"
);
}
);
width = 816;
}
);
leftMetricsKey = O;
note = Q;
unicode = 0051;
},
{
glyphname = R;
layers = (
{
anchors = (
{
name = bottom;
position = "{290, 0}";
},
{
name = top;
position = "{220, 1544}";
}
);
layerId = "27A8C2A5-6B67-4598-967C-E5EC4FB8AE70";
paths = (
{
closed = 1;
nodes = (
"518 -20 OFFCURVE",
"529 0 OFFCURVE",
"529 24 CURVE SMOOTH",
"529 33 OFFCURVE",
"528 40 OFFCURVE",
"526 47 CURVE SMOOTH",
"513 99 OFFCURVE",
"317 861 OFFCURVE",
"306 902 CURVE",
"326 923 OFFCURVE",
"357 994 OFFCURVE",
"368 1026 CURVE SMOOTH",
"395 1098 OFFCURVE",
"409 1166 OFFCURVE",
"409 1231 CURVE SMOOTH",
"409 1310 OFFCURVE",
"390 1387 OFFCURVE",
"355 1451 CURVE SMOOTH",
"319 1514 OFFCURVE",
"257 1556 OFFCURVE",
"182 1556 CURVE SMOOTH",
"157 1556 OFFCURVE",
"145 1550 OFFCURVE",
"145 1538 CURVE SMOOTH",
"145 1274 LINE SMOOTH",
"145 1136 OFFCURVE",
"143 932 OFFCURVE",
"138 663 CURVE SMOOTH",
"133 393 OFFCURVE",
"130 189 OFFCURVE",
"130 51 CURVE SMOOTH",
"130 20 LINE SMOOTH",
"130 0 OFFCURVE",
"145 -14 OFFCURVE",
"165 -14 CURVE SMOOTH",
"190 -14 OFFCURVE",
"202 0 OFFCURVE",
"202 27 CURVE SMOOTH",
"202 57 LINE",
"198 846 LINE",
"203 847 OFFCURVE",
"212 851 OFFCURVE",
"225 859 CURVE",
"238 866 OFFCURVE",
"245 870 OFFCURVE",
"246 870 CURVE",
"260 817 OFFCURVE",
"278 738 OFFCURVE",
"299 631 CURVE SMOOTH",
"320 524 OFFCURVE",
"333 458 OFFCURVE",
"339 432 CURVE SMOOTH",
"356 352 OFFCURVE",
"394 213 OFFCURVE",
"423 110 CURVE SMOOTH",
"438 59 OFFCURVE",
"446 29 OFFCURVE",
"448 20 CURVE",
"455 -7 OFFCURVE",
"472 -20 OFFCURVE",
"499 -20 CURVE SMOOTH"
);
},
{
closed = 1;
nodes = (
"197 1491 LINE",
"198 1491 OFFCURVE",
"200 1491 OFFCURVE",
"202 1492 CURVE",
"204 1492 OFFCURVE",
"206 1492 OFFCURVE",
"207 1492 CURVE SMOOTH",
"255 1492 OFFCURVE",
"294 1443 OFFCURVE",
"314 1379 CURVE SMOOTH",
"333 1314 OFFCURVE",
"341 1253 OFFCURVE",
"341 1206 CURVE SMOOTH",
"341 1149 OFFCURVE",
"328 1057 OFFCURVE",
"307 1018 CURVE SMOOTH",
"288 985 OFFCURVE",
"222 913 OFFCURVE",
"197 913 CURVE"
);
}
);
width = 579;
},
{
anchors = (
{
name = bottom;
position = "{296, 0}";
},
{
name = top;
position = "{186, 1552}";
}
);
layerId = "156B637B-193E-48A3-AAC8-7B4A3960F885";
paths = (
{
closed = 1;
nodes = (
"525 -21 OFFCURVE",
"540 -11 OFFCURVE",
"545 13 CURVE SMOOTH",
"550 36 OFFCURVE",
"551 44 OFFCURVE",
"551 71 CURVE SMOOTH",
"551 76 LINE",
"543 101 OFFCURVE",
"523 162 OFFCURVE",
"491 257 CURVE SMOOTH",
"459 352 OFFCURVE",
"435 426 OFFCURVE",
"418 481 CURVE SMOOTH",
"384 590 OFFCURVE",
"341 769 OFFCURVE",
"340 876 CURVE",
"342 881 OFFCURVE",
"349 899 OFFCURVE",
"361 929 CURVE SMOOTH",
"373 959 OFFCURVE",
"381 979 OFFCURVE",
"385 988 CURVE",
"392 1007 OFFCURVE",
"415 1072 OFFCURVE",
"421 1102 CURVE SMOOTH",
"427 1132 OFFCURVE",
"435 1178 OFFCURVE",
"435 1217 CURVE SMOOTH",
"435 1248 OFFCURVE",
"432 1280 OFFCURVE",
"426 1311 CURVE SMOOTH",
"413 1374 OFFCURVE",
"384 1436 OFFCURVE",
"345 1482 CURVE SMOOTH",
"305 1528 OFFCURVE",
"245 1557 OFFCURVE",
"177 1557 CURVE SMOOTH",
"132 1557 OFFCURVE",
"123 1545 OFFCURVE",
"123 1513 CURVE SMOOTH",
"123 1261 LINE SMOOTH",
"123 1128 OFFCURVE",
"122 928 OFFCURVE",
"119 661 CURVE SMOOTH",
"116 394 OFFCURVE",
"115 193 OFFCURVE",
"115 60 CURVE SMOOTH",
"115 44 LINE SMOOTH",
"115 12 OFFCURVE",
"136 -13 OFFCURVE",
"167 -13 CURVE SMOOTH",
"214 -13 OFFCURVE",
"224 11 OFFCURVE",
"224 52 CURVE SMOOTH",
"224 859 LINE",
"238 804 OFFCURVE",
"263 719 OFFCURVE",
"299 604 CURVE SMOOTH",
"370 375 OFFCURVE",
"418 194 OFFCURVE",
"427 41 CURVE",
"427 34 LINE",
"451 -3 OFFCURVE",
"476 -21 OFFCURVE",
"501 -21 CURVE SMOOTH"
);
},
{
closed = 1;
nodes = (
"218 972 OFFCURVE",
"217 1003 OFFCURVE",
"217 1045 CURVE SMOOTH",
"217 1094 OFFCURVE",
"219 1165 OFFCURVE",
"223 1258 CURVE SMOOTH",
"226 1351 OFFCURVE",
"228 1420 OFFCURVE",
"228 1463 CURVE",
"257 1458 OFFCURVE",
"283 1419 OFFCURVE",
"298 1372 CURVE SMOOTH",
"313 1324 OFFCURVE",
"322 1273 OFFCURVE",
"322 1234 CURVE SMOOTH",
"322 1225 OFFCURVE",
"321 1216 OFFCURVE",
"320 1207 CURVE",
"288 1030 LINE",
"265 999 OFFCURVE",
"242 973 OFFCURVE",
"219 951 CURVE"
);
}
);
width = 591;
}
);
note = R;
unicode = 0052;
},
{
glyphname = S;
layers = (
{
anchors = (
{
name = bottom;
position = "{261, -30}";
},
{
name = top;
position = "{311, 1544}";
}
);
layerId = "27A8C2A5-6B67-4598-967C-E5EC4FB8AE70";
paths = (
{
closed = 1;
nodes = (
"319 -45 OFFCURVE",
"391 11 OFFCURVE",
"431 88 CURVE SMOOTH",
"470 165 OFFCURVE",
"491 253 OFFCURVE",
"491 330 CURVE SMOOTH",
"491 391 OFFCURVE",
"484 453 OFFCURVE",
"469 515 CURVE SMOOTH",
"440 638 OFFCURVE",
"394 724 OFFCURVE",
"343 831 CURVE SMOOTH",
"317 884 OFFCURVE",
"293 934 OFFCURVE",
"271 981 CURVE SMOOTH",
"227 1073 OFFCURVE",
"194 1193 OFFCURVE",
"194 1305 CURVE SMOOTH",
"194 1336 OFFCURVE",
"199 1368 OFFCURVE",
"209 1399 CURVE SMOOTH",
"229 1462 OFFCURVE",
"279 1520 OFFCURVE",
"344 1520 CURVE SMOOTH",
"353 1520 OFFCURVE",
"365 1517 OFFCURVE",
"378 1510 CURVE SMOOTH",
"391 1503 OFFCURVE",
"402 1499 OFFCURVE",
"411 1499 CURVE SMOOTH",
"420 1499 OFFCURVE",
"424 1504 OFFCURVE",
"424 1515 CURVE SMOOTH",
"424 1543 OFFCURVE",
"358 1573 OFFCURVE",
"329 1573 CURVE SMOOTH",
"285 1573 OFFCURVE",
"247 1557 OFFCURVE",
"215 1526 CURVE SMOOTH",
"150 1462 OFFCURVE",
"124 1373 OFFCURVE",
"124 1288 CURVE SMOOTH",
"124 1222 OFFCURVE",
"134 1156 OFFCURVE",
"154 1090 CURVE SMOOTH",
"194 957 OFFCURVE",
"256 849 OFFCURVE",
"314 736 CURVE SMOOTH",
"372 623 OFFCURVE",
"417 480 OFFCURVE",
"417 340 CURVE SMOOTH",
"417 283 OFFCURVE",
"404 208 OFFCURVE",
"377 133 CURVE SMOOTH",
"350 57 OFFCURVE",
"298 0 OFFCURVE",
"235 0 CURVE SMOOTH",
"222 0 OFFCURVE",
"204 5 OFFCURVE",
"180 16 CURVE",
"155 26 OFFCURVE",
"136 31 OFFCURVE",
"122 31 CURVE SMOOTH",
"107 31 OFFCURVE",
"100 23 OFFCURVE",
"100 6 CURVE",
"109 -9 OFFCURVE",
"121 -21 OFFCURVE",
"138 -29 CURVE SMOOTH",
"171 -45 OFFCURVE",
"192 -45 OFFCURVE",
"235 -45 CURVE SMOOTH"
);
}
);
width = 621;
},
{
anchors = (
{
name = bottom;
position = "{225, 0}";
},
{
name = top;
position = "{295, 1592}";
}
);
layerId = "156B637B-193E-48A3-AAC8-7B4A3960F885";
paths = (
{
closed = 1;
nodes = (
"331 -45 OFFCURVE",
"408 10 OFFCURVE",
"452 88 CURVE SMOOTH",
"495 166 OFFCURVE",
"519 257 OFFCURVE",
"519 342 CURVE SMOOTH",
"519 470 OFFCURVE",
"486 599 OFFCURVE",
"442 692 CURVE SMOOTH",
"398 784 OFFCURVE",
"343 892 OFFCURVE",
"299 979 CURVE SMOOTH",
"255 1066 OFFCURVE",
"222 1181 OFFCURVE",
"222 1290 CURVE SMOOTH",
"222 1315 OFFCURVE",
"226 1341 OFFCURVE",
"234 1368 CURVE SMOOTH",
"249 1420 OFFCURVE",
"288 1471 OFFCURVE",
"339 1476 CURVE",
"358 1463 OFFCURVE",
"385 1456 OFFCURVE",
"419 1456 CURVE",
"454 1500 LINE",
"435 1544 OFFCURVE",
"382 1574 OFFCURVE",
"333 1574 CURVE SMOOTH",
"284 1574 OFFCURVE",
"242 1558 OFFCURVE",
"207 1526 CURVE SMOOTH",
"135 1462 OFFCURVE",
"105 1368 OFFCURVE",
"105 1275 CURVE SMOOTH",
"105 1214 OFFCURVE",
"115 1150 OFFCURVE",
"135 1085 CURVE SMOOTH",
"175 954 OFFCURVE",
"237 844 OFFCURVE",
"295 729 CURVE SMOOTH",
"353 614 OFFCURVE",
"398 478 OFFCURVE",
"398 355 CURVE SMOOTH",
"398 307 OFFCURVE",
"385 238 OFFCURVE",
"361 170 CURVE SMOOTH",
"337 101 OFFCURVE",
"292 48 OFFCURVE",
"239 48 CURVE SMOOTH",
"229 48 OFFCURVE",
"212 53 OFFCURVE",
"187 64 CURVE SMOOTH",
"162 74 OFFCURVE",
"142 79 OFFCURVE",
"126 79 CURVE SMOOTH",
"95 79 OFFCURVE",
"80 55 OFFCURVE",
"80 24 CURVE SMOOTH",
"80 7 OFFCURVE",
"91 -7 OFFCURVE",
"113 -18 CURVE SMOOTH",
"157 -41 OFFCURVE",
"203 -45 OFFCURVE",
"239 -45 CURVE SMOOTH"
);
}
);
width = 629;
}
);
note = S;
unicode = 0053;
},
{
glyphname = Schwa;
layers = (
{
components = (
{
name = estimated;
transform = "{-1, 0, 0, -1, 911, 1389}";
}
);
layerId = "27A8C2A5-6B67-4598-967C-E5EC4FB8AE70";
width = 914;
},
{
layerId = "156B637B-193E-48A3-AAC8-7B4A3960F885";
paths = (
{
closed = 1;
nodes = (
"618.4 -21.2 OFFCURVE",
"771.3 215.3 OFFCURVE",
"771.3 642.1 CURVE SMOOTH",
"771.3 1019.4 LINE SMOOTH",
"771.3 1123.9 OFFCURVE",
"758.1 1218.5 OFFCURVE",
"731.7 1301 CURVE SMOOTH",
"680 1468.2 OFFCURVE",
"566.7 1579.3 OFFCURVE",
"417.1 1579.3 CURVE SMOOTH",
"317 1579.3 OFFCURVE",
"208.1 1532 OFFCURVE",
"91.5 1438.5 CURVE",
"83.8 1430.8 OFFCURVE",
"78.3 1423.1 OFFCURVE",
"76.1 1414.3 CURVE",
"76.1 1408.8 LINE SMOOTH",
"76.1 1382.4 OFFCURVE",
"88 1354 OFFCURVE",
"114 1354 CURVE SMOOTH",
"122 1354 OFFCURVE",
"128 1356 OFFCURVE",
"134 1361 CURVE",
"248 1470 OFFCURVE",
"333 1503 OFFCURVE",
"399 1503 CURVE SMOOTH",
"553 1503 OFFCURVE",
"641.5 1305.4 OFFCURVE",
"641.5 1054.6 CURVE SMOOTH",
"641.5 1011.7 OFFCURVE",
"640.4 955.6 OFFCURVE",
"639.3 885.2 CURVE",
"357.7 896.2 LINE",
"343.4 896.2 LINE SMOOTH",
"149.8 896.2 OFFCURVE",
"48.6 746.6 OFFCURVE",
"48.6 516.7 CURVE SMOOTH",
"48.6 452.9 LINE SMOOTH",
"48.6 139.4 OFFCURVE",
"147.6 -21.2 OFFCURVE",
"389.6 -21.2 CURVE SMOOTH"
);
},
{
closed = 1;
nodes = (
"238 59 OFFCURVE",
"178 179 OFFCURVE",
"178.4 413.3 CURVE SMOOTH",
"179 483 OFFCURVE",
"181.7 540.9 OFFCURVE",
"187.2 588.2 CURVE SMOOTH",
"200.4 682.8 OFFCURVE",
"214 751 OFFCURVE",
"248 778 CURVE SMOOTH",
"282 805 OFFCURVE",
"302 806 OFFCURVE",
"350 806 CURVE SMOOTH",
"636 806 LINE",
"634 745 OFFCURVE",
"632.7 660.8 OFFCURVE",
"632.7 600.3 CURVE SMOOTH",
"632.7 591.5 LINE SMOOTH",
"633 269 OFFCURVE",
"562 105 OFFCURVE",
"420 68 CURVE SMOOTH",
"397 62 OFFCURVE",
"376 59 OFFCURVE",
"360 59 CURVE SMOOTH"
);
}
);
width = 914;
}
);
unicode = 018F;
},
{
glyphname = T;
layers = (
{
anchors = (
{
name = bottom;
position = "{327, 0}";
},
{
name = center;
position = "{327, 772}";
},
{
name = top;
position = "{327, 1544}";
}
);
layerId = "27A8C2A5-6B67-4598-967C-E5EC4FB8AE70";
paths = (
{
closed = 1;
nodes = (
"347 -12 OFFCURVE",
"354 -9 OFFCURVE",
"359 -3 CURVE SMOOTH",
"368 8 OFFCURVE",
"368 18 OFFCURVE",
"368 42 CURVE SMOOTH",
"368 48 LINE SMOOTH",
"368 56 OFFCURVE",
"368 106 OFFCURVE",
"367 199 CURVE SMOOTH",
"366 292 OFFCURVE",
"366 348 OFFCURVE",
"366 368 CURVE SMOOTH",
"366 1200 LINE SMOOTH",
"366 1235 OFFCURVE",
"366 1288 OFFCURVE",
"366 1359 CURVE SMOOTH",
"365 1430 OFFCURVE",
"365 1470 OFFCURVE",
"365 1478 CURVE",
"364 1478 LINE",
"382 1480 LINE",
"390 1480 OFFCURVE",
"421 1480 OFFCURVE",
"474 1481 CURVE SMOOTH",
"527 1481 OFFCURVE",
"558 1481 OFFCURVE",
"565 1481 CURVE SMOOTH",
"591 1481 OFFCURVE",
"604 1491 OFFCURVE",
"604 1511 CURVE SMOOTH",
"604 1534 OFFCURVE",
"596 1546 OFFCURVE",
"561 1546 CURVE SMOOTH",
"532 1546 OFFCURVE",
"457 1546 OFFCURVE",
"336 1545 CURVE SMOOTH",
"215 1544 OFFCURVE",
"147 1544 OFFCURVE",
"131 1544 CURVE SMOOTH",
"94 1544 OFFCURVE",
"67 1542 OFFCURVE",
"49 1539 CURVE",
"12 1531 OFFCURVE",
"10 1524 OFFCURVE",
"10 1505 CURVE SMOOTH",
"10 1484 OFFCURVE",
"32 1474 OFFCURVE",
"53 1474 CURVE SMOOTH",
"284 1474 LINE SMOOTH",
"287 1474 OFFCURVE",
"289 1400 OFFCURVE",
"289 1253 CURVE SMOOTH",
"289 1198 OFFCURVE",
"289 1153 OFFCURVE",
"288 1120 CURVE SMOOTH",
"287 1087 OFFCURVE",
"287 1067 OFFCURVE",
"287 1061 CURVE SMOOTH",
"287 988 OFFCURVE",
"289 878 OFFCURVE",
"292 733 CURVE SMOOTH",
"295 587 OFFCURVE",
"297 478 OFFCURVE",
"297 406 CURVE SMOOTH",
"297 223 LINE SMOOTH",
"297 138 OFFCURVE",
"297 77 OFFCURVE",
"296 40 CURVE SMOOTH",
"296 12 OFFCURVE",
"310 -12 OFFCURVE",
"338 -12 CURVE SMOOTH"
);
}
);
width = 654;
},
{
anchors = (
{
name = bottom;
position = "{269, 0}";
},
{
name = center;
position = "{269, 776}";
},
{
name = top;
position = "{269, 1552}";
}
);
layerId = "156B637B-193E-48A3-AAC8-7B4A3960F885";
paths = (
{
closed = 1;
nodes = (
"316 -14 OFFCURVE",
"336 19 OFFCURVE",
"336 86 CURVE SMOOTH",
"336 127 OFFCURVE",
"333 189 OFFCURVE",
"328 270 CURVE SMOOTH",
"322 351 OFFCURVE",
"319 413 OFFCURVE",
"319 454 CURVE SMOOTH",
"319 508 OFFCURVE",
"316 587 OFFCURVE",
"310 690 CURVE SMOOTH",
"304 793 OFFCURVE",
"301 872 OFFCURVE",
"301 925 CURVE SMOOTH",
"301 954 OFFCURVE",
"302 999 OFFCURVE",
"303 1058 CURVE SMOOTH",
"304 1117 OFFCURVE",
"305 1160 OFFCURVE",
"305 1189 CURVE SMOOTH",
"305 1278 OFFCURVE",
"300 1362 OFFCURVE",
"291 1441 CURVE",
"296 1442 OFFCURVE",
"303 1442 OFFCURVE",
"312 1442 CURVE SMOOTH",
"320 1442 OFFCURVE",
"332 1441 OFFCURVE",
"348 1440 CURVE SMOOTH",
"364 1439 OFFCURVE",
"376 1438 OFFCURVE",
"385 1438 CURVE SMOOTH",
"420 1438 OFFCURVE",
"447 1459 OFFCURVE",
"447 1492 CURVE SMOOTH",
"447 1525 OFFCURVE",
"414 1550 OFFCURVE",
"381 1550 CURVE SMOOTH",
"359 1550 OFFCURVE",
"331 1549 OFFCURVE",
"296 1547 CURVE SMOOTH",
"227 1543 OFFCURVE",
"119 1534 OFFCURVE",
"54 1511 CURVE SMOOTH",
"21 1499 OFFCURVE",
"5 1485 OFFCURVE",
"5 1469 CURVE SMOOTH",
"5 1436 OFFCURVE",
"37 1413 OFFCURVE",
"72 1413 CURVE SMOOTH",
"85 1413 OFFCURVE",
"105 1415 OFFCURVE",
"130 1418 CURVE SMOOTH",
"155 1421 OFFCURVE",
"173 1423 OFFCURVE",
"183 1424 CURVE",
"196 1395 OFFCURVE",
"202 1331 OFFCURVE",
"202 1233 CURVE SMOOTH",
"202 1207 OFFCURVE",
"202 1173 OFFCURVE",
"201 1132 CURVE SMOOTH",
"200 1091 OFFCURVE",
"199 1065 OFFCURVE",
"199 1054 CURVE SMOOTH",
"199 983 OFFCURVE",
"204 877 OFFCURVE",
"213 735 CURVE SMOOTH",
"222 593 OFFCURVE",
"227 487 OFFCURVE",
"227 416 CURVE SMOOTH",
"227 380 OFFCURVE",
"224 326 OFFCURVE",
"219 253 CURVE SMOOTH",
"214 180 OFFCURVE",
"211 126 OFFCURVE",
"211 89 CURVE SMOOTH",
"211 37 OFFCURVE",
"232 -14 OFFCURVE",
"277 -14 CURVE SMOOTH"
);
}
);
width = 537;
}
);
note = T;
unicode = 0054;
},
{
glyphname = Tbar;
layers = (
{
layerId = "27A8C2A5-6B67-4598-967C-E5EC4FB8AE70";
paths = (
{
closed = 1;
nodes = (
"401 -12 OFFCURVE",
"413 15 OFFCURVE",
"413 68 CURVE SMOOTH",
"413 119 OFFCURVE",
"411 198 OFFCURVE",
"408 305 CURVE SMOOTH",
"405 412 OFFCURVE",
"403 492 OFFCURVE",
"403 545 CURVE SMOOTH",
"403 564 OFFCURVE",
"405 584 OFFCURVE",
"409 604 CURVE",
"401 633 OFFCURVE",
"395 664 OFFCURVE",
"391 699 CURVE",
"500 712 OFFCURVE",
"555 725 OFFCURVE",
"555 739 CURVE SMOOTH",
"555 751 OFFCURVE",
"539 762 OFFCURVE",
"524 762 CURVE SMOOTH",
"491 762 OFFCURVE",
"445 759 OFFCURVE",
"385 754 CURVE",
"382 799 OFFCURVE",
"380 865 OFFCURVE",
"380 952 CURVE SMOOTH",
"380 979 OFFCURVE",
"381 1021 OFFCURVE",
"382 1076 CURVE SMOOTH",
"383 1131 OFFCURVE",
"383 1173 OFFCURVE",
"383 1200 CURVE SMOOTH",
"383 1291 OFFCURVE",
"378 1380 OFFCURVE",
"368 1466 CURVE",
"373 1480 OFFCURVE",
"388 1487 OFFCURVE",
"411 1487 CURVE SMOOTH",
"418 1487 OFFCURVE",
"431 1486 OFFCURVE",
"449 1484 CURVE SMOOTH",
"467 1482 OFFCURVE",
"480 1481 OFFCURVE",
"487 1481 CURVE SMOOTH",
"513 1481 OFFCURVE",
"526 1491 OFFCURVE",
"526 1511 CURVE SMOOTH",
"526 1530 OFFCURVE",
"503 1546 OFFCURVE",
"483 1546 CURVE SMOOTH",
"376 1546 OFFCURVE",
"131 1515 OFFCURVE",
"131 1487 CURVE SMOOTH",
"131 1466 OFFCURVE",
"154 1452 OFFCURVE",
"174 1452 CURVE SMOOTH",
"187 1452 OFFCURVE",
"207 1454 OFFCURVE",
"232 1458 CURVE SMOOTH",
"257 1462 OFFCURVE",
"277 1464 OFFCURVE",
"290 1464 CURVE SMOOTH",
"313 1464 OFFCURVE",
"325 1394 OFFCURVE",
"325 1253 CURVE SMOOTH",
"325 1198 OFFCURVE",
"325 1153 OFFCURVE",
"324 1120 CURVE SMOOTH",
"323 1087 OFFCURVE",
"323 1067 OFFCURVE",
"323 1061 CURVE SMOOTH",
"323 982 OFFCURVE",
"327 879 OFFCURVE",
"336 750 CURVE",
"228 739 OFFCURVE",
"174 727 OFFCURVE",
"174 715 CURVE SMOOTH",
"174 698 OFFCURVE",
"197 686 OFFCURVE",
"217 686 CURVE SMOOTH",
"253 686 OFFCURVE",
"294 688 OFFCURVE",
"340 693 CURVE",
"348 565 OFFCURVE",
"352 469 OFFCURVE",
"352 406 CURVE SMOOTH",
"352 366 OFFCURVE",
"349 309 OFFCURVE",
"344 234 CURVE SMOOTH",
"339 159 OFFCURVE",
"336 105 OFFCURVE",
"335 70 CURVE SMOOTH",
"335 37 OFFCURVE",
"350 -12 OFFCURVE",
"378 -12 CURVE SMOOTH"
);
}
);
width = 720;
},
{
layerId = "156B637B-193E-48A3-AAC8-7B4A3960F885";
paths = (
{
closed = 1;
nodes = (
"446 -14 OFFCURVE",
"466 19 OFFCURVE",
"466 86 CURVE SMOOTH",
"466 127 OFFCURVE",
"463 189 OFFCURVE",
"458 270 CURVE SMOOTH",
"452 351 OFFCURVE",
"449 413 OFFCURVE",
"449 454 CURVE SMOOTH",
"449 508 OFFCURVE",
"446 587 OFFCURVE",
"440 690 CURVE SMOOTH",
"434 793 OFFCURVE",
"431 872 OFFCURVE",
"431 925 CURVE SMOOTH",
"431 954 OFFCURVE",
"432 999 OFFCURVE",
"433 1058 CURVE SMOOTH",
"434 1117 OFFCURVE",
"435 1160 OFFCURVE",
"435 1189 CURVE SMOOTH",
"435 1278 OFFCURVE",
"430 1362 OFFCURVE",
"421 1441 CURVE",
"426 1442 OFFCURVE",
"433 1442 OFFCURVE",
"442 1442 CURVE SMOOTH",
"450 1442 OFFCURVE",
"462 1441 OFFCURVE",
"478 1440 CURVE SMOOTH",
"494 1439 OFFCURVE",
"506 1438 OFFCURVE",
"515 1438 CURVE SMOOTH",
"550 1438 OFFCURVE",
"577 1459 OFFCURVE",
"577 1492 CURVE SMOOTH",
"577 1525 OFFCURVE",
"544 1550 OFFCURVE",
"511 1550 CURVE SMOOTH",
"489 1550 OFFCURVE",
"461 1549 OFFCURVE",
"426 1547 CURVE SMOOTH",
"357 1543 OFFCURVE",
"249 1534 OFFCURVE",
"184 1511 CURVE SMOOTH",
"151 1499 OFFCURVE",
"135 1485 OFFCURVE",
"135 1469 CURVE SMOOTH",
"135 1436 OFFCURVE",
"167 1413 OFFCURVE",
"202 1413 CURVE SMOOTH",
"215 1413 OFFCURVE",
"235 1415 OFFCURVE",
"260 1418 CURVE SMOOTH",
"285 1421 OFFCURVE",
"303 1423 OFFCURVE",
"313 1424 CURVE",
"326 1395 OFFCURVE",
"332 1331 OFFCURVE",
"332 1233 CURVE SMOOTH",
"332 1207 OFFCURVE",
"332 1173 OFFCURVE",
"331 1132 CURVE SMOOTH",
"330 1091 OFFCURVE",
"329 1065 OFFCURVE",
"329 1054 CURVE SMOOTH",
"329 983 OFFCURVE",
"334 877 OFFCURVE",
"343 735 CURVE SMOOTH",
"352 593 OFFCURVE",
"357 487 OFFCURVE",
"357 416 CURVE SMOOTH",
"357 380 OFFCURVE",
"354 326 OFFCURVE",
"349 253 CURVE SMOOTH",
"344 180 OFFCURVE",
"341 126 OFFCURVE",
"341 89 CURVE SMOOTH",
"341 37 OFFCURVE",
"362 -14 OFFCURVE",
"407 -14 CURVE SMOOTH"
);
},
{
closed = 1;
nodes = (
"241 801 OFFCURVE",
"313 803 OFFCURVE",
"410 806 CURVE SMOOTH",
"506 809 OFFCURVE",
"578 811 OFFCURVE",
"626 811 CURVE SMOOTH",
"659 811 OFFCURVE",
"684 826 OFFCURVE",
"684 858 CURVE SMOOTH",
"684 899 OFFCURVE",
"651 919 OFFCURVE",
"585 919 CURVE SMOOTH",
"571 919 OFFCURVE",
"550 918 OFFCURVE",
"522 916 CURVE",
"494 913 OFFCURVE",
"473 912 OFFCURVE",
"459 912 CURVE SMOOTH",
"158 912 LINE SMOOTH",
"130 912 OFFCURVE",
"112 894 OFFCURVE",
"112 866 CURVE SMOOTH",
"112 823 OFFCURVE",
"139 801 OFFCURVE",
"194 801 CURVE SMOOTH"
);
}
);
width = 700;
}
);
note = Tbar;
unicode = 0166;
},
{
glyphname = U;
layers = (
{
anchors = (
{
name = bottom;
position = "{381, 0}";
},
{
name = ogonek;
position = "{509, 15}";
},
{
name = top;
position = "{321, 1544}";
},
{
name = topright;
position = "{583, 1492}";
}
);
layerId = "27A8C2A5-6B67-4598-967C-E5EC4FB8AE70";
paths = (
{
closed = 1;
nodes = (
"457 -39 OFFCURVE",
"485 -31 OFFCURVE",
"510 -16 CURVE SMOOTH",
"559 15 OFFCURVE",
"584 59 OFFCURVE",
"601 123 CURVE SMOOTH",
"618 187 OFFCURVE",
"621 236 OFFCURVE",
"621 295 CURVE SMOOTH",
"621 370 OFFCURVE",
"620 483 OFFCURVE",
"618 634 CURVE SMOOTH",
"615 785 OFFCURVE",
"614 901 OFFCURVE",
"614 983 CURVE SMOOTH",
"614 1024 OFFCURVE",
"614 1085 OFFCURVE",
"614 1167 CURVE SMOOTH",
"613 1249 OFFCURVE",
"613 1311 OFFCURVE",
"613 1352 CURVE SMOOTH",
"613 1507 LINE SMOOTH",
"613 1538 OFFCURVE",
"594 1555 OFFCURVE",
"573 1555 CURVE SMOOTH",
"552 1555 OFFCURVE",
"533 1538 OFFCURVE",
"533 1507 CURVE SMOOTH",
"533 1468 OFFCURVE",
"535 1410 OFFCURVE",
"538 1333 CURVE SMOOTH",
"541 1256 OFFCURVE",
"542 1198 OFFCURVE",
"542 1159 CURVE SMOOTH",
"542 1154 OFFCURVE",
"545 1066 OFFCURVE",
"551 897 CURVE SMOOTH",
"557 728 OFFCURVE",
"560 600 OFFCURVE",
"560 514 CURVE SMOOTH",
"560 281 LINE SMOOTH",
"560 256 OFFCURVE",
"559 233 OFFCURVE",
"558 213 CURVE",
"554 172 OFFCURVE",
"543 117 OFFCURVE",
"523 85 CURVE SMOOTH",
"503 52 OFFCURVE",
"466 27 OFFCURVE",
"417 27 CURVE SMOOTH",
"392 27 OFFCURVE",
"368 38 OFFCURVE",
"347 59 CURVE SMOOTH",
"303 101 OFFCURVE",
"280 159 OFFCURVE",
"260 237 CURVE SMOOTH",
"239 315 OFFCURVE",
"231 367 OFFCURVE",
"226 422 CURVE SMOOTH",
"207 603 OFFCURVE",
"183 1120 OFFCURVE",
"183 1452 CURVE SMOOTH",
"183 1455 OFFCURVE",
"183 1461 OFFCURVE",
"184 1468 CURVE",
"184 1475 OFFCURVE",
"184 1480 OFFCURVE",
"184 1483 CURVE SMOOTH",
"184 1514 OFFCURVE",
"175 1532 OFFCURVE",
"142 1532 CURVE SMOOTH",
"121 1532 OFFCURVE",
"110 1514 OFFCURVE",
"110 1479 CURVE SMOOTH",
"110 1474 OFFCURVE",
"110 1469 OFFCURVE",
"111 1462 CURVE",
"111 1455 OFFCURVE",
"111 1451 OFFCURVE",
"111 1448 CURVE SMOOTH",
"111 1167 OFFCURVE",
"141 582 OFFCURVE",
"152 473 CURVE",
"152 472 OFFCURVE",
"153 461 OFFCURVE",
"154 439 CURVE SMOOTH",
"155 416 OFFCURVE",
"156 395 OFFCURVE",
"158 374 CURVE SMOOTH",
"161 332 OFFCURVE",
"172 256 OFFCURVE",
"188 200 CURVE SMOOTH",
"203 144 OFFCURVE",
"232 77 OFFCURVE",
"268 34 CURVE SMOOTH",
"303 -9 OFFCURVE",
"359 -39 OFFCURVE",
"424 -39 CURVE SMOOTH"
);
}
);
width = 761;
},
{
anchors = (
{
name = bottom;
position = "{411, 0}";
},
{
name = ogonek;
position = "{739, 10}";
},
{
name = top;
position = "{371, 1552}";
},
{
name = topright;
position = "{609, 1460}";
}
);
layerId = "156B637B-193E-48A3-AAC8-7B4A3960F885";
paths = (
{
closed = 1;
nodes = (
"514 -37 OFFCURVE",
"544 -30 OFFCURVE",
"570 -17 CURVE SMOOTH",
"621 10 OFFCURVE",
"646 48 OFFCURVE",
"662 109 CURVE SMOOTH",
"678 170 OFFCURVE",
"681 219 OFFCURVE",
"681 288 CURVE SMOOTH",
"681 415 OFFCURVE",
"675 594 OFFCURVE",
"663 823 CURVE SMOOTH",
"650 1052 OFFCURVE",
"644 1224 OFFCURVE",
"644 1338 CURVE SMOOTH",
"644 1353 OFFCURVE",
"647 1374 OFFCURVE",
"652 1402 CURVE SMOOTH",
"657 1429 OFFCURVE",
"659 1450 OFFCURVE",
"659 1463 CURVE SMOOTH",
"659 1497 LINE",
"609 1545 LINE",
"573 1545 OFFCURVE",
"532 1522 OFFCURVE",
"532 1489 CURVE SMOOTH",
"532 1450 OFFCURVE",
"535 1391 OFFCURVE",
"540 1313 CURVE SMOOTH",
"545 1235 OFFCURVE",
"547 1177 OFFCURVE",
"547 1138 CURVE SMOOTH",
"547 1125 OFFCURVE",
"548 1105 OFFCURVE",
"549 1079 CURVE SMOOTH",
"550 1052 OFFCURVE",
"551 1032 OFFCURVE",
"551 1019 CURVE SMOOTH",
"551 1005 LINE SMOOTH",
"551 962 OFFCURVE",
"555 897 OFFCURVE",
"564 812 CURVE SMOOTH",
"573 727 OFFCURVE",
"577 662 OFFCURVE",
"577 619 CURVE SMOOTH",
"577 219 LINE SMOOTH",
"577 175 OFFCURVE",
"575 153 OFFCURVE",
"566 107 CURVE SMOOTH",
"557 61 OFFCURVE",
"531 35 OFFCURVE",
"492 35 CURVE SMOOTH",
"427 35 OFFCURVE",
"365 108 OFFCURVE",
"331 199 CURVE SMOOTH",
"297 290 OFFCURVE",
"276 385 OFFCURVE",
"276 444 CURVE SMOOTH",
"276 507 OFFCURVE",
"263 646 OFFCURVE",
"247 682 CURVE",
"247 761 OFFCURVE",
"244 880 OFFCURVE",
"238 1039 CURVE SMOOTH",
"231 1197 OFFCURVE",
"228 1315 OFFCURVE",
"228 1394 CURVE SMOOTH",
"228 1491 OFFCURVE",
"203 1540 OFFCURVE",
"154 1540 CURVE SMOOTH",
"122 1540 OFFCURVE",
"95 1510 OFFCURVE",
"95 1477 CURVE SMOOTH",
"95 1460 OFFCURVE",
"100 1446 OFFCURVE",
"110 1435 CURVE",
"110 1406 OFFCURVE",
"110 1356 OFFCURVE",
"109 1284 CURVE SMOOTH",
"108 1212 OFFCURVE",
"108 1156 OFFCURVE",
"108 1115 CURVE SMOOTH",
"108 971 OFFCURVE",
"110 866 OFFCURVE",
"118 722 CURVE SMOOTH",
"126 577 OFFCURVE",
"142 470 OFFCURVE",
"166 350 CURVE SMOOTH",
"190 229 OFFCURVE",
"229 144 OFFCURVE",
"278 73 CURVE SMOOTH",
"327 1 OFFCURVE",
"396 -37 OFFCURVE",
"479 -37 CURVE SMOOTH"
);
}
);
width = 821;
}
);
note = U;
unicode = 0055;
},
{
glyphname = V;
layers = (
{
layerId = "27A8C2A5-6B67-4598-967C-E5EC4FB8AE70";
paths = (
{
closed = 1;
nodes = (
"374 -18 OFFCURVE",
"387 -3 OFFCURVE",
"398 27 CURVE",
"399 106 OFFCURVE",
"460 642 OFFCURVE",
"497 947 CURVE SMOOTH",
"515 1099 OFFCURVE",
"528 1209 OFFCURVE",
"537 1276 CURVE SMOOTH",
"539 1292 OFFCURVE",
"543 1318 OFFCURVE",
"549 1355 CURVE SMOOTH",
"560 1428 OFFCURVE",
"566 1478 OFFCURVE",
"566 1530 CURVE",
"545 1546 LINE",
"549 1546 LINE",
"537 1554 LINE",
"513 1554 OFFCURVE",
"500 1541 OFFCURVE",
"498 1516 CURVE SMOOTH",
"496 1489 OFFCURVE",
"491 1451 OFFCURVE",
"484 1401 CURVE SMOOTH",
"476 1350 OFFCURVE",
"471 1316 OFFCURVE",
"469 1298 CURVE SMOOTH",
"464 1249 OFFCURVE",
"451 1131 OFFCURVE",
"432 943 CURVE SMOOTH",
"412 755 OFFCURVE",
"396 605 OFFCURVE",
"383 494 CURVE SMOOTH",
"379 458 OFFCURVE",
"371 373 OFFCURVE",
"360 258 CURVE SMOOTH",
"355 200 OFFCURVE",
"350 151 OFFCURVE",
"346 112 CURVE",
"341 145 OFFCURVE",
"333 208 OFFCURVE",
"320 299 CURVE SMOOTH",
"307 390 OFFCURVE",
"298 455 OFFCURVE",
"293 493 CURVE SMOOTH",
"190 1197 LINE SMOOTH",
"168 1326 OFFCURVE",
"153 1414 OFFCURVE",
"144 1462 CURVE",
"144 1465 OFFCURVE",
"141 1483 OFFCURVE",
"140 1491 CURVE SMOOTH",
"139 1498 OFFCURVE",
"135 1514 OFFCURVE",
"131 1522 CURVE SMOOTH",
"127 1530 OFFCURVE",
"121 1541 OFFCURVE",
"113 1545 CURVE SMOOTH",
"109 1547 OFFCURVE",
"104 1548 OFFCURVE",
"99 1548 CURVE SMOOTH",
"84 1548 OFFCURVE",
"70 1531 OFFCURVE",
"70 1512 CURVE SMOOTH",
"70 1461 OFFCURVE",
"91 1359 OFFCURVE",
"114 1263 CURVE SMOOTH",
"125 1214 OFFCURVE",
"132 1185 OFFCURVE",
"134 1174 CURVE SMOOTH",
"246 442 LINE SMOOTH",
"279 227 OFFCURVE",
"307 76 OFFCURVE",
"328 -10 CURVE",
"332 -11 OFFCURVE",
"342 -14 OFFCURVE",
"350 -16 CURVE",
"353 -17 OFFCURVE",
"356 -18 OFFCURVE",
"359 -18 CURVE SMOOTH"
);
},
{
closed = 1;
nodes = (
"346 106 LINE",
"349 101 LINE",
"342 101 LINE"
);
}
);
width = 666;
},
{
layerId = "156B637B-193E-48A3-AAC8-7B4A3960F885";
paths = (
{
closed = 1;
nodes = (
"366 -34 OFFCURVE",
"374 -18 OFFCURVE",
"383 13 CURVE SMOOTH",
"401 76 OFFCURVE",
"421 196 OFFCURVE",
"441 333 CURVE SMOOTH",
"461 469 OFFCURVE",
"484 654 OFFCURVE",
"503 808 CURVE SMOOTH",
"522 962 OFFCURVE",
"544 1154 OFFCURVE",
"556 1269 CURVE SMOOTH",
"568 1384 OFFCURVE",
"583 1526 OFFCURVE",
"586 1546 CURVE",
"543 1569 LINE",
"514 1569 OFFCURVE",
"489 1555 OFFCURVE",
"468 1528 CURVE",
"468 1291 OFFCURVE",
"441 1047 OFFCURVE",
"393 709 CURVE SMOOTH",
"368 540 OFFCURVE",
"352 416 OFFCURVE",
"343 339 CURVE",
"340 356 OFFCURVE",
"321 477 OFFCURVE",
"286 702 CURVE SMOOTH",
"251 927 OFFCURVE",
"217 1126 OFFCURVE",
"182 1301 CURVE SMOOTH",
"147 1476 OFFCURVE",
"118 1563 OFFCURVE",
"97 1563 CURVE SMOOTH",
"67 1563 OFFCURVE",
"48 1550 OFFCURVE",
"40 1523 CURVE",
"59 1428 OFFCURVE",
"101 1183 OFFCURVE",
"165 788 CURVE SMOOTH",
"229 392 OFFCURVE",
"278 125 OFFCURVE",
"311 -12 CURVE",
"324 -27 OFFCURVE",
"340 -34 OFFCURVE",
"359 -34 CURVE SMOOTH"
);
}
);
width = 716;
}
);
note = V;
unicode = 0056;
},
{
glyphname = W;
layers = (
{
anchors = (
{
name = bottom;
position = "{472, 0}";
},
{
name = top;
position = "{431, 1544}";
}
);
layerId = "27A8C2A5-6B67-4598-967C-E5EC4FB8AE70";
paths = (
{
closed = 1;
nodes = (
"332 -27 OFFCURVE",
"344 0 OFFCURVE",
"344 54 CURVE SMOOTH",
"344 90 LINE",
"359 244 OFFCURVE",
"393 617 OFFCURVE",
"446 1209 CURVE",
"446 1210 OFFCURVE",
"446 1210 OFFCURVE",
"447 1211 CURVE SMOOTH",
"448 1212 OFFCURVE",
"448 1212 OFFCURVE",
"448 1213 CURVE",
"454 1209 LINE",
"511 742 OFFCURVE",
"560 367 OFFCURVE",
"602 86 CURVE SMOOTH",
"603 78 OFFCURVE",
"604 68 OFFCURVE",
"605 55 CURVE",
"606 29 OFFCURVE",
"607 15 OFFCURVE",
"612 -2 CURVE SMOOTH",
"617 -19 OFFCURVE",
"630 -27 OFFCURVE",
"651 -27 CURVE SMOOTH",
"682 -27 OFFCURVE",
"688 -9 OFFCURVE",
"688 23 CURVE SMOOTH",
"688 29 OFFCURVE",
"692 63 OFFCURVE",
"699 126 CURVE SMOOTH",
"706 188 OFFCURVE",
"713 257 OFFCURVE",
"722 334 CURVE SMOOTH",
"731 410 OFFCURVE",
"736 464 OFFCURVE",
"739 496 CURVE SMOOTH",
"744 536 OFFCURVE",
"758 677 OFFCURVE",
"781 919 CURVE SMOOTH",
"803 1161 OFFCURVE",
"821 1342 OFFCURVE",
"836 1462 CURVE",
"837 1467 OFFCURVE",
"844 1495 OFFCURVE",
"844 1507 CURVE SMOOTH",
"844 1513 OFFCURVE",
"843 1517 OFFCURVE",
"842 1520 CURVE",
"857 1532 OFFCURVE",
"864 1545 OFFCURVE",
"864 1559 CURVE SMOOTH",
"864 1576 OFFCURVE",
"842 1591 OFFCURVE",
"825 1591 CURVE SMOOTH",
"784 1591 OFFCURVE",
"772 1574 OFFCURVE",
"772 1542 CURVE SMOOTH",
"772 1538 OFFCURVE",
"772 1532 OFFCURVE",
"773 1523 CURVE SMOOTH",
"774 1514 OFFCURVE",
"774 1508 OFFCURVE",
"774 1503 CURVE SMOOTH",
"774 1438 OFFCURVE",
"767 1346 OFFCURVE",
"753 1227 CURVE SMOOTH",
"738 1108 OFFCURVE",
"730 1026 OFFCURVE",
"727 981 CURVE SMOOTH",
"651 152 LINE",
"645 156 LINE",
"625 368 OFFCURVE",
"498 1204 OFFCURVE",
"475 1323 CURVE",
"474 1326 OFFCURVE",
"473 1332 OFFCURVE",
"472 1341 CURVE",
"469 1358 OFFCURVE",
"468 1361 OFFCURVE",
"461 1372 CURVE SMOOTH",
"454 1383 OFFCURVE",
"443 1386 OFFCURVE",
"424 1386 CURVE",
"416 1382 OFFCURVE",
"412 1375 OFFCURVE",
"412 1372 CURVE",
"411 1368 OFFCURVE",
"409 1350 OFFCURVE",
"409 1346 CURVE",
"408 1341 OFFCURVE",
"407 1318 OFFCURVE",
"404 1277 CURVE SMOOTH",
"401 1236 OFFCURVE",
"399 1205 OFFCURVE",
"397 1184 CURVE SMOOTH",
"394 1151 OFFCURVE",
"386 1096 OFFCURVE",
"373 1018 CURVE SMOOTH",
"360 940 OFFCURVE",
"352 880 OFFCURVE",
"349 838 CURVE SMOOTH",
"345 793 OFFCURVE",
"338 682 OFFCURVE",
"327 504 CURVE SMOOTH",
"316 325 OFFCURVE",
"308 217 OFFCURVE",
"303 179 CURVE",
"299 179 LINE",
"246 629 OFFCURVE",
"202 1047 OFFCURVE",
"166 1432 CURVE",
"165 1437 OFFCURVE",
"165 1445 OFFCURVE",
"165 1454 CURVE SMOOTH",
"165 1459 OFFCURVE",
"165 1466 OFFCURVE",
"166 1475 CURVE",
"166 1483 OFFCURVE",
"166 1489 OFFCURVE",
"166 1493 CURVE SMOOTH",
"166 1525 OFFCURVE",
"156 1540 OFFCURVE",
"113 1540 CURVE SMOOTH",
"97 1540 OFFCURVE",
"78 1528 OFFCURVE",
"70 1513 CURVE",
"79 1498 OFFCURVE",
"94 1414 OFFCURVE",
"115 1259 CURVE SMOOTH",
"136 1104 OFFCURVE",
"157 935 OFFCURVE",
"178 754 CURVE SMOOTH",
"199 572 OFFCURVE",
"212 465 OFFCURVE",
"217 434 CURVE SMOOTH",
"220 413 OFFCURVE",
"226 375 OFFCURVE",
"235 322 CURVE SMOOTH",
"252 215 OFFCURVE",
"267 119 OFFCURVE",
"272 74 CURVE",
"272 64 LINE SMOOTH",
"272 59 OFFCURVE",
"272 52 OFFCURVE",
"271 42 CURVE SMOOTH",
"270 32 OFFCURVE",
"270 24 OFFCURVE",
"270 19 CURVE SMOOTH",
"270 -12 OFFCURVE",
"283 -27 OFFCURVE",
"309 -27 CURVE SMOOTH"
);
}
);
width = 944;
},
{
anchors = (
{
name = bottom;
position = "{506, 0}";
},
{
name = top;
position = "{446, 1552}";
}
);
layerId = "156B637B-193E-48A3-AAC8-7B4A3960F885";
paths = (
{
closed = 1;
nodes = (
"356 -29 OFFCURVE",
"386 -1 OFFCURVE",
"386 28 CURVE SMOOTH",
"386 119 OFFCURVE",
"390 217 OFFCURVE",
"399 324 CURVE SMOOTH",
"415 537 OFFCURVE",
"431 654 OFFCURVE",
"464 893 CURVE",
"466 881 OFFCURVE",
"473 836 OFFCURVE",
"484 759 CURVE SMOOTH",
"495 682 OFFCURVE",
"507 602 OFFCURVE",
"520 521 CURVE SMOOTH",
"546 358 OFFCURVE",
"580 166 OFFCURVE",
"617 55 CURVE SMOOTH",
"636 0 OFFCURVE",
"653 -28 OFFCURVE",
"670 -28 CURVE SMOOTH",
"710 -28 OFFCURVE",
"731 2 OFFCURVE",
"731 43 CURVE SMOOTH",
"731 256 OFFCURVE",
"769 551 OFFCURVE",
"809 767 CURVE SMOOTH",
"848 982 OFFCURVE",
"886 1277 OFFCURVE",
"886 1489 CURVE",
"900 1503 OFFCURVE",
"907 1519 OFFCURVE",
"907 1536 CURVE SMOOTH",
"907 1568 OFFCURVE",
"876 1592 OFFCURVE",
"844 1592 CURVE SMOOTH",
"785 1592 OFFCURVE",
"770 1566 OFFCURVE",
"770 1506 CURVE SMOOTH",
"770 1298 OFFCURVE",
"746 1075 OFFCURVE",
"707 789 CURVE SMOOTH",
"688 646 OFFCURVE",
"674 536 OFFCURVE",
"667 461 CURVE",
"656 527 OFFCURVE",
"638 615 OFFCURVE",
"611 724 CURVE SMOOTH",
"557 943 OFFCURVE",
"518 1129 OFFCURVE",
"518 1297 CURVE SMOOTH",
"518 1328 LINE SMOOTH",
"518 1368 OFFCURVE",
"494 1388 OFFCURVE",
"445 1388 CURVE SMOOTH",
"417 1388 OFFCURVE",
"391 1354 OFFCURVE",
"391 1325 CURVE SMOOTH",
"391 1286 LINE SMOOTH",
"391 1246 OFFCURVE",
"388 1188 OFFCURVE",
"381 1112 CURVE SMOOTH",
"368 959 OFFCURVE",
"357 868 OFFCURVE",
"334 676 CURVE SMOOTH",
"322 579 OFFCURVE",
"315 522 OFFCURVE",
"313 503 CURVE",
"312 506 OFFCURVE",
"303 608 OFFCURVE",
"285 811 CURVE SMOOTH",
"266 1013 OFFCURVE",
"244 1185 OFFCURVE",
"219 1327 CURVE SMOOTH",
"193 1469 OFFCURVE",
"164 1540 OFFCURVE",
"131 1540 CURVE SMOOTH",
"101 1540 OFFCURVE",
"77 1524 OFFCURVE",
"60 1491 CURVE",
"91 1415 OFFCURVE",
"252 255 OFFCURVE",
"252 127 CURVE SMOOTH",
"252 23 OFFCURVE",
"277 -29 OFFCURVE",
"327 -29 CURVE SMOOTH"
);
}
);
width = 1012;
}
);
note = W;
unicode = 0057;
},
{
glyphname = X;
layers = (
{
layerId = "27A8C2A5-6B67-4598-967C-E5EC4FB8AE70";
paths = (
{
closed = 1;
nodes = (
"106 -12 OFFCURVE",
"111 -11 OFFCURVE",
"116 -10 CURVE",
"125 -7 OFFCURVE",
"131 -6 OFFCURVE",
"136 2 CURVE",
"140 9 OFFCURVE",
"142 11 OFFCURVE",
"145 22 CURVE SMOOTH",
"148 33 OFFCURVE",
"148 34 OFFCURVE",
"150 48 CURVE SMOOTH",
"151 55 OFFCURVE",
"151 59 OFFCURVE",
"152 61 CURVE",
"168 154 OFFCURVE",
"265 609 OFFCURVE",
"277 629 CURVE",
"290 579 OFFCURVE",
"314 462 OFFCURVE",
"350 279 CURVE SMOOTH",
"352 268 OFFCURVE",
"355 250 OFFCURVE",
"360 225 CURVE",
"364 200 OFFCURVE",
"367 181 OFFCURVE",
"370 166 CURVE SMOOTH",
"375 136 OFFCURVE",
"381 88 OFFCURVE",
"381 53 CURVE SMOOTH",
"381 45 OFFCURVE",
"383 39 OFFCURVE",
"387 35 CURVE SMOOTH",
"395 27 OFFCURVE",
"402 27 OFFCURVE",
"418 27 CURVE SMOOTH",
"440 27 OFFCURVE",
"451 41 OFFCURVE",
"451 70 CURVE SMOOTH",
"451 80 OFFCURVE",
"450 93 OFFCURVE",
"447 109 CURVE SMOOTH",
"444 124 OFFCURVE",
"442 133 OFFCURVE",
"442 134 CURVE",
"420 238 LINE",
"312 791 LINE",
"312 806 OFFCURVE",
"313 822 OFFCURVE",
"315 839 CURVE SMOOTH",
"318 874 OFFCURVE",
"327 925 OFFCURVE",
"332 951 CURVE",
"336 977 OFFCURVE",
"350 1049 OFFCURVE",
"353 1061 CURVE",
"391 1256 OFFCURVE",
"419 1385 OFFCURVE",
"437 1448 CURVE",
"438 1451 OFFCURVE",
"442 1462 OFFCURVE",
"451 1483 CURVE SMOOTH",
"459 1503 OFFCURVE",
"463 1519 OFFCURVE",
"463 1530 CURVE SMOOTH",
"463 1545 OFFCURVE",
"451 1552 OFFCURVE",
"426 1552 CURVE SMOOTH",
"409 1552 OFFCURVE",
"394 1533 OFFCURVE",
"386 1501 CURVE SMOOTH",
"377 1469 OFFCURVE",
"373 1445 OFFCURVE",
"369 1411 CURVE SMOOTH",
"367 1394 OFFCURVE",
"366 1383 OFFCURVE",
"365 1380 CURVE",
"320 1135 OFFCURVE",
"293 982 OFFCURVE",
"285 922 CURVE",
"276 975 OFFCURVE",
"259 1064 OFFCURVE",
"234 1189 CURVE SMOOTH",
"208 1314 OFFCURVE",
"192 1395 OFFCURVE",
"185 1434 CURVE SMOOTH",
"184 1439 OFFCURVE",
"184 1448 OFFCURVE",
"183 1461 CURVE SMOOTH",
"182 1474 OFFCURVE",
"182 1484 OFFCURVE",
"181 1491 CURVE SMOOTH",
"179 1506 OFFCURVE",
"166 1522 OFFCURVE",
"142 1522 CURVE SMOOTH",
"131 1522 OFFCURVE",
"120 1513 OFFCURVE",
"109 1495 CURVE",
"110 1468 OFFCURVE",
"118 1430 OFFCURVE",
"133 1382 CURVE SMOOTH",
"148 1333 OFFCURVE",
"157 1302 OFFCURVE",
"160 1288 CURVE SMOOTH",
"165 1263 OFFCURVE",
"176 1215 OFFCURVE",
"193 1146 CURVE SMOOTH",
"226 1006 OFFCURVE",
"242 916 OFFCURVE",
"242 821 CURVE SMOOTH",
"242 806 OFFCURVE",
"241 790 OFFCURVE",
"240 773 CURVE SMOOTH",
"237 739 OFFCURVE",
"229 693 OFFCURVE",
"224 668 CURVE SMOOTH",
"219 643 OFFCURVE",
"206 581 OFFCURVE",
"203 565 CURVE SMOOTH",
"179 450 OFFCURVE",
"147 318 OFFCURVE",
"108 170 CURVE SMOOTH",
"83 81 OFFCURVE",
"70 29 OFFCURVE",
"70 12 CURVE SMOOTH",
"70 1 OFFCURVE",
"90 -12 OFFCURVE",
"101 -12 CURVE SMOOTH"
);
}
);
width = 573;
},
{
layerId = "156B637B-193E-48A3-AAC8-7B4A3960F885";
paths = (
{
closed = 1;
nodes = (
"140 -13 OFFCURVE",
"157 24 OFFCURVE",
"176 97 CURVE SMOOTH",
"191 150 OFFCURVE",
"232 327 OFFCURVE",
"300 628 CURVE",
"313 572 OFFCURVE",
"332 475 OFFCURVE",
"357 336 CURVE SMOOTH",
"381 197 OFFCURVE",
"396 110 OFFCURVE",
"403 75 CURVE SMOOTH",
"410 42 OFFCURVE",
"430 26 OFFCURVE",
"463 26 CURVE SMOOTH",
"487 26 OFFCURVE",
"499 44 OFFCURVE",
"499 80 CURVE SMOOTH",
"499 112 OFFCURVE",
"492 143 OFFCURVE",
"480 191 CURVE",
"473 214 OFFCURVE",
"468 233 OFFCURVE",
"465 248 CURVE SMOOTH",
"437 377 OFFCURVE",
"359 769 OFFCURVE",
"359 796 CURVE SMOOTH",
"359 857 OFFCURVE",
"393 998 OFFCURVE",
"442 1186 CURVE SMOOTH",
"491 1374 OFFCURVE",
"512 1464 OFFCURVE",
"512 1505 CURVE SMOOTH",
"512 1534 OFFCURVE",
"490 1550 OFFCURVE",
"462 1550 CURVE SMOOTH",
"449 1550 OFFCURVE",
"438 1541 OFFCURVE",
"429 1522 CURVE SMOOTH",
"420 1503 OFFCURVE",
"409 1467 OFFCURVE",
"398 1415 CURVE SMOOTH",
"391 1385 OFFCURVE",
"378 1322 OFFCURVE",
"359 1227 CURVE SMOOTH",
"340 1132 OFFCURVE",
"323 1052 OFFCURVE",
"309 987 CURVE",
"294 1061 OFFCURVE",
"284 1110 OFFCURVE",
"280 1134 CURVE SMOOTH",
"275 1161 OFFCURVE",
"268 1195 OFFCURVE",
"265 1214 CURVE",
"263 1223 OFFCURVE",
"260 1236 OFFCURVE",
"257 1252 CURVE SMOOTH",
"236 1364 OFFCURVE",
"220 1437 OFFCURVE",
"209 1470 CURVE SMOOTH",
"198 1503 OFFCURVE",
"183 1520 OFFCURVE",
"163 1520 CURVE SMOOTH",
"138 1520 OFFCURVE",
"117 1504 OFFCURVE",
"117 1465 CURVE SMOOTH",
"117 1456 OFFCURVE",
"119 1443 OFFCURVE",
"122 1428 CURVE SMOOTH",
"215 1009 OFFCURVE",
"243 903 OFFCURVE",
"243 819 CURVE SMOOTH",
"243 778 OFFCURVE",
"230 697 OFFCURVE",
"203 578 CURVE SMOOTH",
"177 459 OFFCURVE",
"133 277 OFFCURVE",
"71 33 CURVE",
"70 32 OFFCURVE",
"70 29 OFFCURVE",
"70 26 CURVE SMOOTH",
"70 3 OFFCURVE",
"101 -13 OFFCURVE",
"126 -13 CURVE SMOOTH"
);
}
);
width = 622;
}
);
note = X;
unicode = 0058;
},
{
glyphname = Y;
layers = (
{
anchors = (
{
name = bottom;
position = "{258, 0}";
},
{
name = top;
position = "{218, 1544}";
},
{
name = topleft;
position = "{20, 1544}";
}
);
layerId = "27A8C2A5-6B67-4598-967C-E5EC4FB8AE70";
paths = (
{
closed = 1;
nodes = (
"294 -25 OFFCURVE",
"310 4 OFFCURVE",
"310 35 CURVE SMOOTH",
"310 36 OFFCURVE",
"310 39 OFFCURVE",
"309 42 CURVE SMOOTH",
"308 45 OFFCURVE",
"308 48 OFFCURVE",
"308 49 CURVE",
"302 55 LINE",
"305 146 OFFCURVE",
"306 284 OFFCURVE",
"306 469 CURVE SMOOTH",
"306 496 OFFCURVE",
"304 537 OFFCURVE",
"299 592 CURVE SMOOTH",
"294 647 OFFCURVE",
"291 688 OFFCURVE",
"291 715 CURVE SMOOTH",
"291 731 LINE",
"304 762 LINE",
"304 770 OFFCURVE",
"303 781 OFFCURVE",
"301 796 CURVE SMOOTH",
"299 811 OFFCURVE",
"298 822 OFFCURVE",
"298 829 CURVE SMOOTH",
"298 924 OFFCURVE",
"313 1056 OFFCURVE",
"325 1129 CURVE SMOOTH",
"337 1201 OFFCURVE",
"371 1390 OFFCURVE",
"379 1434 CURVE",
"380 1441 OFFCURVE",
"383 1455 OFFCURVE",
"388 1474 CURVE SMOOTH",
"393 1493 OFFCURVE",
"396 1507 OFFCURVE",
"396 1518 CURVE SMOOTH",
"396 1525 OFFCURVE",
"394 1531 OFFCURVE",
"391 1534 CURVE SMOOTH",
"384 1541 OFFCURVE",
"381 1540 OFFCURVE",
"365 1540 CURVE SMOOTH",
"342 1540 OFFCURVE",
"322 1495 OFFCURVE",
"305 1405 CURVE SMOOTH",
"288 1315 OFFCURVE",
"274 1216 OFFCURVE",
"264 1107 CURVE SMOOTH",
"253 998 OFFCURVE",
"247 939 OFFCURVE",
"244 930 CURVE",
"208 979 OFFCURVE",
"122 1419 OFFCURVE",
"115 1530 CURVE",
"91 1546 LINE",
"70 1546 OFFCURVE",
"50 1534 OFFCURVE",
"50 1513 CURVE SMOOTH",
"50 1490 OFFCURVE",
"60 1445 OFFCURVE",
"80 1380 CURVE SMOOTH",
"104 1297 OFFCURVE",
"122 1213 OFFCURVE",
"148 1079 CURVE SMOOTH",
"161 1012 OFFCURVE",
"170 965 OFFCURVE",
"175 938 CURVE",
"176 935 OFFCURVE",
"179 919 OFFCURVE",
"186 892 CURVE SMOOTH",
"199 837 OFFCURVE",
"207 799 OFFCURVE",
"207 776 CURVE SMOOTH",
"207 755 OFFCURVE",
"211 724 OFFCURVE",
"220 682 CURVE SMOOTH",
"228 640 OFFCURVE",
"232 608 OFFCURVE",
"232 586 CURVE SMOOTH",
"232 567 OFFCURVE",
"234 540 OFFCURVE",
"239 503 CURVE SMOOTH",
"244 466 OFFCURVE",
"246 439 OFFCURVE",
"246 420 CURVE SMOOTH",
"246 376 OFFCURVE",
"244 310 OFFCURVE",
"241 222 CURVE SMOOTH",
"238 134 OFFCURVE",
"236 68 OFFCURVE",
"236 25 CURVE SMOOTH",
"236 2 OFFCURVE",
"245 -25 OFFCURVE",
"265 -25 CURVE SMOOTH"
);
}
);
width = 516;
},
{
anchors = (
{
name = bottom;
position = "{272, 0}";
},
{
name = top;
position = "{272, 1552}";
},
{
name = topleft;
position = "{20, 1552}";
}
);
layerId = "156B637B-193E-48A3-AAC8-7B4A3960F885";
paths = (
{
closed = 1;
nodes = (
"305 -25 OFFCURVE",
"337 -1 OFFCURVE",
"337 35 CURVE SMOOTH",
"337 87 LINE SMOOTH",
"337 98 OFFCURVE",
"336 114 OFFCURVE",
"334 135 CURVE",
"331 156 OFFCURVE",
"330 172 OFFCURVE",
"330 183 CURVE SMOOTH",
"330 244 OFFCURVE",
"328 334 OFFCURVE",
"325 455 CURVE SMOOTH",
"321 575 OFFCURVE",
"319 665 OFFCURVE",
"319 726 CURVE SMOOTH",
"319 757 LINE",
"318 766 OFFCURVE",
"319 778 OFFCURVE",
"322 794 CURVE",
"324 809 OFFCURVE",
"325 821 OFFCURVE",
"325 828 CURVE SMOOTH",
"325 907 OFFCURVE",
"341 1022 OFFCURVE",
"374 1174 CURVE SMOOTH",
"407 1326 OFFCURVE",
"423 1440 OFFCURVE",
"423 1517 CURVE SMOOTH",
"423 1532 OFFCURVE",
"405 1539 OFFCURVE",
"369 1539 CURVE SMOOTH",
"350 1539 OFFCURVE",
"334 1524 OFFCURVE",
"320 1493 CURVE SMOOTH",
"306 1462 OFFCURVE",
"295 1422 OFFCURVE",
"287 1374 CURVE SMOOTH",
"271 1277 OFFCURVE",
"262 1182 OFFCURVE",
"255 1092 CURVE SMOOTH",
"251 1047 OFFCURVE",
"248 1018 OFFCURVE",
"245 1006 CURVE",
"241 1019 OFFCURVE",
"235 1049 OFFCURVE",
"226 1095 CURVE SMOOTH",
"217 1140 OFFCURVE",
"208 1187 OFFCURVE",
"198 1236 CURVE SMOOTH",
"177 1333 OFFCURVE",
"153 1439 OFFCURVE",
"125 1502 CURVE SMOOTH",
"110 1533 OFFCURVE",
"96 1549 OFFCURVE",
"82 1549 CURVE SMOOTH",
"59 1549 OFFCURVE",
"30 1533 OFFCURVE",
"30 1513 CURVE SMOOTH",
"30 1404 OFFCURVE",
"69 1254 OFFCURVE",
"109 1146 CURVE SMOOTH",
"149 1037 OFFCURVE",
"188 887 OFFCURVE",
"188 776 CURVE SMOOTH",
"188 736 OFFCURVE",
"195 677 OFFCURVE",
"208 599 CURVE SMOOTH",
"221 520 OFFCURVE",
"227 461 OFFCURVE",
"227 421 CURVE SMOOTH",
"227 377 OFFCURVE",
"225 311 OFFCURVE",
"222 223 CURVE SMOOTH",
"219 135 OFFCURVE",
"217 69 OFFCURVE",
"217 25 CURVE SMOOTH",
"217 -3 OFFCURVE",
"241 -25 OFFCURVE",
"269 -25 CURVE SMOOTH"
);
}
);
width = 543;
}
);
note = Y;
unicode = 0059;
},
{
glyphname = Z;
layers = (
{
anchors = (
{
name = bottom;
position = "{253, 0}";
},
{
name = top;
position = "{223, 1544}";
}
);
layerId = "27A8C2A5-6B67-4598-967C-E5EC4FB8AE70";
paths = (
{
closed = 1;
nodes = (
"128 -18 OFFCURVE",
"169 -17 OFFCURVE",
"223 -14 CURVE SMOOTH",
"276 -11 OFFCURVE",
"317 -10 OFFCURVE",
"344 -10 CURVE",
"363 8 LINE",
"363 35 OFFCURVE",
"334 49 OFFCURVE",
"277 49 CURVE SMOOTH",
"262 49 OFFCURVE",
"240 47 OFFCURVE",
"211 44 CURVE SMOOTH",
"182 41 OFFCURVE",
"159 39 OFFCURVE",
"144 39 CURVE",
"144 59 OFFCURVE",
"151 86 OFFCURVE",
"166 121 CURVE SMOOTH",
"181 156 OFFCURVE",
"189 180 OFFCURVE",
"191 195 CURVE SMOOTH",
"213 330 OFFCURVE",
"240 523 OFFCURVE",
"273 775 CURVE SMOOTH",
"306 1027 OFFCURVE",
"326 1182 OFFCURVE",
"334 1239 CURVE",
"337 1256 OFFCURVE",
"340 1286 OFFCURVE",
"343 1329 CURVE SMOOTH",
"349 1414 OFFCURVE",
"356 1485 OFFCURVE",
"375 1526 CURVE",
"375 1551 OFFCURVE",
"364 1563 OFFCURVE",
"342 1563 CURVE SMOOTH",
"320 1563 OFFCURVE",
"288 1560 OFFCURVE",
"246 1553 CURVE SMOOTH",
"204 1546 OFFCURVE",
"172 1542 OFFCURVE",
"150 1542 CURVE SMOOTH",
"128 1542 OFFCURVE",
"112 1543 OFFCURVE",
"101 1546 CURVE",
"86 1530 LINE",
"86 1503 OFFCURVE",
"117 1489 OFFCURVE",
"178 1489 CURVE SMOOTH",
"194 1489 OFFCURVE",
"217 1491 OFFCURVE",
"248 1494 CURVE SMOOTH",
"279 1497 OFFCURVE",
"301 1499 OFFCURVE",
"316 1499 CURVE",
"315 1454 OFFCURVE",
"310 1410 OFFCURVE",
"299 1339 CURVE SMOOTH",
"294 1303 OFFCURVE",
"290 1279 OFFCURVE",
"289 1268 CURVE",
"269 1117 OFFCURVE",
"216 739 OFFCURVE",
"195 588 CURVE",
"186 549 OFFCURVE",
"178 488 OFFCURVE",
"169 407 CURVE SMOOTH",
"152 244 OFFCURVE",
"129 111 OFFCURVE",
"70 8 CURVE",
"77 -9 OFFCURVE",
"87 -18 OFFCURVE",
"101 -18 CURVE SMOOTH"
);
}
);
width = 505;
},
{
anchors = (
{
name = bottom;
position = "{267, 0}";
},
{
name = top;
position = "{267, 1552}";
}
);
layerId = "156B637B-193E-48A3-AAC8-7B4A3960F885";
paths = (
{
closed = 1;
nodes = (
"136 -19 OFFCURVE",
"178 -18 OFFCURVE",
"235 -15 CURVE SMOOTH",
"291 -12 OFFCURVE",
"333 -11 OFFCURVE",
"361 -11 CURVE",
"393 21 LINE",
"393 30 LINE SMOOTH",
"393 72 OFFCURVE",
"357 93 OFFCURVE",
"285 93 CURVE SMOOTH",
"268 93 OFFCURVE",
"247 92 OFFCURVE",
"221 89 CURVE SMOOTH",
"195 86 OFFCURVE",
"180 85 OFFCURVE",
"177 85 CURVE",
"328 674 OFFCURVE",
"404 1148 OFFCURVE",
"404 1505 CURVE SMOOTH",
"404 1537 OFFCURVE",
"380 1564 OFFCURVE",
"348 1564 CURVE SMOOTH",
"327 1564 OFFCURVE",
"295 1561 OFFCURVE",
"252 1554 CURVE SMOOTH",
"209 1547 OFFCURVE",
"176 1543 OFFCURVE",
"155 1543 CURVE SMOOTH",
"134 1543 OFFCURVE",
"115 1545 OFFCURVE",
"97 1550 CURVE",
"97 1549 LINE",
"69 1515 LINE",
"69 1506 LINE SMOOTH",
"69 1463 OFFCURVE",
"106 1441 OFFCURVE",
"180 1441 CURVE SMOOTH",
"193 1441 OFFCURVE",
"208 1442 OFFCURVE",
"223 1443 CURVE SMOOTH",
"254 1446 OFFCURVE",
"288 1450 OFFCURVE",
"297 1451 CURVE",
"292 1364 OFFCURVE",
"277 1223 OFFCURVE",
"252 1028 CURVE SMOOTH",
"202 637 OFFCURVE",
"113 131 OFFCURVE",
"50 31 CURVE",
"63 -2 OFFCURVE",
"82 -19 OFFCURVE",
"108 -19 CURVE SMOOTH"
);
}
);
width = 534;
}
);
note = Z;
unicode = 005A;
},
{
glyphname = a;
layers = (
{
anchors = (
{
name = bottom;
position = "{321, 0}";
},
{
name = ogonek;
position = "{521, 0}";
},
{
name = top;
position = "{381, 1369}";
}
);
layerId = "27A8C2A5-6B67-4598-967C-E5EC4FB8AE70";
paths = (
{
closed = 1;
nodes = (
"562 -12 OFFCURVE",
"567 -2 OFFCURVE",
"567 12 CURVE SMOOTH",
"567 18 LINE",
"508 485 OFFCURVE",
"470 815 OFFCURVE",
"453 1010 CURVE SMOOTH",
"450 1037 OFFCURVE",
"446 1073 OFFCURVE",
"441 1118 CURVE SMOOTH",
"430 1209 OFFCURVE",
"426 1264 OFFCURVE",
"426 1343 CURVE SMOOTH",
"426 1362 OFFCURVE",
"406 1374 OFFCURVE",
"389 1374 CURVE",
"381 1366 OFFCURVE",
"369 1362 OFFCURVE",
"352 1362 CURVE SMOOTH",
"349 1362 OFFCURVE",
"344 1362 OFFCURVE",
"338 1363 CURVE SMOOTH",
"331 1364 OFFCURVE",
"327 1364 OFFCURVE",
"324 1364 CURVE",
"320 1357 OFFCURVE",
"316 1336 OFFCURVE",
"311 1303 CURVE SMOOTH",
"306 1269 OFFCURVE",
"302 1230 OFFCURVE",
"297 1187 CURVE SMOOTH",
"292 1143 OFFCURVE",
"290 1118 OFFCURVE",
"289 1112 CURVE SMOOTH",
"282 1067 OFFCURVE",
"270 1004 OFFCURVE",
"253 922 CURVE SMOOTH",
"235 840 OFFCURVE",
"223 780 OFFCURVE",
"217 743 CURVE SMOOTH",
"215 731 OFFCURVE",
"208 686 OFFCURVE",
"195 608 CURVE SMOOTH",
"182 530 OFFCURVE",
"174 478 OFFCURVE",
"169 453 CURVE SMOOTH",
"164 427 OFFCURVE",
"157 385 OFFCURVE",
"146 326 CURVE SMOOTH",
"125 208 OFFCURVE",
"107 126 OFFCURVE",
"84 37 CURVE",
"84 36 OFFCURVE",
"83 34 OFFCURVE",
"82 31 CURVE SMOOTH",
"81 28 OFFCURVE",
"80 26 OFFCURVE",
"80 25 CURVE SMOOTH",
"80 8 OFFCURVE",
"104 -10 OFFCURVE",
"121 -10 CURVE SMOOTH",
"132 -10 OFFCURVE",
"142 2 OFFCURVE",
"152 25 CURVE",
"161 48 OFFCURVE",
"169 77 OFFCURVE",
"176 111 CURVE SMOOTH",
"189 179 OFFCURVE",
"196 226 OFFCURVE",
"199 258 CURVE SMOOTH",
"203 299 LINE",
"204 300 OFFCURVE",
"204 303 OFFCURVE",
"205 306 CURVE",
"206 313 OFFCURVE",
"210 315 OFFCURVE",
"219 315 CURVE SMOOTH",
"235 315 OFFCURVE",
"259 313 OFFCURVE",
"290 310 CURVE SMOOTH",
"321 307 OFFCURVE",
"346 305 OFFCURVE",
"365 305 CURVE SMOOTH",
"406 305 OFFCURVE",
"440 302 OFFCURVE",
"466 295 CURVE",
"467 285 OFFCURVE",
"479 196 OFFCURVE",
"500 27 CURVE SMOOTH",
"505 -16 OFFCURVE",
"511 -18 OFFCURVE",
"551 -18 CURVE"
);
},
{
closed = 1;
nodes = (
"375 350 OFFCURVE",
"221 361 OFFCURVE",
"221 376 CURVE SMOOTH",
"221 421 OFFCURVE",
"237 520 OFFCURVE",
"268 674 CURVE",
"271 686 OFFCURVE",
"308 868 OFFCURVE",
"379 1221 CURVE",
"421 782 OFFCURVE",
"447 491 OFFCURVE",
"457 350 CURVE",
"436 350 LINE SMOOTH"
);
}
);
width = 642;
},
{
anchors = (
{
name = bottom;
position = "{306, 0}";
},
{
name = ogonek;
position = "{551, 10}";
},
{
name = top;
position = "{356, 1407}";
}
);
layerId = "156B637B-193E-48A3-AAC8-7B4A3960F885";
paths = (
{
closed = 1;
nodes = (
"551 -10 OFFCURVE",
"562 9 OFFCURVE",
"562 39 CURVE SMOOTH",
"562 41 LINE SMOOTH",
"562 61 OFFCURVE",
"556 103 OFFCURVE",
"543 168 CURVE SMOOTH",
"530 233 OFFCURVE",
"523 273 OFFCURVE",
"523 290 CURVE SMOOTH",
"523 303 OFFCURVE",
"519 324 OFFCURVE",
"512 353 CURVE SMOOTH",
"505 382 OFFCURVE",
"501 403 OFFCURVE",
"501 416 CURVE SMOOTH",
"501 506 OFFCURVE",
"487 653 OFFCURVE",
"460 858 CURVE SMOOTH",
"432 1063 OFFCURVE",
"418 1217 OFFCURVE",
"418 1321 CURVE SMOOTH",
"418 1356 OFFCURVE",
"385 1373 OFFCURVE",
"348 1373 CURVE SMOOTH",
"279 1373 LINE",
"256 1340 OFFCURVE",
"248 1273 OFFCURVE",
"242 1183 CURVE SMOOTH",
"239 1138 OFFCURVE",
"236 1110 OFFCURVE",
"235 1100 CURVE SMOOTH",
"190 763 OFFCURVE",
"122 417 OFFCURVE",
"30 62 CURVE",
"30 61 OFFCURVE",
"29 58 OFFCURVE",
"28 54 CURVE",
"26 49 OFFCURVE",
"25 46 OFFCURVE",
"25 44 CURVE SMOOTH",
"25 12 OFFCURVE",
"58 -11 OFFCURVE",
"90 -11 CURVE SMOOTH",
"107 -11 OFFCURVE",
"121 -4 OFFCURVE",
"132 9 CURVE SMOOTH",
"153 35 OFFCURVE",
"164 89 OFFCURVE",
"171 142 CURVE SMOOTH",
"178 195 OFFCURVE",
"190 279 OFFCURVE",
"205 332 CURVE",
"407 302 LINE",
"415 258 LINE SMOOTH",
"424 199 OFFCURVE",
"437 101 OFFCURVE",
"437 49 CURVE SMOOTH",
"437 -4 OFFCURVE",
"471 -19 OFFCURVE",
"528 -19 CURVE"
);
},
{
closed = 1;
nodes = (
"297 382 OFFCURVE",
"236 393 OFFCURVE",
"213 408 CURVE",
"231 549 OFFCURVE",
"271 791 OFFCURVE",
"333 1134 CURVE",
"337 1090 OFFCURVE",
"344 1019 OFFCURVE",
"355 922 CURVE SMOOTH",
"376 726 OFFCURVE",
"388 588 OFFCURVE",
"388 451 CURVE SMOOTH",
"388 420 OFFCURVE",
"390 395 OFFCURVE",
"394 375 CURVE"
);
}
);
width = 612;
}
);
note = a;
unicode = 0061;
},
{
glyphname = ae;
layers = (
{
anchors = (
{
name = bottom;
position = "{413, 0}";
},
{
name = top;
position = "{537, 1378}";
}
);
layerId = "27A8C2A5-6B67-4598-967C-E5EC4FB8AE70";
paths = (
{
closed = 1;
nodes = (
"489 -14 OFFCURVE",
"494 -14 OFFCURVE",
"501 -13 CURVE SMOOTH",
"508 -12 OFFCURVE",
"512 -12 OFFCURVE",
"515 -12 CURVE SMOOTH",
"522 -12 OFFCURVE",
"527 -13 OFFCURVE",
"531 -14 CURVE",
"539 -10 OFFCURVE",
"567 -8 OFFCURVE",
"616 -7 CURVE SMOOTH",
"664 -6 OFFCURVE",
"708 -3 OFFCURVE",
"749 2 CURVE SMOOTH",
"790 7 OFFCURVE",
"810 17 OFFCURVE",
"810 31 CURVE SMOOTH",
"810 48 OFFCURVE",
"785 57 OFFCURVE",
"765 57 CURVE SMOOTH",
"739 57 OFFCURVE",
"700 53 OFFCURVE",
"649 46 CURVE SMOOTH",
"598 39 OFFCURVE",
"559 35 OFFCURVE",
"533 35 CURVE SMOOTH",
"521 35 OFFCURVE",
"515 47 OFFCURVE",
"515 70 CURVE SMOOTH",
"515 79 OFFCURVE",
"515 93 OFFCURVE",
"516 112 CURVE SMOOTH",
"517 131 OFFCURVE",
"517 145 OFFCURVE",
"517 154 CURVE SMOOTH",
"517 207 OFFCURVE",
"516 285 OFFCURVE",
"513 388 CURVE SMOOTH",
"510 491 OFFCURVE",
"509 569 OFFCURVE",
"509 621 CURVE",
"564 621 LINE SMOOTH",
"661 621 OFFCURVE",
"709 632 OFFCURVE",
"709 655 CURVE",
"681 690 LINE",
"610 690 OFFCURVE",
"556 683 OFFCURVE",
"519 670 CURVE",
"509 682 LINE",
"509 716 OFFCURVE",
"509 765 OFFCURVE",
"508 829 CURVE SMOOTH",
"507 892 OFFCURVE",
"507 941 OFFCURVE",
"507 975 CURVE SMOOTH",
"507 1009 OFFCURVE",
"506 1061 OFFCURVE",
"504 1132 CURVE SMOOTH",
"502 1203 OFFCURVE",
"501 1255 OFFCURVE",
"501 1288 CURVE",
"523 1291 OFFCURVE",
"556 1292 OFFCURVE",
"601 1292 CURVE SMOOTH",
"703 1292 LINE",
"716 1317 LINE",
"716 1339 OFFCURVE",
"695 1350 OFFCURVE",
"652 1350 CURVE SMOOTH",
"634 1350 OFFCURVE",
"607 1350 OFFCURVE",
"572 1349 CURVE SMOOTH",
"537 1348 OFFCURVE",
"511 1348 OFFCURVE",
"494 1348 CURVE SMOOTH",
"460 1348 OFFCURVE",
"431 1304 OFFCURVE",
"406 1217 CURVE",
"406 1216 OFFCURVE",
"406 1215 OFFCURVE",
"405 1213 CURVE",
"404 1210 OFFCURVE",
"404 1209 OFFCURVE",
"404 1208 CURVE",
"400 1196 LINE",
"295 920 OFFCURVE",
"205 665 OFFCURVE",
"132 432 CURVE",
"79 227 OFFCURVE",
"51 92 OFFCURVE",
"50 27 CURVE SMOOTH",
"50 18 OFFCURVE",
"57 2 OFFCURVE",
"66 2 CURVE SMOOTH",
"77 2 OFFCURVE",
"88 16 OFFCURVE",
"98 43 CURVE SMOOTH",
"117 97 OFFCURVE",
"138 208 OFFCURVE",
"138 209 CURVE",
"240 580 LINE SMOOTH",
"242 587 OFFCURVE",
"258 593 OFFCURVE",
"288 598 CURVE SMOOTH",
"317 603 OFFCURVE",
"351 606 OFFCURVE",
"388 609 CURVE SMOOTH",
"425 611 OFFCURVE",
"446 613 OFFCURVE",
"451 614 CURVE",
"462 600 LINE",
"462 559 OFFCURVE",
"464 498 OFFCURVE",
"467 416 CURVE SMOOTH",
"470 333 OFFCURVE",
"472 271 OFFCURVE",
"472 229 CURVE SMOOTH",
"472 150 OFFCURVE",
"466 78 OFFCURVE",
"455 14 CURVE",
"484 -14 LINE"
);
},
{
closed = 1;
nodes = (
"262 696 OFFCURVE",
"436 1212 OFFCURVE",
"460 1237 CURVE",
"461 1220 OFFCURVE",
"462 1196 OFFCURVE",
"462 1163 CURVE SMOOTH",
"462 1085 LINE SMOOTH",
"462 1070 OFFCURVE",
"462 1047 OFFCURVE",
"461 1016 CURVE SMOOTH",
"460 985 OFFCURVE",
"460 963 OFFCURVE",
"460 948 CURVE SMOOTH",
"460 668 LINE",
"383 651 OFFCURVE",
"315 643 OFFCURVE",
"255 643 CURVE"
);
}
);
width = 825;
},
{
anchors = (
{
name = bottom;
position = "{449, 0}";
},
{
name = top;
position = "{632, 1600}";
}
);
layerId = "156B637B-193E-48A3-AAC8-7B4A3960F885";
paths = (
{
closed = 1;
nodes = (
"566 -42 OFFCURVE",
"579 -36 OFFCURVE",
"596 -26 CURVE",
"613 -17 OFFCURVE",
"627 -12 OFFCURVE",
"638 -12 CURVE SMOOTH",
"670 -12 LINE SMOOTH",
"833 -12 OFFCURVE",
"914 10 OFFCURVE",
"914 53 CURVE SMOOTH",
"914 84 OFFCURVE",
"879 103 OFFCURVE",
"846 103 CURVE SMOOTH",
"820 103 OFFCURVE",
"782 100 OFFCURVE",
"732 93 CURVE SMOOTH",
"681 86 OFFCURVE",
"644 82 OFFCURVE",
"619 82 CURVE",
"619 147 OFFCURVE",
"618 241 OFFCURVE",
"616 363 CURVE SMOOTH",
"614 484 OFFCURVE",
"613 571 OFFCURVE",
"613 622 CURVE",
"692 621 LINE",
"701 621 LINE SMOOTH",
"776 621 OFFCURVE",
"814 643 OFFCURVE",
"814 687 CURVE",
"772 735 LINE",
"762 735 LINE SMOOTH",
"743 735 OFFCURVE",
"717 732 OFFCURVE",
"684 727 CURVE SMOOTH",
"651 721 OFFCURVE",
"627 717 OFFCURVE",
"614 716 CURVE",
"614 766 OFFCURVE",
"615 841 OFFCURVE",
"617 941 CURVE SMOOTH",
"619 1041 OFFCURVE",
"620 1116 OFFCURVE",
"620 1166 CURVE SMOOTH",
"620 1199 OFFCURVE",
"618 1247 OFFCURVE",
"614 1308 CURVE SMOOTH",
"609 1369 OFFCURVE",
"607 1413 OFFCURVE",
"606 1440 CURVE",
"667 1447 OFFCURVE",
"731 1450 OFFCURVE",
"800 1450 CURVE",
"821 1492 LINE",
"821 1498 LINE SMOOTH",
"821 1535 OFFCURVE",
"792 1554 OFFCURVE",
"734 1554 CURVE SMOOTH",
"717 1554 OFFCURVE",
"690 1552 OFFCURVE",
"655 1549 CURVE SMOOTH",
"620 1546 OFFCURVE",
"593 1544 OFFCURVE",
"576 1544 CURVE SMOOTH",
"555 1544 OFFCURVE",
"537 1539 OFFCURVE",
"522 1521 CURVE SMOOTH",
"515 1512 OFFCURVE",
"509 1504 OFFCURVE",
"504 1498 CURVE SMOOTH",
"499 1492 OFFCURVE",
"493 1482 OFFCURVE",
"488 1468 CURVE SMOOTH",
"483 1453 OFFCURVE",
"479 1444 OFFCURVE",
"477 1439 CURVE SMOOTH",
"473 1429 OFFCURVE",
"460 1381 OFFCURVE",
"460 1380 CURVE",
"455 1363 OFFCURVE",
"439 1315 OFFCURVE",
"414 1235 CURVE SMOOTH",
"363 1074 OFFCURVE",
"341 998 OFFCURVE",
"287 819 CURVE SMOOTH",
"233 639 OFFCURVE",
"200 519 OFFCURVE",
"164 372 CURVE SMOOTH",
"127 225 OFFCURVE",
"108 113 OFFCURVE",
"108 48 CURVE SMOOTH",
"108 25 OFFCURVE",
"127 1 OFFCURVE",
"148 1 CURVE SMOOTH",
"163 1 OFFCURVE",
"177 11 OFFCURVE",
"190 31 CURVE",
"214 71 OFFCURVE",
"221 112 OFFCURVE",
"233 172 CURVE SMOOTH",
"238 202 OFFCURVE",
"242 220 OFFCURVE",
"243 226 CURVE",
"344 611 LINE",
"357 616 OFFCURVE",
"372 619 OFFCURVE",
"389 622 CURVE SMOOTH",
"421 627 OFFCURVE",
"440 629 OFFCURVE",
"478 631 CURVE SMOOTH",
"497 632 OFFCURVE",
"511 632 OFFCURVE",
"521 633 CURVE",
"521 591 OFFCURVE",
"523 528 OFFCURVE",
"526 443 CURVE SMOOTH",
"529 358 OFFCURVE",
"531 295 OFFCURVE",
"531 253 CURVE SMOOTH",
"531 204 OFFCURVE",
"525 120 OFFCURVE",
"514 3 CURVE",
"512 2 LINE",
"557 -43 LINE"
);
},
{
closed = 1;
nodes = (
"395 833 OFFCURVE",
"448 1032 OFFCURVE",
"523 1283 CURVE",
"524 1254 OFFCURVE",
"525 1211 OFFCURVE",
"525 1153 CURVE SMOOTH",
"525 1096 OFFCURVE",
"524 1016 OFFCURVE",
"522 912 CURVE SMOOTH",
"519 808 OFFCURVE",
"518 739 OFFCURVE",
"517 706 CURVE",
"480 698 OFFCURVE",
"429 692 OFFCURVE",
"364 688 CURVE"
);
}
);
width = 898;
}
);
note = ae;
unicode = 00E6;
},
{
glyphname = b;
layers = (
{
anchors = (
{
name = bottom;
position = "{290, 0}";
},
{
name = top;
position = "{290, 1349}";
}
);
layerId = "27A8C2A5-6B67-4598-967C-E5EC4FB8AE70";
paths = (
{
closed = 1;
nodes = (
"242 -23 OFFCURVE",
"295 -6 OFFCURVE",
"338 27 CURVE SMOOTH",
"425 94 OFFCURVE",
"460 197 OFFCURVE",
"460 317 CURVE SMOOTH",
"460 346 LINE",
"458 399 LINE SMOOTH",
"456 441 OFFCURVE",
"453 477 OFFCURVE",
"450 507 CURVE SMOOTH",
"442 567 OFFCURVE",
"410 657 OFFCURVE",
"357 698 CURVE",
"360 704 OFFCURVE",
"370 719 OFFCURVE",
"386 742 CURVE SMOOTH",
"401 765 OFFCURVE",
"412 782 OFFCURVE",
"417 795 CURVE",
"415 795 LINE",
"437 855 OFFCURVE",
"448 936 OFFCURVE",
"448 1038 CURVE SMOOTH",
"448 1158 OFFCURVE",
"435 1229 OFFCURVE",
"384 1309 CURVE",
"384 1310 OFFCURVE",
"385 1312 OFFCURVE",
"386 1315 CURVE",
"385 1340 OFFCURVE",
"239 1382 OFFCURVE",
"202 1382 CURVE SMOOTH",
"169 1382 OFFCURVE",
"159 1362 OFFCURVE",
"159 1329 CURVE SMOOTH",
"159 1317 LINE",
"167 1307 LINE",
"168 1280 OFFCURVE",
"169 1240 OFFCURVE",
"169 1188 CURVE SMOOTH",
"169 1133 OFFCURVE",
"167 1052 OFFCURVE",
"163 943 CURVE SMOOTH",
"159 834 OFFCURVE",
"157 753 OFFCURVE",
"157 698 CURVE SMOOTH",
"157 679 OFFCURVE",
"158 649 OFFCURVE",
"159 608 CURVE SMOOTH",
"160 567 OFFCURVE",
"161 537 OFFCURVE",
"161 516 CURVE SMOOTH",
"161 469 OFFCURVE",
"158 397 OFFCURVE",
"151 301 CURVE SMOOTH",
"144 204 OFFCURVE",
"140 132 OFFCURVE",
"140 84 CURVE SMOOTH",
"140 55 OFFCURVE",
"141 33 OFFCURVE",
"142 20 CURVE",
"142 -4 OFFCURVE",
"157 -23 OFFCURVE",
"181 -23 CURVE SMOOTH"
);
},
{
closed = 1;
nodes = (
"212 62 OFFCURVE",
"212 76 OFFCURVE",
"211 97 CURVE SMOOTH",
"210 118 OFFCURVE",
"210 136 OFFCURVE",
"210 150 CURVE SMOOTH",
"210 201 OFFCURVE",
"214 233 OFFCURVE",
"222 248 CURVE",
"218 271 OFFCURVE",
"216 303 OFFCURVE",
"216 342 CURVE SMOOTH",
"216 389 LINE SMOOTH",
"216 473 OFFCURVE",
"219 566 OFFCURVE",
"226 668 CURVE",
"255 668 OFFCURVE",
"281 659 OFFCURVE",
"303 642 CURVE SMOOTH",
"347 606 OFFCURVE",
"368 558 OFFCURVE",
"382 490 CURVE SMOOTH",
"396 421 OFFCURVE",
"397 377 OFFCURVE",
"397 325 CURVE SMOOTH",
"397 317 OFFCURVE",
"397 310 OFFCURVE",
"397 303 CURVE SMOOTH",
"397 296 OFFCURVE",
"397 290 OFFCURVE",
"397 286 CURVE",
"396 279 LINE",
"396 174 OFFCURVE",
"313 57 OFFCURVE",
"212 57 CURVE"
);
},
{
closed = 1;
nodes = (
"227 742 OFFCURVE",
"226 746 OFFCURVE",
"224 753 CURVE",
"222 759 OFFCURVE",
"221 763 OFFCURVE",
"220 766 CURVE",
"220 791 LINE SMOOTH",
"220 808 OFFCURVE",
"220 832 OFFCURVE",
"221 864 CURVE SMOOTH",
"222 895 OFFCURVE",
"222 919 OFFCURVE",
"222 934 CURVE SMOOTH",
"222 941 OFFCURVE",
"222 955 OFFCURVE",
"221 974 CURVE SMOOTH",
"220 993 OFFCURVE",
"220 1016 OFFCURVE",
"220 1044 CURVE SMOOTH",
"220 1223 OFFCURVE",
"235 1313 OFFCURVE",
"265 1313 CURVE SMOOTH",
"302 1313 OFFCURVE",
"332 1288 OFFCURVE",
"346 1250 CURVE SMOOTH",
"360 1212 OFFCURVE",
"365 1179 OFFCURVE",
"368 1143 CURVE",
"372 1139 LINE",
"373 1129 OFFCURVE",
"374 1116 OFFCURVE",
"375 1100 CURVE SMOOTH",
"377 1068 OFFCURVE",
"378 1041 OFFCURVE",
"378 1012 CURVE SMOOTH",
"378 830 OFFCURVE",
"333 739 OFFCURVE",
"243 739 CURVE SMOOTH",
"228 739 LINE"
);
}
);
width = 580;
},
{
anchors = (
{
name = bottom;
position = "{293, 0}";
},
{
name = top;
position = "{233, 1397}";
}
);
layerId = "156B637B-193E-48A3-AAC8-7B4A3960F885";
paths = (
{
closed = 1;
nodes = (
"227 -20 OFFCURVE",
"265 -13 OFFCURVE",
"300 1 CURVE SMOOTH",
"368 29 OFFCURVE",
"412 78 OFFCURVE",
"443 143 CURVE SMOOTH",
"474 208 OFFCURVE",
"486 280 OFFCURVE",
"486 360 CURVE SMOOTH",
"486 513 OFFCURVE",
"470 629 OFFCURVE",
"391 705 CURVE",
"451 790 OFFCURVE",
"474 881 OFFCURVE",
"474 1028 CURVE SMOOTH",
"474 1124 OFFCURVE",
"454 1206 OFFCURVE",
"413 1274 CURVE SMOOTH",
"372 1342 OFFCURVE",
"270 1383 OFFCURVE",
"205 1383 CURVE SMOOTH",
"152 1383 OFFCURVE",
"138 1347 OFFCURVE",
"138 1290 CURVE SMOOTH",
"138 1279 LINE",
"139 1269 OFFCURVE",
"141 1252 OFFCURVE",
"144 1228 CURVE SMOOTH",
"147 1204 OFFCURVE",
"149 1186 OFFCURVE",
"149 1173 CURVE SMOOTH",
"149 1101 OFFCURVE",
"148 993 OFFCURVE",
"145 849 CURVE SMOOTH",
"142 704 OFFCURVE",
"140 596 OFFCURVE",
"140 524 CURVE SMOOTH",
"140 475 OFFCURVE",
"137 403 OFFCURVE",
"130 306 CURVE SMOOTH",
"123 209 OFFCURVE",
"120 137 OFFCURVE",
"120 88 CURVE SMOOTH",
"120 57 OFFCURVE",
"121 42 OFFCURVE",
"129 18 CURVE",
"136 -7 OFFCURVE",
"155 -20 OFFCURVE",
"184 -20 CURVE SMOOTH"
);
},
{
closed = 1;
nodes = (
"238 176 LINE SMOOTH",
"238 177 OFFCURVE",
"238 179 OFFCURVE",
"237 181 CURVE SMOOTH",
"236 183 OFFCURVE",
"236 185 OFFCURVE",
"236 186 CURVE SMOOTH",
"236 200 OFFCURVE",
"237 223 OFFCURVE",
"240 256 CURVE SMOOTH",
"242 288 OFFCURVE",
"243 314 OFFCURVE",
"243 333 CURVE SMOOTH",
"243 452 OFFCURVE",
"246 555 OFFCURVE",
"252 643 CURVE",
"274 638 OFFCURVE",
"293 626 OFFCURVE",
"309 607 CURVE SMOOTH",
"341 568 OFFCURVE",
"356 522 OFFCURVE",
"366 458 CURVE SMOOTH",
"376 394 OFFCURVE",
"376 356 OFFCURVE",
"376 308 CURVE SMOOTH",
"376 205 OFFCURVE",
"330 105 OFFCURVE",
"238 84 CURVE"
);
},
{
closed = 1;
nodes = (
"249 1068 LINE SMOOTH",
"249 1180 OFFCURVE",
"257 1253 OFFCURVE",
"273 1288 CURVE",
"329 1281 OFFCURVE",
"357 1189 OFFCURVE",
"357 1012 CURVE SMOOTH",
"357 848 OFFCURVE",
"321 765 OFFCURVE",
"249 763 CURVE"
);
}
);
width = 586;
}
);
leftMetricsKey = h;
note = b;
rightMetricsKey = o;
unicode = 0062;
},
{
glyphname = c;
layers = (
{
anchors = (
{
name = bottom;
position = "{292, 0}";
},
{
name = top;
position = "{292, 1349}";
}
);
layerId = "27A8C2A5-6B67-4598-967C-E5EC4FB8AE70";
paths = (
{
closed = 1;
nodes = (
"416 -33 LINE",
"447 -21 OFFCURVE",
"494 10 OFFCURVE",
"494 31 CURVE SMOOTH",
"494 46 OFFCURVE",
"484 53 OFFCURVE",
"463 53 CURVE",
"449 41 OFFCURVE",
"432 35 OFFCURVE",
"412 35 CURVE SMOOTH",
"347 35 OFFCURVE",
"296 58 OFFCURVE",
"266 100 CURVE SMOOTH",
"236 142 OFFCURVE",
"215 184 OFFCURVE",
"206 248 CURVE SMOOTH",
"197 312 OFFCURVE",
"195 353 OFFCURVE",
"195 414 CURVE SMOOTH",
"195 459 OFFCURVE",
"196 528 OFFCURVE",
"199 620 CURVE SMOOTH",
"202 712 OFFCURVE",
"203 781 OFFCURVE",
"203 827 CURVE",
"207 838 LINE",
"207 865 OFFCURVE",
"208 895 OFFCURVE",
"210 927 CURVE SMOOTH",
"213 990 OFFCURVE",
"227 1098 OFFCURVE",
"249 1170 CURVE SMOOTH",
"271 1242 OFFCURVE",
"313 1303 OFFCURVE",
"369 1303 CURVE SMOOTH",
"455 1303 LINE",
"482 1333 LINE",
"482 1338 OFFCURVE",
"481 1342 OFFCURVE",
"480 1346 CURVE",
"479 1349 OFFCURVE",
"476 1352 OFFCURVE",
"474 1354 CURVE SMOOTH",
"472 1356 OFFCURVE",
"467 1358 OFFCURVE",
"465 1359 CURVE",
"463 1359 OFFCURVE",
"457 1361 OFFCURVE",
"454 1362 CURVE",
"453 1362 OFFCURVE",
"451 1362 OFFCURVE",
"449 1363 CURVE",
"446 1364 OFFCURVE",
"444 1364 OFFCURVE",
"443 1364 CURVE SMOOTH",
"361 1364 LINE",
"352 1359 OFFCURVE",
"335 1351 OFFCURVE",
"310 1342 CURVE",
"285 1332 OFFCURVE",
"266 1322 OFFCURVE",
"254 1313 CURVE SMOOTH",
"229 1294 OFFCURVE",
"208 1263 OFFCURVE",
"191 1220 CURVE SMOOTH",
"156 1135 OFFCURVE",
"142 1060 OFFCURVE",
"134 937 CURVE SMOOTH",
"125 813 OFFCURVE",
"125 773 OFFCURVE",
"125 680 CURVE SMOOTH",
"125 446 LINE SMOOTH",
"125 399 OFFCURVE",
"126 358 OFFCURVE",
"129 323 CURVE SMOOTH",
"133 253 OFFCURVE",
"145 155 OFFCURVE",
"180 89 CURVE SMOOTH",
"215 23 OFFCURVE",
"253 0 OFFCURVE",
"300 -15 CURVE SMOOTH",
"323 -22 OFFCURVE",
"339 -28 OFFCURVE",
"348 -33 CURVE"
);
}
);
width = 584;
},
{
anchors = (
{
name = bottom;
position = "{286, 0}";
},
{
name = top;
position = "{286, 1367}";
}
);
layerId = "156B637B-193E-48A3-AAC8-7B4A3960F885";
paths = (
{
closed = 1;
nodes = (
"474 -29 OFFCURVE",
"512 -2 OFFCURVE",
"512 52 CURVE SMOOTH",
"512 83 OFFCURVE",
"482 97 OFFCURVE",
"450 97 CURVE",
"437 85 OFFCURVE",
"422 79 OFFCURVE",
"406 79 CURVE SMOOTH",
"381 79 OFFCURVE",
"358 83 OFFCURVE",
"338 92 CURVE",
"298 108 OFFCURVE",
"273 132 OFFCURVE",
"254 172 CURVE SMOOTH",
"234 211 OFFCURVE",
"225 246 OFFCURVE",
"219 295 CURVE SMOOTH",
"213 344 OFFCURVE",
"212 375 OFFCURVE",
"212 422 CURVE SMOOTH",
"212 466 OFFCURVE",
"214 532 OFFCURVE",
"217 620 CURVE SMOOTH",
"220 707 OFFCURVE",
"221 773 OFFCURVE",
"221 817 CURVE SMOOTH",
"221 827 LINE SMOOTH",
"221 886 OFFCURVE",
"229 968 OFFCURVE",
"247 1073 CURVE SMOOTH",
"265 1177 OFFCURVE",
"307 1258 OFFCURVE",
"363 1258 CURVE SMOOTH",
"459 1258 LINE",
"484 1259 OFFCURVE",
"503 1285 OFFCURVE",
"503 1312 CURVE SMOOTH",
"503 1341 OFFCURVE",
"483 1364 OFFCURVE",
"440 1364 CURVE SMOOTH",
"393 1364 OFFCURVE",
"350 1357 OFFCURVE",
"313 1342 CURVE SMOOTH",
"238 1312 OFFCURVE",
"193 1274 OFFCURVE",
"159 1195 CURVE SMOOTH",
"125 1115 OFFCURVE",
"109 1061 OFFCURVE",
"100 951 CURVE SMOOTH",
"91 841 OFFCURVE",
"90 787 OFFCURVE",
"90 664 CURVE SMOOTH",
"90 615 LINE SMOOTH",
"90 598 OFFCURVE",
"90 577 OFFCURVE",
"91 550 CURVE",
"91 523 OFFCURVE",
"91 504 OFFCURVE",
"91 495 CURVE SMOOTH",
"91 233 OFFCURVE",
"136 73 OFFCURVE",
"227 14 CURVE SMOOTH",
"260 -7 OFFCURVE",
"338 -29 OFFCURVE",
"399 -29 CURVE SMOOTH"
);
}
);
width = 572;
}
);
leftMetricsKey = O;
note = c;
unicode = 0063;
},
{
glyphname = d;
layers = (
{
anchors = (
{
name = bottom;
position = "{357, 0}";
},
{
name = center;
position = "{357, 675}";
},
{
name = top;
position = "{287, 1349}";
},
{
name = topright;
position = "{693, 1349}";
}
);
layerId = "27A8C2A5-6B67-4598-967C-E5EC4FB8AE70";
paths = (
{
closed = 1;
nodes = (
"329 -10 LINE",
"417 38 OFFCURVE",
"478 103 OFFCURVE",
"508 160 CURVE SMOOTH",
"538 217 OFFCURVE",
"558 307 OFFCURVE",
"564 371 CURVE SMOOTH",
"570 435 OFFCURVE",
"580 547 OFFCURVE",
"593 618 CURVE",
"586 632 OFFCURVE",
"582 653 OFFCURVE",
"582 680 CURVE SMOOTH",
"582 685 OFFCURVE",
"582 691 OFFCURVE",
"583 700 CURVE",
"583 708 OFFCURVE",
"583 714 OFFCURVE",
"583 717 CURVE SMOOTH",
"583 728 OFFCURVE",
"583 744 OFFCURVE",
"584 765 CURVE SMOOTH",
"585 786 OFFCURVE",
"585 802 OFFCURVE",
"585 813 CURVE SMOOTH",
"585 916 OFFCURVE",
"574 998 OFFCURVE",
"552 1057 CURVE",
"547 1069 OFFCURVE",
"536 1088 OFFCURVE",
"517 1115 CURVE SMOOTH",
"498 1141 OFFCURVE",
"487 1158 OFFCURVE",
"486 1167 CURVE",
"488 1171 LINE",
"476 1180 OFFCURVE",
"453 1200 OFFCURVE",
"419 1233 CURVE SMOOTH",
"385 1265 OFFCURVE",
"358 1286 OFFCURVE",
"337 1296 CURVE",
"328 1301 OFFCURVE",
"312 1305 OFFCURVE",
"289 1309 CURVE",
"266 1312 OFFCURVE",
"250 1316 OFFCURVE",
"241 1321 CURVE",
"238 1322 OFFCURVE",
"231 1329 OFFCURVE",
"220 1340 CURVE",
"208 1351 OFFCURVE",
"198 1356 OFFCURVE",
"189 1356 CURVE SMOOTH",
"169 1356 OFFCURVE",
"140 1331 OFFCURVE",
"140 1311 CURVE SMOOTH",
"140 1293 OFFCURVE",
"146 1279 OFFCURVE",
"157 1270 CURVE",
"162 1155 OFFCURVE",
"165 1027 OFFCURVE",
"165 885 CURVE SMOOTH",
"165 831 OFFCURVE",
"164 750 OFFCURVE",
"163 643 CURVE SMOOTH",
"162 536 OFFCURVE",
"161 455 OFFCURVE",
"161 401 CURVE SMOOTH",
"161 270 OFFCURVE",
"164 151 OFFCURVE",
"169 45 CURVE",
"169 8 OFFCURVE",
"175 -10 OFFCURVE",
"187 -10 CURVE SMOOTH"
);
},
{
closed = 1;
nodes = (
"253 76 LINE",
"245 80 LINE",
"247 119 LINE",
"232 335 OFFCURVE",
"224 590 OFFCURVE",
"224 883 CURVE SMOOTH",
"224 1136 OFFCURVE",
"232 1262 OFFCURVE",
"247 1262 CURVE SMOOTH",
"326 1262 OFFCURVE",
"399 1201 OFFCURVE",
"441 1118 CURVE SMOOTH",
"483 1035 OFFCURVE",
"508 945 OFFCURVE",
"511 872 CURVE SMOOTH",
"521 666 LINE",
"521 659 OFFCURVE",
"521 647 OFFCURVE",
"522 631 CURVE SMOOTH",
"523 614 OFFCURVE",
"523 601 OFFCURVE",
"523 592 CURVE SMOOTH",
"523 351 OFFCURVE",
"475 187 OFFCURVE",
"378 100 CURVE",
"373 96 OFFCURVE",
"368 92 OFFCURVE",
"362 87 CURVE SMOOTH",
"356 82 OFFCURVE",
"351 79 OFFCURVE",
"348 76 CURVE",
"340 70 OFFCURVE",
"330 60 OFFCURVE",
"322 49 CURVE",
"259 49 LINE"
);
}
);
width = 713;
},
{
anchors = (
{
name = bottom;
position = "{356, 0}";
},
{
name = center;
position = "{356, 684}";
},
{
name = top;
position = "{246, 1367}";
},
{
name = topright;
position = "{691, 1367}";
}
);
layerId = "156B637B-193E-48A3-AAC8-7B4A3960F885";
paths = (
{
closed = 1;
nodes = (
"338 -12 LINE",
"373 6 OFFCURVE",
"405 27 OFFCURVE",
"433 50 CURVE SMOOTH",
"488 97 OFFCURVE",
"523 141 OFFCURVE",
"550 202 CURVE SMOOTH",
"577 263 OFFCURVE",
"590 312 OFFCURVE",
"598 386 CURVE SMOOTH",
"606 460 OFFCURVE",
"607 508 OFFCURVE",
"607 592 CURVE SMOOTH",
"607 705 LINE SMOOTH",
"607 718 OFFCURVE",
"608 736 OFFCURVE",
"609 759 CURVE SMOOTH",
"610 782 OFFCURVE",
"611 799 OFFCURVE",
"611 808 CURVE SMOOTH",
"611 857 OFFCURVE",
"605 908 OFFCURVE",
"592 959 CURVE SMOOTH",
"567 1062 OFFCURVE",
"515 1158 OFFCURVE",
"448 1232 CURVE SMOOTH",
"381 1306 OFFCURVE",
"288 1353 OFFCURVE",
"192 1353 CURVE SMOOTH",
"157 1353 OFFCURVE",
"120 1321 OFFCURVE",
"120 1286 CURVE SMOOTH",
"120 1254 OFFCURVE",
"124 1193 OFFCURVE",
"132 1103 CURVE SMOOTH",
"140 1012 OFFCURVE",
"144 945 OFFCURVE",
"144 901 CURVE SMOOTH",
"144 830 OFFCURVE",
"143 722 OFFCURVE",
"141 579 CURVE SMOOTH",
"139 436 OFFCURVE",
"138 328 OFFCURVE",
"138 256 CURVE SMOOTH",
"138 77 OFFCURVE",
"155 -12 OFFCURVE",
"190 -12 CURVE SMOOTH"
);
},
{
closed = 1;
nodes = (
"281 141 LINE SMOOTH",
"281 242 OFFCURVE",
"276 392 OFFCURVE",
"266 593 CURVE SMOOTH",
"255 794 OFFCURVE",
"250 944 OFFCURVE",
"250 1045 CURVE SMOOTH",
"250 1133 OFFCURVE",
"255 1204 OFFCURVE",
"265 1258 CURVE",
"424 1239 OFFCURVE",
"503 1024 OFFCURVE",
"503 612 CURVE SMOOTH",
"503 589 OFFCURVE",
"503 565 OFFCURVE",
"502 541 CURVE SMOOTH",
"500 493 OFFCURVE",
"492 414 OFFCURVE",
"480 352 CURVE SMOOTH",
"468 290 OFFCURVE",
"445 218 OFFCURVE",
"415 172 CURVE SMOOTH",
"385 126 OFFCURVE",
"337 92 OFFCURVE",
"281 92 CURVE"
);
}
);
width = 711;
}
);
leftMetricsKey = h;
note = d;
rightMetricsKey = o;
unicode = 0064;
},
{
glyphname = eth;
layers = (
{
layerId = "27A8C2A5-6B67-4598-967C-E5EC4FB8AE70";
paths = (
{
closed = 1;
nodes = (
"373 -29 OFFCURVE",
"413 5 OFFCURVE",
"433 49 CURVE SMOOTH",
"452 93 OFFCURVE",
"465 163 OFFCURVE",
"469 216 CURVE SMOOTH",
"472 268 OFFCURVE",
"476 341 OFFCURVE",
"480 369 CURVE",
"487 530 OFFCURVE",
"490 676 OFFCURVE",
"490 807 CURVE SMOOTH",
"490 815 LINE SMOOTH",
"490 1008 OFFCURVE",
"478 1169 OFFCURVE",
"455 1296 CURVE",
"514 1303 OFFCURVE",
"543 1309 OFFCURVE",
"543 1313 CURVE",
"545 1323 LINE",
"545 1330 OFFCURVE",
"541 1333 OFFCURVE",
"533 1333 CURVE SMOOTH",
"514 1333 OFFCURVE",
"487 1332 OFFCURVE",
"451 1329 CURVE",
"416 1489 OFFCURVE",
"364 1569 OFFCURVE",
"293 1569 CURVE SMOOTH",
"284 1569 OFFCURVE",
"269 1559 OFFCURVE",
"269 1550 CURVE SMOOTH",
"269 1533 OFFCURVE",
"289 1521 OFFCURVE",
"314 1510 CURVE",
"327 1505 OFFCURVE",
"335 1500 OFFCURVE",
"339 1497 CURVE",
"364 1476 OFFCURVE",
"384 1418 OFFCURVE",
"400 1323 CURVE",
"352 1316 OFFCURVE",
"308 1313 OFFCURVE",
"269 1313 CURVE SMOOTH",
"254 1313 OFFCURVE",
"246 1303 OFFCURVE",
"246 1284 CURVE SMOOTH",
"246 1279 OFFCURVE",
"250 1276 OFFCURVE",
"257 1276 CURVE SMOOTH",
"279 1276 OFFCURVE",
"328 1280 OFFCURVE",
"404 1288 CURVE",
"421 1178 OFFCURVE",
"432 1048 OFFCURVE",
"437 897 CURVE",
"421 908 OFFCURVE",
"406 913 OFFCURVE",
"392 913 CURVE SMOOTH",
"341 913 OFFCURVE",
"298 880 OFFCURVE",
"270 819 CURVE SMOOTH",
"241 758 OFFCURVE",
"219 694 OFFCURVE",
"207 602 CURVE SMOOTH",
"194 510 OFFCURVE",
"186 447 OFFCURVE",
"183 355 CURVE SMOOTH",
"179 262 OFFCURVE",
"179 230 OFFCURVE",
"179 170 CURVE SMOOTH",
"179 147 OFFCURVE",
"180 128 OFFCURVE",
"182 111 CURVE SMOOTH",
"185 77 OFFCURVE",
"196 36 OFFCURVE",
"216 12 CURVE SMOOTH",
"236 -12 OFFCURVE",
"272 -29 OFFCURVE",
"320 -29 CURVE SMOOTH"
);
},
{
closed = 1;
nodes = (
"253 12 OFFCURVE",
"228 66 OFFCURVE",
"228 174 CURVE SMOOTH",
"228 231 OFFCURVE",
"230 289 OFFCURVE",
"235 405 CURVE SMOOTH",
"240 520 OFFCURVE",
"255 617 OFFCURVE",
"275 713 CURVE SMOOTH",
"295 808 OFFCURVE",
"331 868 OFFCURVE",
"375 868 CURVE",
"402 863 OFFCURVE",
"423 855 OFFCURVE",
"437 844 CURVE",
"437 727 LINE SMOOTH",
"437 531 OFFCURVE",
"426 344 OFFCURVE",
"404 166 CURVE",
"403 162 OFFCURVE",
"402 153 OFFCURVE",
"401 138 CURVE SMOOTH",
"398 108 OFFCURVE",
"397 103 OFFCURVE",
"392 79 CURVE SMOOTH",
"387 54 OFFCURVE",
"378 46 OFFCURVE",
"365 32 CURVE SMOOTH",
"352 18 OFFCURVE",
"331 12 OFFCURVE",
"304 12 CURVE SMOOTH"
);
}
);
width = 680;
},
{
layerId = "156B637B-193E-48A3-AAC8-7B4A3960F885";
paths = (
{
closed = 1;
nodes = (
"310 -15 OFFCURVE",
"337 -8 OFFCURVE",
"360 5 CURVE SMOOTH",
"405 32 OFFCURVE",
"425 66 OFFCURVE",
"438 126 CURVE SMOOTH",
"450 186 OFFCURVE",
"451 220 OFFCURVE",
"451 283 CURVE SMOOTH",
"451 322 OFFCURVE",
"453 382 OFFCURVE",
"456 462 CURVE SMOOTH",
"459 542 OFFCURVE",
"460 602 OFFCURVE",
"460 641 CURVE SMOOTH",
"460 897 OFFCURVE",
"443 1106 OFFCURVE",
"408 1267 CURVE",
"478 1280 OFFCURVE",
"513 1300 OFFCURVE",
"513 1326 CURVE SMOOTH",
"513 1337 OFFCURVE",
"507 1355 OFFCURVE",
"496 1355 CURVE SMOOTH",
"472 1355 OFFCURVE",
"435 1354 OFFCURVE",
"386 1351 CURVE",
"341 1505 OFFCURVE",
"277 1582 OFFCURVE",
"192 1582 CURVE SMOOTH",
"167 1582 OFFCURVE",
"139 1563 OFFCURVE",
"139 1539 CURVE SMOOTH",
"139 1503 OFFCURVE",
"181 1480 OFFCURVE",
"221 1473 CURVE",
"239 1458 OFFCURVE",
"258 1414 OFFCURVE",
"277 1340 CURVE",
"166 1326 OFFCURVE",
"111 1303 OFFCURVE",
"111 1272 CURVE SMOOTH",
"111 1261 OFFCURVE",
"117 1242 OFFCURVE",
"128 1242 CURVE SMOOTH",
"185 1242 OFFCURVE",
"241 1245 OFFCURVE",
"297 1251 CURVE",
"312 1179 OFFCURVE",
"328 1080 OFFCURVE",
"345 954 CURVE",
"333 955 OFFCURVE",
"324 956 OFFCURVE",
"319 956 CURVE SMOOTH",
"283 956 OFFCURVE",
"251 942 OFFCURVE",
"224 915 CURVE SMOOTH",
"169 859 OFFCURVE",
"144 781 OFFCURVE",
"126 673 CURVE SMOOTH",
"108 565 OFFCURVE",
"105 487 OFFCURVE",
"105 400 CURVE SMOOTH",
"105 360 OFFCURVE",
"106 328 OFFCURVE",
"108 305 CURVE",
"108 252 OFFCURVE",
"109 219 OFFCURVE",
"117 165 CURVE SMOOTH",
"124 111 OFFCURVE",
"139 75 OFFCURVE",
"163 40 CURVE SMOOTH",
"187 4 OFFCURVE",
"227 -15 OFFCURVE",
"279 -15 CURVE SMOOTH"
);
},
{
closed = 1;
nodes = (
"229 72 OFFCURVE",
"206 156 OFFCURVE",
"206 325 CURVE SMOOTH",
"206 336 OFFCURVE",
"206 349 OFFCURVE",
"207 364 CURVE",
"207 379 OFFCURVE",
"207 387 OFFCURVE",
"207 390 CURVE SMOOTH",
"207 703 OFFCURVE",
"240 868 OFFCURVE",
"306 885 CURVE",
"345 861 OFFCURVE",
"365 793 OFFCURVE",
"365 681 CURVE SMOOTH",
"365 553 OFFCURVE",
"358 396 OFFCURVE",
"344 211 CURVE",
"343 206 OFFCURVE",
"343 197 OFFCURVE",
"343 184 CURVE",
"342 170 OFFCURVE",
"342 159 OFFCURVE",
"341 152 CURVE",
"340 136 OFFCURVE",
"333 108 OFFCURVE",
"325 96 CURVE",
"316 84 OFFCURVE",
"298 72 OFFCURVE",
"274 72 CURVE SMOOTH"
);
}
);
width = 588;
}
);
note = eth;
unicode = 00F0;
},
